<svg xmlns="http://www.w3.org/2000/svg" xmlns:xlink="http://www.w3.org/1999/xlink" width="300" zoomAndPan="magnify" viewBox="0 0 224.87999 225" height="300" preserveAspectRatio="xMidYMid meet" version="1.0"><defs><clipPath id="b1af04bac0"><path d="M 210 14 L 224.761719 14 L 224.761719 122 L 210 122 Z M 210 14 " clip-rule="nonzero"/></clipPath><clipPath id="60f440c98a"><path d="M 47 144 L 128 144 L 128 224.9375 L 47 224.9375 Z M 47 144 " clip-rule="nonzero"/></clipPath><clipPath id="14d58f1280"><path d="M 112 198 L 140 198 L 140 224.9375 L 112 224.9375 Z M 112 198 " clip-rule="nonzero"/></clipPath><clipPath id="61e39fc305"><path d="M 0.140625 144 L 81 144 L 81 224.9375 L 0.140625 224.9375 Z M 0.140625 144 " clip-rule="nonzero"/></clipPath><clipPath id="c0b205f2fe"><path d="M 74 198 L 101 198 L 101 224.9375 L 74 224.9375 Z M 74 198 " clip-rule="nonzero"/></clipPath><clipPath id="5774a0758e"><path d="M 95 0.0585938 L 160 0.0585938 L 160 65 L 95 65 Z M 95 0.0585938 " clip-rule="nonzero"/></clipPath></defs><path fill="#8c7bff" d="M 132.648438 112.960938 L 173.308594 112.960938 L 173.308594 157.566406 L 169.824219 157.566406 L 169.34375 157.148438 L 132.648438 157.148438 L 132.648438 112.960938 " fill-opacity="1" fill-rule="nonzero"/><path fill="#ffffff" d="M 129.476562 156.984375 L 129.476562 113.066406 L 169.929688 113.066406 L 169.929688 156.984375 L 129.476562 156.984375 " fill-opacity="1" fill-rule="nonzero"/><path fill="#000000" d="M 129.847656 156.847656 L 169.554688 156.847656 L 169.554688 113.441406 L 129.847656 113.441406 Z M 169.824219 157.386719 L 129.578125 157.386719 C 129.429688 157.386719 129.304688 157.265625 129.304688 157.117188 L 129.304688 113.171875 C 129.304688 113.019531 129.429688 112.898438 129.578125 112.898438 L 169.824219 112.898438 C 169.976562 112.898438 170.097656 113.019531 170.097656 113.171875 L 170.097656 157.117188 C 170.097656 157.265625 169.976562 157.386719 169.824219 157.386719 " fill-opacity="1" fill-rule="nonzero"/><path fill="#ffffff" d="M 109.90625 160.824219 L 109.90625 157.011719 L 169.980469 157.011719 L 169.980469 160.824219 L 109.90625 160.824219 " fill-opacity="1" fill-rule="nonzero"/><path fill="#000000" d="M 110.28125 160.449219 L 169.605469 160.449219 L 169.605469 157.386719 L 110.28125 157.386719 Z M 169.878906 160.992188 L 110.011719 160.992188 C 109.859375 160.992188 109.738281 160.871094 109.738281 160.722656 L 109.738281 157.117188 C 109.738281 156.96875 109.859375 156.847656 110.011719 156.847656 L 169.878906 156.847656 C 170.027344 156.847656 170.148438 156.96875 170.148438 157.117188 L 170.148438 160.722656 C 170.148438 160.871094 170.027344 160.992188 169.878906 160.992188 " fill-opacity="1" fill-rule="nonzero"/><g clip-path="url(#b1af04bac0)"><path fill="#000000" d="M 218.234375 14.746094 L 210.941406 14.746094 L 210.941406 121.652344 L 218.234375 121.652344 C 221.984375 121.652344 225.027344 118.550781 225.027344 114.71875 L 225.027344 21.679688 C 225.027344 17.851562 221.984375 14.746094 218.234375 14.746094 " fill-opacity="1" fill-rule="nonzero"/></g><path fill="#ffffff" d="M 63.636719 114.8125 L 63.636719 21.730469 C 63.636719 17.902344 66.675781 14.796875 70.425781 14.796875 L 213.804688 14.796875 C 217.554688 14.796875 220.597656 17.902344 220.597656 21.730469 L 220.597656 114.8125 C 220.597656 118.640625 217.554688 121.746094 213.804688 121.746094 L 70.425781 121.746094 C 66.675781 121.746094 63.636719 118.640625 63.636719 114.8125 " fill-opacity="1" fill-rule="nonzero"/><path fill="#000000" d="M 70.425781 15.066406 C 66.832031 15.066406 63.90625 18.054688 63.90625 21.730469 L 63.90625 114.8125 C 63.90625 118.484375 66.832031 121.476562 70.425781 121.476562 L 213.804688 121.476562 C 217.402344 121.476562 220.324219 118.484375 220.324219 114.8125 L 220.324219 21.730469 C 220.324219 18.054688 217.402344 15.066406 213.804688 15.066406 Z M 213.804688 122.015625 L 70.425781 122.015625 C 66.53125 122.015625 63.363281 118.785156 63.363281 114.8125 L 63.363281 21.730469 C 63.363281 17.757812 66.53125 14.527344 70.425781 14.527344 L 213.804688 14.527344 C 217.699219 14.527344 220.867188 17.757812 220.867188 21.730469 L 220.867188 114.8125 C 220.867188 118.785156 217.699219 122.015625 213.804688 122.015625 " fill-opacity="1" fill-rule="nonzero"/><path fill="#000000" d="M 70.425781 15.015625 C 66.832031 15.015625 63.90625 18.007812 63.90625 21.679688 L 63.90625 114.71875 C 63.90625 118.394531 66.832031 121.382812 70.425781 121.382812 L 213.804688 121.382812 C 217.402344 121.382812 220.324219 118.394531 220.324219 114.71875 L 220.324219 21.679688 C 220.324219 18.007812 217.402344 15.015625 213.804688 15.015625 Z M 213.804688 121.925781 L 70.425781 121.925781 C 66.53125 121.925781 63.363281 118.691406 63.363281 114.71875 L 63.363281 21.679688 C 63.363281 17.707031 66.53125 14.476562 70.425781 14.476562 L 213.804688 14.476562 C 217.699219 14.476562 220.867188 17.707031 220.867188 21.679688 L 220.867188 114.71875 C 220.867188 118.691406 217.699219 121.925781 213.804688 121.925781 " fill-opacity="1" fill-rule="nonzero"/><path fill="#ffffff" d="M 182.847656 135.046875 L 34.414062 135.046875 L 34.414062 28.316406 L 182.847656 28.316406 L 182.847656 135.046875 " fill-opacity="1" fill-rule="nonzero"/><path fill="#4ada85" d="M 182.847656 43.210938 L 34.414062 43.210938 L 34.414062 28.316406 L 182.847656 28.316406 L 182.847656 43.210938 " fill-opacity="1" fill-rule="nonzero"/><path fill="#ffffff" d="M 178.347656 35.710938 C 178.347656 37.527344 176.90625 39 175.128906 39 C 173.351562 39 171.910156 37.527344 171.910156 35.710938 C 171.910156 33.898438 173.351562 32.425781 175.128906 32.425781 C 176.90625 32.425781 178.347656 33.898438 178.347656 35.710938 " fill-opacity="1" fill-rule="nonzero"/><path fill="#ffffff" d="M 167.761719 35.710938 C 167.761719 37.527344 166.324219 39 164.542969 39 C 162.765625 39 161.324219 37.527344 161.324219 35.710938 C 161.324219 33.898438 162.765625 32.425781 164.542969 32.425781 C 166.324219 32.425781 167.761719 33.898438 167.761719 35.710938 " fill-opacity="1" fill-rule="nonzero"/><path fill="#ffffff" d="M 157.179688 35.710938 C 157.179688 37.527344 155.738281 39 153.960938 39 C 152.183594 39 150.742188 37.527344 150.742188 35.710938 C 150.742188 33.898438 152.183594 32.425781 153.960938 32.425781 C 155.738281 32.425781 157.179688 33.898438 157.179688 35.710938 " fill-opacity="1" fill-rule="nonzero"/><path fill="#000000" d="M 34.6875 134.773438 L 182.578125 134.773438 L 182.578125 28.585938 L 34.6875 28.585938 Z M 182.847656 135.316406 L 34.414062 135.316406 C 34.265625 135.316406 34.144531 135.195312 34.144531 135.046875 L 34.144531 28.316406 C 34.144531 28.167969 34.265625 28.046875 34.414062 28.046875 L 182.847656 28.046875 C 183 28.046875 183.121094 28.167969 183.121094 28.316406 L 183.121094 135.046875 C 183.121094 135.195312 183 135.316406 182.847656 135.316406 " fill-opacity="1" fill-rule="nonzero"/><path fill="#fda4ff" d="M 134.597656 89.558594 L 175.378906 89.558594 L 175.378906 50.226562 L 134.597656 50.226562 Z M 175.652344 90.097656 L 134.324219 90.097656 C 134.175781 90.097656 134.054688 89.976562 134.054688 89.828125 L 134.054688 49.953125 C 134.054688 49.804688 134.175781 49.683594 134.324219 49.683594 L 175.652344 49.683594 C 175.800781 49.683594 175.921875 49.804688 175.921875 49.953125 L 175.921875 89.828125 C 175.921875 89.976562 175.800781 90.097656 175.652344 90.097656 " fill-opacity="1" fill-rule="nonzero"/><path fill="#fda4ff" d="M 88.738281 89.558594 L 129.519531 89.558594 L 129.519531 50.226562 L 88.738281 50.226562 Z M 129.789062 90.097656 L 88.464844 90.097656 C 88.316406 90.097656 88.195312 89.976562 88.195312 89.828125 L 88.195312 49.953125 C 88.195312 49.804688 88.316406 49.683594 88.464844 49.683594 L 129.789062 49.683594 C 129.941406 49.683594 130.0625 49.804688 130.0625 49.953125 L 130.0625 89.828125 C 130.0625 89.976562 129.941406 90.097656 129.789062 90.097656 " fill-opacity="1" fill-rule="nonzero"/><path fill="#fda4ff" d="M 42.875 89.558594 L 83.660156 89.558594 L 83.660156 50.226562 L 42.875 50.226562 Z M 83.929688 90.097656 L 42.605469 90.097656 C 42.457031 90.097656 42.332031 89.976562 42.332031 89.828125 L 42.332031 49.953125 C 42.332031 49.804688 42.457031 49.683594 42.605469 49.683594 L 83.929688 49.683594 C 84.078125 49.683594 84.203125 49.804688 84.203125 49.953125 L 84.203125 89.828125 C 84.203125 89.976562 84.078125 90.097656 83.929688 90.097656 " fill-opacity="1" fill-rule="nonzero"/><path fill="#8c7bff" d="M 85.683594 108.925781 L 69.933594 108.925781 L 69.933594 103.371094 L 85.683594 103.371094 L 85.683594 108.925781 " fill-opacity="1" fill-rule="nonzero"/><g clip-path="url(#60f440c98a)"><path fill="#8c7bff" d="M 87.550781 144.910156 C 65.679688 144.910156 47.886719 162.738281 47.886719 184.652344 C 47.886719 206.570312 65.679688 224.398438 87.550781 224.398438 C 109.417969 224.398438 127.210938 206.570312 127.210938 184.652344 C 127.210938 162.738281 109.417969 144.910156 87.550781 144.910156 Z M 87.550781 224.941406 C 65.378906 224.941406 47.34375 206.867188 47.34375 184.652344 C 47.34375 162.4375 65.378906 144.367188 87.550781 144.367188 C 109.71875 144.367188 127.753906 162.4375 127.753906 184.652344 C 127.753906 206.867188 109.71875 224.941406 87.550781 224.941406 " fill-opacity="1" fill-rule="nonzero"/></g><path fill="#8c7bff" d="M 87.550781 181.4375 C 85.78125 181.4375 84.339844 182.878906 84.339844 184.652344 C 84.339844 186.429688 85.78125 187.871094 87.550781 187.871094 C 89.320312 187.871094 90.757812 186.429688 90.757812 184.652344 C 90.757812 182.878906 89.320312 181.4375 87.550781 181.4375 Z M 87.550781 188.414062 C 85.480469 188.414062 83.796875 186.726562 83.796875 184.652344 C 83.796875 182.582031 85.480469 180.894531 87.550781 180.894531 C 89.617188 180.894531 91.300781 182.582031 91.300781 184.652344 C 91.300781 186.726562 89.617188 188.414062 87.550781 188.414062 " fill-opacity="1" fill-rule="nonzero"/><path fill="#8c7bff" d="M 126.089844 208.621094 C 124.515625 208.621094 123.230469 209.90625 123.230469 211.488281 C 123.230469 213.066406 124.515625 214.355469 126.089844 214.355469 C 127.667969 214.355469 128.949219 213.066406 128.949219 211.488281 C 128.949219 209.90625 127.667969 208.621094 126.089844 208.621094 Z M 126.089844 214.894531 C 124.214844 214.894531 122.6875 213.367188 122.6875 211.488281 C 122.6875 209.609375 124.214844 208.078125 126.089844 208.078125 C 127.964844 208.078125 129.492188 209.609375 129.492188 211.488281 C 129.492188 213.367188 127.964844 214.894531 126.089844 214.894531 " fill-opacity="1" fill-rule="nonzero"/><g clip-path="url(#14d58f1280)"><path fill="#8c7bff" d="M 126.089844 198.578125 C 118.984375 198.578125 113.207031 204.367188 113.207031 211.488281 C 113.207031 218.605469 118.984375 224.398438 126.089844 224.398438 C 133.195312 224.398438 138.976562 218.605469 138.976562 211.488281 C 138.976562 204.367188 133.195312 198.578125 126.089844 198.578125 Z M 126.089844 224.941406 C 118.6875 224.941406 112.664062 218.90625 112.664062 211.488281 C 112.664062 204.070312 118.6875 198.03125 126.089844 198.03125 C 133.492188 198.03125 139.515625 204.070312 139.515625 211.488281 C 139.515625 218.90625 133.492188 224.941406 126.089844 224.941406 " fill-opacity="1" fill-rule="nonzero"/></g><path fill="#000000" d="M 125.777344 211.476562 C 125.625 211.476562 125.503906 211.355469 125.503906 211.207031 L 125.503906 126.789062 L 87.453125 126.789062 C 87.304688 126.789062 87.183594 126.667969 87.183594 126.519531 C 87.183594 126.367188 87.304688 126.246094 87.453125 126.246094 L 125.777344 126.246094 C 125.925781 126.246094 126.046875 126.367188 126.046875 126.519531 L 126.046875 211.207031 C 126.046875 211.355469 125.925781 211.476562 125.777344 211.476562 " fill-opacity="1" fill-rule="nonzero"/><path fill="#000000" d="M 87.457031 126.519531 C 87.308594 126.519531 87.1875 126.398438 87.1875 126.25 L 87.1875 106.722656 L 85.742188 106.722656 C 85.59375 106.722656 85.472656 106.601562 85.472656 106.449219 C 85.472656 106.300781 85.59375 106.179688 85.742188 106.179688 L 87.457031 106.179688 C 87.609375 106.179688 87.730469 106.300781 87.730469 106.449219 L 87.730469 126.25 C 87.730469 126.398438 87.609375 126.519531 87.457031 126.519531 " fill-opacity="1" fill-rule="nonzero"/><path fill="#000000" d="M 89.511719 184.679688 L 40.101562 184.679688 C 39.953125 184.679688 39.832031 184.558594 39.832031 184.410156 C 39.832031 184.257812 39.953125 184.136719 40.101562 184.136719 L 89.511719 184.136719 C 89.660156 184.136719 89.78125 184.257812 89.78125 184.410156 C 89.78125 184.558594 89.660156 184.679688 89.511719 184.679688 " fill-opacity="1" fill-rule="nonzero"/><path fill="#fda4ff" d="M 131.050781 180.40625 L 119.089844 183.84375 L 125.300781 205.566406 L 129.847656 210.289062 L 138.011719 204.742188 L 131.050781 180.40625 " fill-opacity="1" fill-rule="nonzero"/><path fill="#020202" d="M 119.089844 183.84375 L 122.347656 195.242188 L 133.191406 187.921875 L 131.050781 180.40625 L 119.089844 183.84375 " fill-opacity="1" fill-rule="nonzero"/><path fill="#020202" d="M 123.710938 200.007812 L 125.300781 205.566406 L 129.847656 210.289062 L 138.011719 204.742188 L 133.757812 189.878906 L 123.710938 200.007812 " fill-opacity="1" fill-rule="nonzero"/><path fill="#8c7bff" d="M 127.378906 211.164062 L 124.371094 204.890625 C 123.71875 203.523438 124.726562 201.941406 126.242188 201.964844 L 126.691406 201.972656 C 129.664062 202.023438 132.214844 199.863281 132.671875 196.921875 L 133.765625 189.875 L 134.113281 189.707031 C 137.019531 188.308594 140.265625 187.769531 143.46875 188.15625 L 143.777344 188.195312 C 147.539062 188.648438 151.355469 188.015625 154.769531 186.371094 L 156.773438 185.40625 C 158.230469 184.707031 159.964844 184.972656 161.144531 186.074219 L 161.761719 186.648438 L 150.871094 200.203125 L 127.378906 211.164062 " fill-opacity="1" fill-rule="nonzero"/><path fill="#ffffff" d="M 128.304688 214.875 L 140.371094 209.070312 C 147.699219 205.542969 154.417969 200.863281 160.269531 195.207031 L 165.878906 189.789062 L 162.226562 186.082031 L 156.75 191.292969 C 150.996094 196.769531 144.421875 201.3125 137.265625 204.757812 L 126.042969 210.160156 L 128.304688 214.875 " fill-opacity="1" fill-rule="nonzero"/><path fill="#000000" d="M 126.40625 210.285156 L 128.433594 214.515625 L 140.253906 208.828125 C 147.566406 205.304688 154.238281 200.65625 160.082031 195.015625 L 165.492188 189.785156 L 162.21875 186.464844 L 156.9375 191.492188 C 151.152344 196.996094 144.574219 201.539062 137.382812 205 Z M 128.304688 215.148438 C 128.277344 215.148438 128.246094 215.140625 128.214844 215.132812 C 128.148438 215.109375 128.09375 215.058594 128.0625 214.992188 L 125.796875 210.273438 C 125.734375 210.140625 125.792969 209.980469 125.925781 209.914062 L 137.148438 204.511719 C 144.289062 201.078125 150.820312 196.5625 156.5625 191.097656 L 162.039062 185.886719 C 162.148438 185.785156 162.316406 185.789062 162.417969 185.894531 L 166.070312 189.601562 C 166.125 189.652344 166.152344 189.722656 166.152344 189.792969 C 166.148438 189.867188 166.121094 189.933594 166.066406 189.984375 L 160.457031 195.40625 C 154.574219 201.085938 147.855469 205.765625 140.488281 209.3125 L 128.421875 215.121094 C 128.386719 215.136719 128.34375 215.148438 128.304688 215.148438 " fill-opacity="1" fill-rule="nonzero"/><path fill="#000000" d="M 136.84375 191.269531 C 136.769531 191.269531 136.695312 191.238281 136.640625 191.179688 C 136.542969 191.066406 136.550781 190.894531 136.664062 190.796875 L 139.886719 187.921875 C 140 187.820312 140.171875 187.832031 140.269531 187.941406 C 140.371094 188.054688 140.359375 188.226562 140.25 188.324219 L 137.023438 191.199219 C 136.972656 191.246094 136.90625 191.269531 136.84375 191.269531 " fill-opacity="1" fill-rule="nonzero"/><path fill="#000000" d="M 140.070312 191.597656 C 139.992188 191.597656 139.917969 191.566406 139.867188 191.503906 C 139.765625 191.394531 139.777344 191.222656 139.886719 191.121094 L 143.253906 188.128906 C 143.367188 188.027344 143.539062 188.039062 143.640625 188.152344 C 143.738281 188.261719 143.726562 188.433594 143.617188 188.535156 L 140.25 191.527344 C 140.195312 191.574219 140.132812 191.597656 140.070312 191.597656 " fill-opacity="1" fill-rule="nonzero"/><path fill="#000000" d="M 143.566406 191.699219 C 143.492188 191.699219 143.417969 191.667969 143.363281 191.605469 C 143.265625 191.496094 143.273438 191.324219 143.386719 191.222656 L 146.753906 188.230469 C 146.867188 188.132812 147.039062 188.140625 147.136719 188.253906 C 147.238281 188.363281 147.226562 188.535156 147.113281 188.636719 L 143.746094 191.628906 C 143.695312 191.675781 143.628906 191.699219 143.566406 191.699219 " fill-opacity="1" fill-rule="nonzero"/><path fill="#fda4ff" d="M 109.339844 187.21875 L 97.316406 190.429688 L 103.820312 214.890625 L 115.847656 211.679688 L 109.339844 187.21875 " fill-opacity="1" fill-rule="nonzero"/><path fill="#020202" d="M 97.316406 190.429688 L 99.21875 197.589844 L 112.097656 197.589844 L 109.339844 187.21875 L 97.316406 190.429688 " fill-opacity="1" fill-rule="nonzero"/><path fill="#020202" d="M 112.65625 199.683594 L 100.628906 202.894531 L 103.820312 214.890625 L 115.847656 211.679688 L 112.65625 199.683594 " fill-opacity="1" fill-rule="nonzero"/><path fill="#8c7bff" d="M 98.9375 215.496094 L 98.9375 208.539062 C 98.9375 207.019531 100.53125 206.03125 101.886719 206.710938 L 102.285156 206.910156 C 104.945312 208.242188 108.179688 207.40625 109.863281 204.953125 L 113.890625 199.074219 L 114.28125 199.074219 C 117.503906 199.074219 120.660156 200 123.378906 201.734375 L 123.644531 201.902344 C 126.839844 203.945312 130.550781 205.027344 134.339844 205.027344 L 136.5625 205.027344 C 138.175781 205.027344 139.625 206.019531 140.214844 207.527344 L 140.519531 208.3125 L 124.851562 215.804688 L 98.9375 215.496094 " fill-opacity="1" fill-rule="nonzero"/><path fill="#000000" d="M 99.207031 215.226562 L 124.789062 215.53125 L 140.175781 208.175781 L 139.960938 207.625 C 139.410156 206.210938 138.078125 205.300781 136.5625 205.300781 L 134.339844 205.300781 C 130.492188 205.300781 126.742188 204.203125 123.496094 202.128906 L 123.234375 201.960938 C 120.554688 200.25 117.457031 199.347656 114.28125 199.347656 L 114.035156 199.347656 L 110.085938 205.105469 C 108.335938 207.660156 104.929688 208.539062 102.164062 207.152344 L 101.765625 206.953125 C 101.214844 206.675781 100.574219 206.703125 100.050781 207.027344 C 99.523438 207.351562 99.207031 207.917969 99.207031 208.539062 Z M 124.851562 216.074219 C 124.847656 216.074219 124.847656 216.074219 124.847656 216.074219 L 98.933594 215.769531 C 98.785156 215.765625 98.664062 215.644531 98.664062 215.496094 L 98.664062 208.539062 C 98.664062 207.726562 99.078125 206.992188 99.765625 206.566406 C 100.449219 206.144531 101.289062 206.109375 102.007812 206.46875 L 102.410156 206.667969 C 104.933594 207.933594 108.039062 207.128906 109.636719 204.800781 L 113.667969 198.921875 C 113.71875 198.847656 113.800781 198.804688 113.890625 198.804688 L 114.28125 198.804688 C 117.5625 198.804688 120.757812 199.738281 123.527344 201.507812 L 123.789062 201.675781 C 126.949219 203.691406 130.597656 204.757812 134.339844 204.757812 L 136.5625 204.757812 C 138.304688 204.757812 139.835938 205.804688 140.46875 207.429688 L 140.773438 208.214844 C 140.824219 208.34375 140.765625 208.496094 140.636719 208.558594 L 124.96875 216.050781 C 124.929688 216.066406 124.890625 216.074219 124.851562 216.074219 " fill-opacity="1" fill-rule="nonzero"/><path fill="#ffffff" d="M 98.167969 219.242188 L 111.550781 219.242188 C 119.683594 219.242188 127.761719 217.9375 135.480469 215.382812 L 142.875 212.929688 L 141.1875 208.003906 L 134 210.324219 C 126.445312 212.765625 118.554688 214.007812 110.617188 214.007812 L 98.167969 214.007812 L 98.167969 219.242188 " fill-opacity="1" fill-rule="nonzero"/><path fill="#000000" d="M 98.441406 218.972656 L 111.550781 218.972656 C 119.667969 218.972656 127.691406 217.675781 135.394531 215.125 L 142.53125 212.757812 L 141.015625 208.34375 L 134.082031 210.582031 C 126.488281 213.035156 118.59375 214.28125 110.617188 214.28125 L 98.441406 214.28125 Z M 111.550781 219.511719 L 98.167969 219.511719 C 98.019531 219.511719 97.898438 219.394531 97.898438 219.242188 L 97.898438 214.007812 C 97.898438 213.859375 98.019531 213.738281 98.167969 213.738281 L 110.617188 213.738281 C 118.539062 213.738281 126.375 212.503906 133.914062 210.070312 L 141.101562 207.746094 C 141.246094 207.703125 141.394531 207.777344 141.441406 207.917969 L 143.132812 212.84375 C 143.15625 212.910156 143.152344 212.984375 143.121094 213.050781 C 143.085938 213.117188 143.03125 213.164062 142.960938 213.1875 L 135.5625 215.636719 C 127.804688 218.210938 119.726562 219.511719 111.550781 219.511719 " fill-opacity="1" fill-rule="nonzero"/><path fill="#000000" d="M 116.183594 201.695312 C 116.066406 201.695312 115.957031 201.617188 115.921875 201.5 C 115.878906 201.355469 115.964844 201.203125 116.109375 201.164062 L 120.253906 199.96875 C 120.402344 199.929688 120.550781 200.011719 120.589844 200.15625 C 120.632812 200.300781 120.550781 200.449219 120.40625 200.492188 L 116.257812 201.683594 C 116.230469 201.691406 116.207031 201.695312 116.183594 201.695312 " fill-opacity="1" fill-rule="nonzero"/><path fill="#000000" d="M 118.949219 203.386719 C 118.828125 203.386719 118.722656 203.308594 118.6875 203.191406 C 118.644531 203.046875 118.730469 202.898438 118.871094 202.855469 L 123.203125 201.617188 C 123.347656 201.578125 123.496094 201.660156 123.539062 201.804688 C 123.578125 201.949219 123.496094 202.097656 123.351562 202.140625 L 119.023438 203.378906 C 119 203.382812 118.972656 203.386719 118.949219 203.386719 " fill-opacity="1" fill-rule="nonzero"/><path fill="#000000" d="M 122.058594 204.996094 C 121.9375 204.996094 121.832031 204.917969 121.796875 204.800781 C 121.753906 204.65625 121.839844 204.507812 121.984375 204.464844 L 126.3125 203.226562 C 126.457031 203.1875 126.605469 203.269531 126.648438 203.414062 C 126.6875 203.558594 126.605469 203.707031 126.460938 203.75 L 122.132812 204.984375 C 122.105469 204.992188 122.082031 204.996094 122.058594 204.996094 " fill-opacity="1" fill-rule="nonzero"/><path fill="#8c7bff" d="M 135.328125 184.742188 L 124.390625 144.140625 C 122.730469 137.96875 117.226562 133.617188 110.847656 133.429688 L 50.835938 131.679688 L 50.835938 150.042969 L 107.128906 150.042969 L 117.636719 189.53125 L 135.328125 184.742188 " fill-opacity="1" fill-rule="nonzero"/><path fill="#8c7bff" d="M 95.324219 193.625 L 113.019531 188.839844 L 101.832031 147.300781 C 100.191406 141.210938 94.675781 136.980469 88.382812 136.980469 L 72.429688 136.980469 L 72.429688 128.027344 L 44.765625 128.027344 L 44.765625 140.71875 C 44.765625 148.796875 51.296875 155.34375 59.359375 155.34375 L 85.015625 155.34375 L 95.324219 193.625 " fill-opacity="1" fill-rule="nonzero"/><path fill="#6155ff" d="M 101.96875 147.808594 L 101.832031 147.300781 C 100.191406 141.210938 94.675781 136.980469 88.382812 136.980469 L 88.125 136.980469 C 88.089844 137.3125 88.074219 137.652344 88.074219 137.992188 C 88.074219 143.75 92.726562 148.414062 98.472656 148.414062 C 99.699219 148.414062 100.875 148.199219 101.96875 147.808594 " fill-opacity="1" fill-rule="nonzero"/><path fill="#000000" d="M 72.429688 134.0625 L 72.429688 128.027344 L 44.765625 128.027344 L 44.765625 140.71875 C 44.765625 140.71875 48.015625 137.34375 52.90625 137.324219 C 59.449219 137.292969 67.515625 140.28125 72.429688 134.0625 " fill-opacity="1" fill-rule="nonzero"/><path fill="#000000" d="M 95.324219 193.894531 C 95.277344 193.894531 95.230469 193.882812 95.191406 193.859375 C 95.128906 193.824219 95.082031 193.765625 95.0625 193.695312 L 84.808594 155.613281 L 59.359375 155.613281 C 51.160156 155.613281 44.492188 148.933594 44.492188 140.71875 L 44.492188 128.027344 C 44.492188 127.878906 44.613281 127.757812 44.765625 127.757812 C 44.914062 127.757812 45.035156 127.878906 45.035156 128.027344 L 45.035156 140.71875 C 45.035156 148.632812 51.460938 155.074219 59.359375 155.074219 L 85.015625 155.074219 C 85.136719 155.074219 85.246094 155.15625 85.277344 155.273438 L 95.515625 193.289062 L 112.6875 188.648438 L 101.570312 147.371094 C 99.960938 141.414062 94.539062 137.25 88.382812 137.25 L 76.726562 137.25 C 75.285156 137.25 73.960938 136.589844 73.089844 135.441406 C 72.996094 135.324219 73.019531 135.152344 73.140625 135.0625 C 73.261719 134.972656 73.429688 134.996094 73.519531 135.117188 C 74.289062 136.128906 75.457031 136.707031 76.726562 136.707031 L 88.382812 136.707031 C 94.785156 136.707031 100.425781 141.035156 102.09375 147.230469 L 113.28125 188.765625 C 113.320312 188.914062 113.234375 189.0625 113.089844 189.101562 L 95.398438 193.886719 C 95.375 193.890625 95.351562 193.894531 95.324219 193.894531 " fill-opacity="1" fill-rule="nonzero"/><path fill="#fda4ff" d="M 62.617188 102.207031 L 55.179688 102.453125 L 54.789062 90.417969 L 62.226562 90.175781 L 62.617188 102.207031 " fill-opacity="1" fill-rule="nonzero"/><path fill="#fda4ff" d="M 68.328125 86.84375 C 66.875 91.414062 62 93.9375 57.441406 92.476562 C 52.882812 91.019531 50.367188 86.136719 51.820312 81.570312 C 53.277344 77 58.148438 74.476562 62.707031 75.933594 C 67.265625 77.394531 69.78125 82.277344 68.328125 86.84375 " fill-opacity="1" fill-rule="nonzero"/><path fill="#ffffff" d="M 59.03125 89.082031 C 60.3125 90.175781 62.15625 90.496094 63.785156 89.746094 C 65.417969 88.992188 66.375 87.378906 66.375 85.691406 L 59.03125 89.082031 " fill-opacity="1" fill-rule="nonzero"/><path fill="#000000" d="M 60.078125 93.160156 C 59.164062 93.160156 58.246094 93.019531 57.359375 92.738281 C 55.675781 92.195312 53.535156 90.566406 52.59375 89.097656 C 52.511719 88.972656 52.550781 88.804688 52.675781 88.726562 C 52.800781 88.644531 52.96875 88.679688 53.050781 88.808594 C 54.011719 90.300781 56.140625 91.777344 57.523438 92.21875 C 59.058594 92.710938 60.6875 92.75 62.234375 92.335938 C 62.382812 92.296875 62.53125 92.382812 62.570312 92.527344 C 62.605469 92.671875 62.519531 92.820312 62.375 92.859375 C 61.625 93.0625 60.851562 93.160156 60.078125 93.160156 " fill-opacity="1" fill-rule="nonzero"/><path fill="#000000" d="M 62.730469 76.25 C 63.089844 75.117188 62.296875 73.929688 61.113281 73.863281 C 56.773438 73.617188 52.539062 76.582031 51.167969 80.890625 C 49.5625 85.9375 52.382812 90.902344 57.441406 92.476562 C 57.445312 92.476562 62.730469 76.25 62.730469 76.25 " fill-opacity="1" fill-rule="nonzero"/><path fill="#000000" d="M 54.425781 79.140625 C 54.425781 74.621094 50.757812 70.957031 46.234375 70.957031 C 41.710938 70.957031 38.042969 74.621094 38.042969 79.140625 C 38.042969 83.660156 41.710938 87.320312 46.234375 87.320312 C 50.757812 87.320312 54.425781 83.660156 54.425781 79.140625 " fill-opacity="1" fill-rule="nonzero"/><path fill="#fda4ff" d="M 100.117188 92.121094 L 101.757812 89.261719 C 102.304688 88.367188 102.410156 87.292969 102.144531 86.277344 C 101.371094 83.332031 105.636719 80.371094 106.777344 77.347656 C 107.207031 76.273438 107.867188 74.574219 109.34375 75.324219 C 110.050781 75.609375 110.398438 76.40625 110.128906 77.121094 L 108.394531 81.71875 L 110.773438 81.816406 C 113.148438 82 116.128906 78.5625 118.347656 77.855469 C 120.570312 77.148438 120.789062 79.238281 120.789062 79.238281 C 120.789062 79.238281 123.863281 76.5 124.972656 78.164062 C 125.410156 78.796875 125.285156 79.660156 124.683594 80.140625 L 109.921875 91.96875 L 107.40625 95.648438 L 100.117188 92.121094 " fill-opacity="1" fill-rule="nonzero"/><path fill="#020202" d="M 106.769531 96.859375 L 108.882812 93.484375 L 102.058594 88.632812 C 101.980469 88.847656 101.882812 89.0625 101.757812 89.261719 L 100.117188 92.121094 L 106.769531 96.859375 " fill-opacity="1" fill-rule="nonzero"/><path fill="#000000" d="M 112.980469 85.488281 C 112.890625 85.488281 112.804688 85.445312 112.753906 85.367188 C 112.671875 85.242188 112.703125 85.070312 112.832031 84.988281 C 114.191406 84.09375 114.988281 83.433594 115.832031 82.734375 C 116.300781 82.339844 116.792969 81.9375 117.390625 81.480469 L 120.636719 79.011719 C 120.757812 78.921875 120.929688 78.945312 121.019531 79.0625 C 121.109375 79.179688 121.085938 79.351562 120.96875 79.441406 L 117.722656 81.910156 C 117.128906 82.359375 116.644531 82.761719 116.179688 83.148438 C 115.324219 83.859375 114.515625 84.53125 113.128906 85.441406 C 113.082031 85.472656 113.03125 85.488281 112.980469 85.488281 " fill-opacity="1" fill-rule="nonzero"/><path fill="#000000" d="M 106.804688 86.042969 C 106.769531 86.042969 106.738281 86.035156 106.707031 86.023438 C 106.566406 85.96875 106.496094 85.808594 106.550781 85.671875 L 108.140625 81.621094 C 108.195312 81.480469 108.355469 81.414062 108.496094 81.464844 C 108.632812 81.523438 108.703125 81.679688 108.648438 81.816406 L 107.054688 85.871094 C 107.015625 85.976562 106.910156 86.042969 106.804688 86.042969 " fill-opacity="1" fill-rule="nonzero"/><path fill="#000000" d="M 100.472656 92.042969 L 106.695312 96.472656 L 109.71875 91.78125 L 109.753906 91.757812 L 124.515625 79.929688 C 125 79.539062 125.105469 78.832031 124.75 78.316406 C 124.589844 78.078125 124.378906 77.945312 124.097656 77.910156 C 123.089844 77.78125 121.5 78.96875 120.96875 79.441406 L 120.578125 79.792969 L 120.519531 79.265625 C 120.519531 79.257812 120.429688 78.519531 119.890625 78.167969 C 119.53125 77.9375 119.042969 77.917969 118.429688 78.113281 C 117.566406 78.386719 116.570312 79.105469 115.511719 79.867188 C 113.914062 81.015625 112.261719 82.203125 110.753906 82.089844 L 108.007812 81.972656 L 109.875 77.023438 C 110.089844 76.453125 109.808594 75.804688 109.242188 75.574219 C 108.898438 75.398438 108.613281 75.367188 108.359375 75.460938 C 107.726562 75.703125 107.328125 76.695312 107.039062 77.417969 L 107.027344 77.445312 C 106.574219 78.652344 105.640625 79.84375 104.734375 81 C 103.3125 82.816406 101.96875 84.535156 102.40625 86.207031 C 102.703125 87.339844 102.554688 88.472656 101.992188 89.402344 Z M 106.84375 97.242188 L 99.757812 92.199219 L 101.523438 89.128906 C 102.015625 88.320312 102.140625 87.332031 101.882812 86.34375 C 101.375 84.410156 102.863281 82.507812 104.308594 80.664062 C 105.1875 79.542969 106.097656 78.382812 106.523438 77.25 L 106.535156 77.21875 C 106.863281 76.398438 107.308594 75.277344 108.167969 74.957031 C 108.566406 74.804688 109.003906 74.847656 109.46875 75.082031 C 110.28125 75.410156 110.703125 76.371094 110.382812 77.214844 L 108.78125 81.464844 L 110.785156 81.546875 C 112.101562 81.644531 113.675781 80.519531 115.195312 79.425781 C 116.289062 78.640625 117.320312 77.898438 118.265625 77.597656 C 119.042969 77.351562 119.6875 77.390625 120.1875 77.71875 C 120.617188 77.996094 120.839844 78.425781 120.949219 78.753906 C 121.601562 78.238281 123.046875 77.226562 124.167969 77.371094 C 124.605469 77.425781 124.949219 77.644531 125.199219 78.015625 C 125.710938 78.757812 125.5625 79.785156 124.855469 80.351562 L 110.128906 92.148438 L 106.84375 97.242188 " fill-opacity="1" fill-rule="nonzero"/><path fill="#fda4ff" d="M 99.09375 126.875 L 107.0625 130.363281 C 107.59375 130.597656 107.839844 131.21875 107.605469 131.753906 L 107.308594 132.433594 C 107.074219 132.96875 106.453125 133.214844 105.917969 132.980469 L 97.953125 129.492188 L 99.09375 126.875 " fill-opacity="1" fill-rule="nonzero"/><path fill="#fda4ff" d="M 101.679688 119.515625 L 89.328125 119.515625 C 89.328125 119.515625 89.300781 124.757812 89.328125 125.273438 C 89.457031 127.730469 91.535156 129.820312 94.167969 129.820312 L 101.949219 129.820312 L 101.679688 119.515625 " fill-opacity="1" fill-rule="nonzero"/><path fill="#fda4ff" d="M 108.960938 126.148438 L 110.78125 127.21875 C 111.160156 127.4375 111.390625 127.84375 111.390625 128.28125 L 111.390625 128.441406 C 111.390625 129.394531 110.359375 129.988281 109.539062 129.503906 L 108.960938 129.164062 C 108.28125 128.765625 107.503906 128.554688 106.714844 128.554688 L 100.453125 128.554688 L 100.453125 125.535156 L 106.714844 125.535156 C 107.503906 125.535156 108.28125 125.746094 108.960938 126.148438 " fill-opacity="1" fill-rule="nonzero"/><path fill="#fda4ff" d="M 110.359375 123.132812 L 112.183594 124.203125 C 112.558594 124.425781 112.789062 124.832031 112.789062 125.265625 L 112.789062 125.429688 C 112.789062 126.382812 111.757812 126.972656 110.9375 126.492188 L 110.359375 126.152344 C 109.679688 125.75 108.90625 125.542969 108.117188 125.542969 L 101.015625 125.542969 L 101.015625 122.523438 L 108.117188 122.523438 C 108.90625 122.523438 109.679688 122.734375 110.359375 123.132812 " fill-opacity="1" fill-rule="nonzero"/><path fill="#fda4ff" d="M 110.359375 120.125 L 112.183594 121.195312 C 112.558594 121.417969 112.789062 121.820312 112.789062 122.261719 L 112.789062 122.421875 C 112.789062 123.371094 111.757812 123.964844 110.9375 123.484375 L 110.359375 123.144531 C 109.679688 122.746094 108.90625 122.535156 108.117188 122.535156 L 101.015625 122.535156 L 101.015625 119.515625 L 108.117188 119.515625 C 108.90625 119.515625 109.679688 119.726562 110.359375 120.125 " fill-opacity="1" fill-rule="nonzero"/><path fill="#955b50" d="M 80.71875 119.515625 L 95.628906 119.515625 L 96.238281 121.34375 L 96.730469 129.820312 L 94.921875 129.820312 C 91.761719 129.820312 90.148438 128.226562 90.148438 128.226562 L 80.71875 128.226562 L 80.71875 119.515625 " fill-opacity="1" fill-rule="nonzero"/><path fill="#000000" d="M 88.261719 119.515625 L 80.71875 119.515625 L 80.71875 128.226562 L 89.328125 128.226562 L 88.261719 119.515625 " fill-opacity="1" fill-rule="nonzero"/><path fill="#000000" d="M 110.160156 129.949219 C 109.898438 129.949219 109.636719 129.878906 109.398438 129.738281 L 108.824219 129.398438 C 108.183594 129.023438 107.457031 128.824219 106.714844 128.824219 L 102.929688 128.824219 C 102.777344 128.824219 102.65625 128.703125 102.65625 128.554688 C 102.65625 128.40625 102.777344 128.285156 102.929688 128.285156 L 106.714844 128.285156 C 107.554688 128.285156 108.375 128.507812 109.097656 128.929688 L 109.675781 129.269531 C 109.972656 129.445312 110.335938 129.449219 110.632812 129.277344 C 110.9375 129.105469 111.117188 128.792969 111.117188 128.441406 L 111.117188 128.28125 C 111.117188 127.941406 110.9375 127.621094 110.644531 127.449219 L 108.824219 126.378906 C 108.183594 126.003906 107.457031 125.808594 106.714844 125.808594 L 101.976562 125.808594 C 101.828125 125.808594 101.707031 125.6875 101.707031 125.535156 C 101.707031 125.386719 101.828125 125.265625 101.976562 125.265625 L 106.714844 125.265625 C 107.554688 125.265625 108.375 125.488281 109.097656 125.914062 L 110.921875 126.984375 C 111.378906 127.253906 111.660156 127.75 111.660156 128.28125 L 111.660156 128.441406 C 111.660156 128.988281 111.378906 129.476562 110.902344 129.75 C 110.671875 129.882812 110.414062 129.949219 110.160156 129.949219 " fill-opacity="1" fill-rule="nonzero"/><path fill="#000000" d="M 111.5625 126.933594 C 111.300781 126.933594 111.039062 126.863281 110.800781 126.726562 L 110.222656 126.386719 C 109.585938 126.011719 108.859375 125.8125 108.117188 125.8125 L 102.503906 125.8125 C 102.351562 125.8125 102.230469 125.691406 102.230469 125.542969 C 102.230469 125.390625 102.351562 125.269531 102.503906 125.269531 L 108.117188 125.269531 C 108.953125 125.269531 109.777344 125.496094 110.5 125.917969 L 111.078125 126.257812 C 111.375 126.433594 111.734375 126.4375 112.035156 126.265625 C 112.339844 126.089844 112.519531 125.777344 112.519531 125.429688 L 112.519531 125.265625 C 112.519531 124.925781 112.339844 124.609375 112.046875 124.4375 L 110.222656 123.367188 C 109.585938 122.992188 108.859375 122.792969 108.117188 122.792969 L 102.347656 122.792969 C 102.199219 122.792969 102.078125 122.671875 102.078125 122.523438 C 102.078125 122.371094 102.199219 122.253906 102.347656 122.253906 L 108.117188 122.253906 C 108.953125 122.253906 109.777344 122.476562 110.5 122.898438 L 112.320312 123.972656 C 112.777344 124.238281 113.0625 124.734375 113.0625 125.265625 L 113.0625 125.429688 C 113.0625 125.976562 112.777344 126.464844 112.304688 126.734375 C 112.070312 126.867188 111.816406 126.933594 111.5625 126.933594 " fill-opacity="1" fill-rule="nonzero"/><path fill="#000000" d="M 106.171875 133.234375 C 105.945312 133.234375 105.71875 133.1875 105.503906 133.09375 L 98.648438 130.089844 L 94.832031 130.089844 C 92.320312 130.089844 90.460938 128.796875 90.058594 128.496094 L 80.449219 128.496094 L 80.449219 119.242188 L 108.117188 119.242188 C 108.953125 119.242188 109.777344 119.46875 110.5 119.890625 L 112.320312 120.964844 C 112.777344 121.230469 113.0625 121.730469 113.0625 122.261719 L 113.0625 122.421875 C 113.0625 122.96875 112.777344 123.453125 112.304688 123.726562 C 111.832031 123.996094 111.269531 123.992188 110.800781 123.71875 L 110.222656 123.378906 C 109.585938 123.003906 108.859375 122.804688 108.117188 122.804688 L 101.742188 122.804688 C 101.59375 122.804688 101.472656 122.683594 101.472656 122.535156 C 101.472656 122.382812 101.59375 122.261719 101.742188 122.261719 L 108.117188 122.261719 C 108.953125 122.261719 109.777344 122.488281 110.5 122.910156 L 111.078125 123.25 C 111.375 123.425781 111.734375 123.429688 112.035156 123.257812 C 112.339844 123.082031 112.519531 122.769531 112.519531 122.421875 L 112.519531 122.261719 C 112.519531 121.917969 112.339844 121.601562 112.046875 121.429688 L 110.222656 120.359375 C 109.585938 119.984375 108.859375 119.785156 108.117188 119.785156 L 80.992188 119.785156 L 80.992188 127.953125 L 90.246094 127.953125 L 90.324219 128.011719 C 90.339844 128.027344 92.25 129.550781 94.835938 129.550781 L 98.761719 129.550781 L 105.722656 132.597656 C 105.996094 132.71875 106.300781 132.722656 106.574219 132.617188 C 106.855469 132.503906 107.074219 132.292969 107.195312 132.019531 L 107.222656 131.953125 C 107.46875 131.386719 107.210938 130.726562 106.644531 130.480469 L 99.828125 127.492188 C 99.6875 127.433594 99.625 127.273438 99.6875 127.136719 C 99.746094 127 99.90625 126.9375 100.042969 126.996094 L 106.863281 129.984375 C 107.703125 130.347656 108.085938 131.332031 107.71875 132.171875 L 107.691406 132.238281 C 107.515625 132.644531 107.1875 132.957031 106.773438 133.117188 C 106.578125 133.195312 106.375 133.234375 106.171875 133.234375 " fill-opacity="1" fill-rule="nonzero"/><path fill="#fed101" d="M 99.148438 90.234375 L 89.835938 104.640625 L 79.136719 101.496094 C 73.078125 99.71875 66.796875 98.816406 60.484375 98.816406 L 59.09375 98.816406 L 59.09375 111.914062 L 70.003906 111.914062 L 85.539062 116.519531 C 90.875 118.105469 96.613281 115.976562 99.640625 111.296875 L 109.089844 96.6875 L 99.148438 90.234375 " fill-opacity="1" fill-rule="nonzero"/><path fill="#fed101" d="M 74.355469 131.648438 L 42.375 131.648438 L 42.375 108.929688 C 42.375 103.34375 46.910156 98.816406 52.5 98.816406 L 64.277344 98.816406 C 69.84375 98.816406 74.355469 103.324219 74.355469 108.882812 L 74.355469 131.648438 " fill-opacity="1" fill-rule="nonzero"/><path fill="#fed101" d="M 86.683594 117.734375 L 60.0625 117.515625 L 53.871094 107.1875 L 53.871094 98.816406 L 47.148438 98.816406 C 41.433594 98.816406 37.894531 105.050781 40.816406 109.972656 L 48.671875 123.199219 C 51.128906 127.332031 55.574219 129.867188 60.375 129.867188 L 86.683594 129.867188 L 86.683594 117.734375 " fill-opacity="1" fill-rule="nonzero"/><path fill="#fcb503" d="M 62.515625 129.867188 C 62.4375 125.328125 58.742188 121.671875 54.195312 121.671875 C 52.1875 121.671875 50.347656 122.386719 48.910156 123.570312 C 51.40625 127.480469 55.722656 129.867188 60.375 129.867188 L 62.515625 129.867188 " fill-opacity="1" fill-rule="nonzero"/><path fill="#000000" d="M 86.957031 130.136719 L 60.375 130.136719 C 55.503906 130.136719 50.929688 127.53125 48.4375 123.335938 L 40.582031 110.109375 C 39.15625 107.707031 39.132812 104.828125 40.515625 102.402344 C 41.894531 99.988281 44.371094 98.546875 47.148438 98.546875 L 54.875 98.511719 C 54.875 98.511719 54.878906 98.511719 54.878906 98.511719 C 55.027344 98.511719 55.148438 98.632812 55.148438 98.78125 C 55.148438 98.933594 55.027344 99.054688 54.878906 99.054688 L 47.148438 99.085938 C 44.570312 99.085938 42.265625 100.425781 40.988281 102.667969 C 39.703125 104.921875 39.726562 107.601562 41.050781 109.832031 L 48.90625 123.058594 C 51.300781 127.089844 55.695312 129.597656 60.375 129.597656 L 86.414062 129.597656 L 86.414062 118.003906 L 59.90625 117.785156 L 53.636719 107.328125 C 53.558594 107.199219 53.601562 107.03125 53.730469 106.953125 C 53.859375 106.878906 54.023438 106.917969 54.101562 107.046875 L 60.214844 117.246094 L 86.957031 117.464844 L 86.957031 130.136719 " fill-opacity="1" fill-rule="nonzero"/><path fill="#000000" d="M 40.082031 184.679688 C 39.933594 184.679688 39.808594 184.5625 39.808594 184.410156 L 39.808594 106.460938 L 38.183594 106.460938 C 38.035156 106.460938 37.914062 106.339844 37.914062 106.191406 C 37.914062 106.042969 38.035156 105.917969 38.183594 105.917969 L 40.082031 105.917969 C 40.230469 105.917969 40.351562 106.042969 40.351562 106.191406 L 40.351562 184.410156 C 40.351562 184.5625 40.230469 184.679688 40.082031 184.679688 " fill-opacity="1" fill-rule="nonzero"/><path fill="#8c7bff" d="M 38.183594 108.664062 L 22.433594 108.664062 L 22.433594 103.195312 L 38.183594 103.195312 L 38.183594 108.664062 " fill-opacity="1" fill-rule="nonzero"/><path fill="#000000" d="M 79.5625 155.730469 L 40.101562 155.730469 C 39.953125 155.730469 39.832031 155.609375 39.832031 155.460938 C 39.832031 155.308594 39.953125 155.1875 40.101562 155.1875 L 79.5625 155.1875 C 79.710938 155.1875 79.832031 155.308594 79.832031 155.460938 C 79.832031 155.609375 79.710938 155.730469 79.5625 155.730469 " fill-opacity="1" fill-rule="nonzero"/><path fill="#000000" d="M 87.453125 211.488281 C 87.304688 211.488281 87.183594 211.363281 87.183594 211.214844 L 87.183594 126.789062 L 40.101562 126.789062 C 39.953125 126.789062 39.832031 126.667969 39.832031 126.519531 C 39.832031 126.367188 39.953125 126.246094 40.101562 126.246094 L 87.453125 126.246094 C 87.605469 126.246094 87.726562 126.367188 87.726562 126.519531 L 87.726562 211.214844 C 87.726562 211.363281 87.605469 211.488281 87.453125 211.488281 " fill-opacity="1" fill-rule="nonzero"/><path fill="#000000" d="M 40.082031 181.164062 C 38.3125 181.164062 36.871094 182.609375 36.871094 184.382812 C 36.871094 186.15625 38.3125 187.601562 40.082031 187.601562 C 41.851562 187.601562 43.292969 186.15625 43.292969 184.382812 C 43.292969 182.609375 41.851562 181.164062 40.082031 181.164062 Z M 40.082031 188.140625 C 38.011719 188.140625 36.328125 186.453125 36.328125 184.382812 C 36.328125 182.308594 38.011719 180.621094 40.082031 180.621094 C 42.152344 180.621094 43.835938 182.308594 43.835938 184.382812 C 43.835938 186.453125 42.152344 188.140625 40.082031 188.140625 " fill-opacity="1" fill-rule="nonzero"/><g clip-path="url(#61e39fc305)"><path fill="#000000" d="M 40.082031 144.367188 C 18.027344 144.367188 0.148438 162.28125 0.148438 184.382812 C 0.148438 206.484375 18.027344 224.398438 40.082031 224.398438 C 62.136719 224.398438 80.015625 206.484375 80.015625 184.382812 C 80.015625 162.28125 62.136719 144.367188 40.082031 144.367188 Z M 40.082031 148.433594 C 49.664062 148.433594 58.671875 152.171875 65.449219 158.964844 C 72.226562 165.753906 75.957031 174.78125 75.957031 184.382812 C 75.957031 193.984375 72.226562 203.011719 65.449219 209.800781 C 58.671875 216.589844 49.664062 220.332031 40.082031 220.332031 C 30.5 220.332031 21.488281 216.589844 14.714844 209.800781 C 7.9375 203.011719 4.207031 193.984375 4.207031 184.382812 C 4.207031 174.78125 7.9375 165.753906 14.714844 158.964844 C 21.488281 152.171875 30.5 148.433594 40.082031 148.433594 " fill-opacity="1" fill-rule="nonzero"/></g><path fill="#000000" d="M 87.550781 208.621094 C 85.972656 208.621094 84.6875 209.90625 84.6875 211.488281 C 84.6875 213.066406 85.972656 214.355469 87.550781 214.355469 C 89.125 214.355469 90.410156 213.066406 90.410156 211.488281 C 90.410156 209.90625 89.125 208.621094 87.550781 208.621094 Z M 87.550781 214.898438 C 85.671875 214.898438 84.144531 213.367188 84.144531 211.488281 C 84.144531 209.605469 85.671875 208.078125 87.550781 208.078125 C 89.425781 208.078125 90.953125 209.605469 90.953125 211.488281 C 90.953125 213.367188 89.425781 214.898438 87.550781 214.898438 " fill-opacity="1" fill-rule="nonzero"/><g clip-path="url(#c0b205f2fe)"><path fill="#000000" d="M 87.550781 198.578125 C 80.445312 198.578125 74.664062 204.367188 74.664062 211.488281 C 74.664062 218.605469 80.445312 224.398438 87.550781 224.398438 C 94.652344 224.398438 100.433594 218.605469 100.433594 211.488281 C 100.433594 204.367188 94.652344 198.578125 87.550781 198.578125 Z M 87.550781 224.941406 C 80.144531 224.941406 74.125 218.90625 74.125 211.488281 C 74.125 204.070312 80.144531 198.03125 87.550781 198.03125 C 94.953125 198.03125 100.976562 204.070312 100.976562 211.488281 C 100.976562 218.90625 94.953125 224.941406 87.550781 224.941406 " fill-opacity="1" fill-rule="nonzero"/></g><g clip-path="url(#5774a0758e)"><path fill="#000000" d="M 159.898438 32.164062 C 159.898438 14.433594 145.507812 0.0585938 127.757812 0.0585938 C 110.003906 0.0585938 95.609375 14.433594 95.609375 32.164062 C 95.609375 49.894531 110.003906 64.269531 127.757812 64.269531 C 145.507812 64.269531 159.898438 49.894531 159.898438 32.164062 " fill-opacity="1" fill-rule="nonzero"/></g><path fill="#ffffff" d="M 156.675781 34.75 C 156.675781 17.019531 142.285156 2.648438 124.53125 2.648438 C 106.777344 2.648438 92.386719 17.019531 92.386719 34.75 C 92.386719 52.480469 106.777344 66.855469 124.53125 66.855469 C 142.285156 66.855469 156.675781 52.480469 156.675781 34.75 " fill-opacity="1" fill-rule="nonzero"/><path fill="#000000" d="M 124.53125 2.917969 C 106.957031 2.917969 92.660156 17.199219 92.660156 34.75 C 92.660156 52.304688 106.957031 66.585938 124.53125 66.585938 C 142.105469 66.585938 156.40625 52.304688 156.40625 34.75 C 156.40625 17.199219 142.105469 2.917969 124.53125 2.917969 Z M 124.53125 67.125 C 106.65625 67.125 92.117188 52.601562 92.117188 34.75 C 92.117188 16.898438 106.65625 2.375 124.53125 2.375 C 142.40625 2.375 156.945312 16.898438 156.945312 34.75 C 156.945312 52.601562 142.40625 67.125 124.53125 67.125 " fill-opacity="1" fill-rule="nonzero"/><path fill="#fed101" d="M 107.527344 39.902344 L 132.554688 50.476562 L 132.554688 19.460938 L 107.527344 30.035156 L 107.527344 39.902344 " fill-opacity="1" fill-rule="nonzero"/><path fill="#000000" d="M 107.796875 39.726562 L 132.285156 50.070312 L 132.285156 19.871094 L 107.796875 30.214844 Z M 132.828125 50.886719 L 107.253906 40.085938 L 107.253906 29.855469 L 107.421875 29.785156 L 132.828125 19.054688 L 132.828125 50.886719 " fill-opacity="1" fill-rule="nonzero"/><path fill="#000000" d="M 128.984375 34.96875 C 128.984375 43.582031 130.582031 50.5625 132.554688 50.5625 C 134.527344 50.5625 136.125 43.582031 136.125 34.96875 C 136.125 26.359375 134.527344 19.378906 132.554688 19.378906 C 130.582031 19.378906 128.984375 26.359375 128.984375 34.96875 " fill-opacity="1" fill-rule="nonzero"/><path fill="#fcb503" d="M 105.210938 41.835938 L 112.082031 41.835938 L 112.082031 28.066406 L 105.210938 28.066406 L 105.210938 41.835938 " fill-opacity="1" fill-rule="nonzero"/><path fill="#000000" d="M 105.484375 41.566406 L 111.8125 41.566406 L 111.8125 28.339844 L 105.484375 28.339844 Z M 112.355469 42.105469 L 104.941406 42.105469 L 104.941406 27.796875 L 112.355469 27.796875 L 112.355469 42.105469 " fill-opacity="1" fill-rule="nonzero"/><path fill="#000000" d="M 136.953125 44.308594 C 136.863281 44.308594 136.777344 44.269531 136.726562 44.191406 C 136.640625 44.066406 136.675781 43.898438 136.800781 43.8125 C 139.628906 41.90625 141.316406 38.738281 141.316406 35.335938 C 141.316406 32.085938 139.746094 28.996094 137.109375 27.074219 C 136.988281 26.988281 136.964844 26.816406 137.050781 26.695312 C 137.140625 26.574219 137.308594 26.550781 137.429688 26.636719 C 140.203125 28.660156 141.859375 31.910156 141.859375 35.335938 C 141.859375 38.917969 140.082031 42.253906 137.105469 44.261719 C 137.054688 44.292969 137.003906 44.308594 136.953125 44.308594 " fill-opacity="1" fill-rule="nonzero"/><path fill="#000000" d="M 134.550781 41.082031 C 134.464844 41.082031 134.378906 41.039062 134.328125 40.964844 C 134.242188 40.839844 134.277344 40.671875 134.398438 40.585938 C 136.039062 39.484375 137.019531 37.644531 137.019531 35.671875 C 137.019531 33.789062 136.105469 32 134.578125 30.886719 C 134.460938 30.796875 134.433594 30.628906 134.519531 30.507812 C 134.609375 30.386719 134.78125 30.359375 134.898438 30.449219 C 136.566406 31.664062 137.5625 33.617188 137.5625 35.671875 C 137.5625 37.824219 136.492188 39.832031 134.703125 41.039062 C 134.65625 41.066406 134.601562 41.082031 134.550781 41.082031 " fill-opacity="1" fill-rule="nonzero"/><path fill="#000000" d="M 139.597656 47.363281 C 139.511719 47.363281 139.429688 47.324219 139.378906 47.253906 C 139.289062 47.132812 139.316406 46.960938 139.4375 46.875 C 143.136719 44.199219 145.34375 39.886719 145.34375 35.335938 C 145.34375 31.007812 143.402344 26.964844 140.023438 24.242188 C 139.90625 24.148438 139.890625 23.980469 139.984375 23.863281 C 140.078125 23.746094 140.25 23.726562 140.363281 23.824219 C 143.875 26.644531 145.882812 30.84375 145.882812 35.335938 C 145.882812 40.058594 143.59375 44.539062 139.757812 47.3125 C 139.707031 47.347656 139.652344 47.363281 139.597656 47.363281 " fill-opacity="1" fill-rule="nonzero"/><path fill="#ffffff" d="M 136.066406 32.25 C 135.984375 32.25 135.902344 32.210938 135.847656 32.140625 C 135.492188 31.664062 135.066406 31.238281 134.578125 30.886719 C 134.460938 30.796875 134.433594 30.628906 134.519531 30.507812 C 134.609375 30.386719 134.78125 30.359375 134.898438 30.449219 C 135.429688 30.835938 135.894531 31.296875 136.285156 31.820312 C 136.375 31.9375 136.347656 32.109375 136.226562 32.199219 C 136.179688 32.234375 136.121094 32.25 136.066406 32.25 " fill-opacity="1" fill-rule="nonzero"/><path fill="#ffffff" d="M 134.550781 41.082031 C 134.464844 41.082031 134.378906 41.039062 134.328125 40.964844 C 134.242188 40.839844 134.277344 40.671875 134.398438 40.585938 C 134.914062 40.242188 135.367188 39.820312 135.75 39.332031 C 135.84375 39.214844 136.015625 39.195312 136.132812 39.285156 C 136.25 39.378906 136.269531 39.550781 136.179688 39.667969 C 135.761719 40.199219 135.261719 40.660156 134.703125 41.039062 C 134.65625 41.066406 134.601562 41.082031 134.550781 41.082031 " fill-opacity="1" fill-rule="nonzero"/><path fill="#8c7bff" d="M 105.867188 53.710938 L 107.890625 55.726562 L 147.15625 16.558594 L 145.132812 14.542969 L 105.867188 53.710938 " fill-opacity="1" fill-rule="nonzero"/><path fill="#000000" d="M 219.359375 154.640625 C 219.359375 136.910156 204.96875 122.539062 187.21875 122.539062 C 169.464844 122.539062 155.070312 136.910156 155.070312 154.640625 C 155.070312 172.375 169.464844 186.746094 187.21875 186.746094 C 204.96875 186.746094 219.359375 172.375 219.359375 154.640625 " fill-opacity="1" fill-rule="nonzero"/><path fill="#ffffff" d="M 216.136719 157.230469 C 216.136719 139.496094 201.746094 125.125 183.992188 125.125 C 166.242188 125.125 151.847656 139.496094 151.847656 157.230469 C 151.847656 174.960938 166.242188 189.332031 183.992188 189.332031 C 201.746094 189.332031 216.136719 174.960938 216.136719 157.230469 " fill-opacity="1" fill-rule="nonzero"/><path fill="#000000" d="M 183.992188 125.394531 C 166.417969 125.394531 152.121094 139.675781 152.121094 157.230469 C 152.121094 174.78125 166.417969 189.0625 183.992188 189.0625 C 201.566406 189.0625 215.867188 174.78125 215.867188 157.230469 C 215.867188 139.675781 201.566406 125.394531 183.992188 125.394531 Z M 183.992188 189.605469 C 166.117188 189.605469 151.578125 175.082031 151.578125 157.230469 C 151.578125 139.378906 166.117188 124.855469 183.992188 124.855469 C 201.867188 124.855469 216.40625 139.378906 216.40625 157.230469 C 216.40625 175.082031 201.867188 189.605469 183.992188 189.605469 " fill-opacity="1" fill-rule="nonzero"/><path fill="#000000" d="M 213.070312 157.0625 C 213.070312 157.0625 200.050781 169.007812 183.992188 169.007812 C 167.933594 169.007812 154.914062 157.0625 154.914062 157.0625 C 154.914062 157.0625 168.015625 143.285156 184.074219 143.285156 C 200.132812 143.285156 213.070312 157.0625 213.070312 157.0625 " fill-opacity="1" fill-rule="nonzero"/><path fill="#ffffff" d="M 213.070312 157.0625 C 213.070312 157.0625 200.050781 169.007812 183.992188 169.007812 C 167.933594 169.007812 154.914062 157.0625 154.914062 157.0625 C 154.914062 157.0625 167.933594 145.113281 183.992188 145.113281 C 200.050781 145.113281 213.070312 157.0625 213.070312 157.0625 " fill-opacity="1" fill-rule="nonzero"/><path fill="#000000" d="M 155.324219 157.0625 C 157.121094 158.617188 169.367188 168.734375 183.992188 168.734375 C 198.617188 168.734375 210.863281 158.617188 212.660156 157.0625 C 210.863281 155.503906 198.617188 145.386719 183.992188 145.386719 C 169.363281 145.386719 157.121094 155.503906 155.324219 157.0625 Z M 183.992188 169.277344 C 168.011719 169.277344 154.863281 157.378906 154.730469 157.261719 C 154.675781 157.210938 154.644531 157.136719 154.644531 157.0625 C 154.644531 156.984375 154.675781 156.914062 154.730469 156.863281 C 154.863281 156.742188 168.011719 144.84375 183.992188 144.84375 C 199.972656 144.84375 213.121094 156.742188 213.253906 156.863281 C 213.308594 156.914062 213.339844 156.984375 213.339844 157.0625 C 213.339844 157.136719 213.308594 157.210938 213.253906 157.261719 C 213.121094 157.378906 199.972656 169.277344 183.992188 169.277344 " fill-opacity="1" fill-rule="nonzero"/><path fill="#955b50" d="M 194.804688 157.0625 C 194.804688 151.097656 189.964844 146.265625 183.992188 146.265625 C 178.023438 146.265625 173.183594 151.097656 173.183594 157.0625 C 173.183594 163.023438 178.023438 167.859375 183.992188 167.859375 C 189.964844 167.859375 194.804688 163.023438 194.804688 157.0625 " fill-opacity="1" fill-rule="nonzero"/><path fill="#000000" d="M 189.582031 157.0625 C 189.582031 153.976562 187.082031 151.476562 183.992188 151.476562 C 180.90625 151.476562 178.402344 153.976562 178.402344 157.0625 C 178.402344 160.144531 180.90625 162.644531 183.992188 162.644531 C 187.082031 162.644531 189.582031 160.144531 189.582031 157.0625 " fill-opacity="1" fill-rule="nonzero"/><path fill="#000000" d="M 216.386719 80.660156 C 216.386719 62.929688 201.996094 48.554688 184.242188 48.554688 C 166.492188 48.554688 152.097656 62.929688 152.097656 80.660156 C 152.097656 98.390625 166.492188 112.765625 184.242188 112.765625 C 201.996094 112.765625 216.386719 98.390625 216.386719 80.660156 " fill-opacity="1" fill-rule="nonzero"/><path fill="#ffffff" d="M 213.164062 83.25 C 213.164062 65.515625 198.773438 51.144531 181.019531 51.144531 C 163.265625 51.144531 148.875 65.515625 148.875 83.25 C 148.875 100.976562 163.265625 115.351562 181.019531 115.351562 C 198.773438 115.351562 213.164062 100.976562 213.164062 83.25 " fill-opacity="1" fill-rule="nonzero"/><path fill="#000000" d="M 181.019531 51.414062 C 163.445312 51.414062 149.144531 65.695312 149.144531 83.25 C 149.144531 100.800781 163.445312 115.082031 181.019531 115.082031 C 198.59375 115.082031 212.890625 100.800781 212.890625 83.25 C 212.890625 65.695312 198.59375 51.414062 181.019531 51.414062 Z M 181.019531 115.625 C 163.144531 115.625 148.601562 101.101562 148.601562 83.25 C 148.601562 65.394531 163.144531 50.875 181.019531 50.875 C 198.890625 50.875 213.433594 65.394531 213.433594 83.25 C 213.433594 101.101562 198.890625 115.625 181.019531 115.625 " fill-opacity="1" fill-rule="nonzero"/><path fill="#fda4ff" d="M 165.035156 74.25 C 166.761719 63.464844 174.925781 56.3125 183.414062 57.152344 C 196.972656 58.492188 197.265625 68.324219 195.539062 79.105469 C 195.386719 80.070312 195.179688 81.007812 194.925781 81.917969 C 194.667969 82.867188 193.261719 88.519531 194.710938 94.234375 C 194.816406 94.535156 194.914062 94.84375 195 95.160156 C 195.035156 95.292969 195.066406 95.421875 195.09375 95.554688 C 195.097656 95.558594 195.097656 95.566406 195.101562 95.570312 C 195.207031 95.890625 195.265625 96.1875 195.277344 96.472656 C 196.117188 101.632812 193.671875 106.453125 189.433594 107.589844 C 184.988281 108.789062 180.207031 105.5 178.515625 100.195312 C 178.515625 100.191406 178.515625 100.191406 178.515625 100.191406 C 176.8125 97.027344 171.847656 94 171.847656 94 C 166.609375 90.261719 163.710938 82.539062 165.035156 74.25 " fill-opacity="1" fill-rule="nonzero"/><path fill="#000000" d="M 187.574219 108.109375 C 183.628906 108.109375 179.769531 104.996094 178.265625 100.300781 C 176.605469 97.242188 171.753906 94.261719 171.703125 94.234375 C 166.171875 90.277344 163.453125 82.425781 164.769531 74.207031 C 165.601562 68.988281 167.996094 64.347656 171.503906 61.144531 C 174.96875 57.976562 179.207031 56.464844 183.441406 56.882812 C 183.589844 56.898438 183.699219 57.03125 183.683594 57.179688 C 183.667969 57.328125 183.535156 57.4375 183.386719 57.421875 C 174.894531 56.582031 166.953125 63.992188 165.304688 74.292969 C 164.042969 82.183594 166.734375 90.015625 172.003906 93.78125 C 172.195312 93.894531 177.046875 96.890625 178.753906 100.0625 C 178.761719 100.078125 178.769531 100.097656 178.773438 100.113281 C 180.429688 105.3125 185.082031 108.484375 189.363281 107.332031 C 193.40625 106.242188 195.835938 101.59375 195.011719 96.515625 C 194.988281 96.367188 195.089844 96.230469 195.234375 96.207031 C 195.382812 96.179688 195.523438 96.28125 195.546875 96.429688 C 196.414062 101.78125 193.816406 106.691406 189.503906 107.855469 C 188.863281 108.027344 188.21875 108.109375 187.574219 108.109375 " fill-opacity="1" fill-rule="nonzero"/><path fill="#000000" d="M 173.71875 91.773438 C 173.664062 91.773438 173.609375 91.757812 173.5625 91.722656 C 169.21875 88.621094 167.082031 82.445312 168.117188 75.984375 C 168.769531 71.882812 170.652344 68.234375 173.414062 65.714844 C 176.140625 63.222656 179.476562 62.03125 182.808594 62.363281 C 187.148438 62.789062 190.109375 64.496094 191.371094 67.289062 C 192.851562 70.566406 191.84375 75.148438 188.675781 79.539062 C 188.589844 79.65625 188.421875 79.6875 188.300781 79.597656 C 188.175781 79.511719 188.148438 79.339844 188.238281 79.21875 C 191.289062 74.988281 192.277344 70.613281 190.875 67.511719 C 189.699219 64.902344 186.890625 63.308594 182.753906 62.902344 C 176.132812 62.242188 169.9375 68.03125 168.652344 76.070312 C 167.664062 82.230469 169.765625 88.347656 173.875 91.28125 C 174 91.371094 174.027344 91.539062 173.941406 91.660156 C 173.886719 91.734375 173.804688 91.773438 173.71875 91.773438 " fill-opacity="1" fill-rule="nonzero"/><path fill="#ff7dce" d="M 187.816406 80.625 C 187.816406 80.625 194.410156 69.765625 182.046875 69.691406 C 175.390625 69.652344 172.023438 75.261719 172.746094 80.488281 C 173.46875 85.710938 177.445312 89.558594 182.222656 91.03125 C 185.765625 92.128906 188.960938 96.164062 191.597656 94.199219 C 193.910156 92.472656 185.902344 83.933594 187.816406 80.625 " fill-opacity="1" fill-rule="nonzero"/><path fill="#000000" d="M 181.976562 69.960938 C 179.203125 69.960938 176.855469 70.964844 175.1875 72.867188 C 173.445312 74.847656 172.632812 77.6875 173.015625 80.449219 C 173.679688 85.253906 177.238281 89.207031 182.304688 90.773438 C 183.605469 91.175781 184.785156 91.988281 185.921875 92.773438 C 187.910156 94.140625 189.628906 95.324219 191.4375 93.980469 C 192.488281 93.199219 191.097656 90.652344 189.753906 88.1875 C 188.171875 85.292969 186.535156 82.296875 187.582031 80.488281 C 187.582031 80.484375 187.582031 80.484375 187.585938 80.484375 C 187.613281 80.4375 190.46875 75.660156 188.753906 72.597656 C 187.785156 70.871094 185.527344 69.984375 182.046875 69.960938 C 182.023438 69.960938 182 69.960938 181.976562 69.960938 Z M 189.773438 95.125 C 188.378906 95.125 187.023438 94.191406 185.613281 93.21875 C 184.511719 92.457031 183.367188 91.671875 182.144531 91.292969 C 176.875 89.664062 173.171875 85.539062 172.476562 80.523438 C 172.074219 77.605469 172.933594 74.609375 174.777344 72.507812 C 176.019531 71.097656 178.269531 69.421875 181.976562 69.421875 C 182 69.421875 182.023438 69.421875 182.050781 69.421875 C 185.742188 69.441406 188.15625 70.421875 189.226562 72.335938 C 191.089844 75.660156 188.195312 80.523438 188.050781 80.761719 C 187.160156 82.308594 188.789062 85.292969 190.230469 87.929688 C 191.820312 90.839844 193.191406 93.351562 191.761719 94.417969 C 191.082031 94.917969 190.421875 95.125 189.773438 95.125 " fill-opacity="1" fill-rule="nonzero"/></svg>