<svg xmlns="http://www.w3.org/2000/svg" xmlns:xlink="http://www.w3.org/1999/xlink" width="300" zoomAndPan="magnify" viewBox="0 0 224.87999 225" height="300" preserveAspectRatio="xMidYMid meet" version="1.0"><defs><clipPath id="696762b226"><path d="M 82 156 L 143 156 L 143 181.761719 L 82 181.761719 Z M 82 156 " clip-rule="nonzero"/></clipPath><clipPath id="9d1f607951"><path d="M 108 180 L 117 180 L 117 181.761719 L 108 181.761719 Z M 108 180 " clip-rule="nonzero"/></clipPath><clipPath id="294a2cc37b"><path d="M 78 87 L 147 87 L 147 181.761719 L 78 181.761719 Z M 78 87 " clip-rule="nonzero"/></clipPath><clipPath id="05269a54b7"><path d="M 64.589844 26.59375 L 160.539062 26.59375 L 160.539062 93 L 64.589844 93 Z M 64.589844 26.59375 " clip-rule="nonzero"/></clipPath></defs><g clip-path="url(#696762b226)"><path fill="#c5d0f3" d="M 91.539062 156.226562 L 133.585938 156.226562 C 134.195312 156.226562 134.796875 156.285156 135.394531 156.40625 C 135.988281 156.523438 136.566406 156.699219 137.128906 156.929688 C 137.691406 157.164062 138.222656 157.449219 138.730469 157.785156 C 139.234375 158.121094 139.703125 158.503906 140.132812 158.933594 C 140.5625 159.363281 140.945312 159.828125 141.28125 160.335938 C 141.621094 160.839844 141.90625 161.371094 142.136719 161.933594 C 142.371094 162.492188 142.546875 163.070312 142.664062 163.667969 C 142.785156 164.261719 142.84375 164.863281 142.84375 165.46875 L 142.84375 181.023438 L 82.285156 181.023438 L 82.285156 165.46875 C 82.285156 164.863281 82.34375 164.261719 82.460938 163.667969 C 82.578125 163.070312 82.753906 162.492188 82.988281 161.933594 C 83.21875 161.371094 83.503906 160.839844 83.84375 160.335938 C 84.179688 159.828125 84.5625 159.363281 84.992188 158.933594 C 85.421875 158.503906 85.890625 158.121094 86.398438 157.785156 C 86.902344 157.449219 87.433594 157.164062 87.996094 156.929688 C 88.558594 156.699219 89.136719 156.523438 89.734375 156.40625 C 90.328125 156.285156 90.929688 156.226562 91.539062 156.226562 Z M 91.539062 156.226562 " fill-opacity="1" fill-rule="nonzero"/></g><path fill="#e2e7f3" d="M 135.667969 167.398438 L 135.667969 180.96875 L 89.460938 180.96875 L 89.460938 167.398438 C 89.460938 167.128906 89.484375 166.863281 89.539062 166.601562 C 89.589844 166.339844 89.667969 166.085938 89.769531 165.839844 C 89.871094 165.589844 89.996094 165.355469 90.144531 165.132812 C 90.296875 164.914062 90.464844 164.707031 90.652344 164.519531 C 90.84375 164.328125 91.046875 164.160156 91.269531 164.011719 C 91.492188 163.863281 91.730469 163.738281 91.976562 163.636719 C 92.222656 163.53125 92.476562 163.457031 92.742188 163.402344 C 93.003906 163.351562 93.269531 163.324219 93.535156 163.324219 L 131.589844 163.324219 C 131.855469 163.324219 132.121094 163.351562 132.386719 163.402344 C 132.648438 163.457031 132.902344 163.53125 133.148438 163.636719 C 133.398438 163.738281 133.632812 163.863281 133.855469 164.011719 C 134.078125 164.160156 134.285156 164.328125 134.472656 164.519531 C 134.660156 164.707031 134.832031 164.914062 134.980469 165.132812 C 135.128906 165.355469 135.253906 165.589844 135.355469 165.839844 C 135.457031 166.085938 135.535156 166.339844 135.589844 166.601562 C 135.640625 166.863281 135.667969 167.128906 135.667969 167.398438 Z M 135.667969 167.398438 " fill-opacity="1" fill-rule="nonzero"/><path fill="#4bd8bd" d="M 94.078125 170.207031 L 113.160156 170.207031 L 113.160156 174.140625 L 94.078125 174.140625 Z M 94.078125 170.207031 " fill-opacity="1" fill-rule="nonzero"/><path fill="#ffab39" d="M 122.101562 172.175781 C 122.101562 172.433594 122.054688 172.6875 121.953125 172.925781 C 121.851562 173.167969 121.710938 173.382812 121.527344 173.566406 C 121.339844 173.75 121.128906 173.890625 120.886719 173.992188 C 120.644531 174.09375 120.394531 174.140625 120.132812 174.140625 C 119.871094 174.140625 119.621094 174.09375 119.378906 173.992188 C 119.136719 173.890625 118.925781 173.75 118.738281 173.566406 C 118.554688 173.382812 118.414062 173.167969 118.3125 172.925781 C 118.210938 172.6875 118.164062 172.433594 118.164062 172.175781 C 118.164062 171.914062 118.210938 171.660156 118.3125 171.421875 C 118.414062 171.179688 118.554688 170.96875 118.738281 170.78125 C 118.925781 170.597656 119.136719 170.457031 119.378906 170.355469 C 119.621094 170.257812 119.871094 170.207031 120.132812 170.207031 C 120.394531 170.207031 120.644531 170.257812 120.886719 170.355469 C 121.128906 170.457031 121.339844 170.597656 121.527344 170.78125 C 121.710938 170.96875 121.851562 171.179688 121.953125 171.421875 C 122.054688 171.660156 122.101562 171.914062 122.101562 172.175781 Z M 122.101562 172.175781 " fill-opacity="1" fill-rule="nonzero"/><path fill="#e5656c" d="M 131.046875 172.175781 C 131.046875 172.433594 130.996094 172.6875 130.894531 172.925781 C 130.796875 173.167969 130.652344 173.382812 130.46875 173.566406 C 130.285156 173.75 130.070312 173.890625 129.828125 173.992188 C 129.589844 174.09375 129.335938 174.140625 129.074219 174.140625 C 128.8125 174.140625 128.5625 174.09375 128.320312 173.992188 C 128.078125 173.890625 127.867188 173.75 127.683594 173.566406 C 127.496094 173.382812 127.355469 173.167969 127.253906 172.925781 C 127.15625 172.6875 127.105469 172.433594 127.105469 172.175781 C 127.105469 171.914062 127.15625 171.660156 127.253906 171.421875 C 127.355469 171.179688 127.496094 170.96875 127.683594 170.78125 C 127.867188 170.597656 128.078125 170.457031 128.320312 170.355469 C 128.5625 170.257812 128.8125 170.207031 129.074219 170.207031 C 129.335938 170.207031 129.589844 170.257812 129.828125 170.355469 C 130.070312 170.457031 130.285156 170.597656 130.46875 170.78125 C 130.652344 170.96875 130.796875 171.179688 130.894531 171.421875 C 130.996094 171.660156 131.046875 171.914062 131.046875 172.175781 Z M 131.046875 172.175781 " fill-opacity="1" fill-rule="nonzero"/><path fill="#c5d0f3" d="M 95.929688 91.855469 L 99.109375 91.855469 L 99.109375 124.753906 L 95.929688 124.753906 Z M 95.929688 91.855469 " fill-opacity="1" fill-rule="nonzero"/><path fill="#4bd8bd" d="M 101.160156 91.855469 C 101.160156 92.335938 101.066406 92.800781 100.882812 93.246094 C 100.699219 93.691406 100.433594 94.085938 100.09375 94.425781 C 99.753906 94.769531 99.359375 95.03125 98.910156 95.214844 C 98.464844 95.398438 98 95.492188 97.519531 95.492188 C 97.035156 95.492188 96.570312 95.398438 96.125 95.214844 C 95.679688 95.03125 95.285156 94.769531 94.941406 94.425781 C 94.601562 94.085938 94.339844 93.691406 94.152344 93.246094 C 93.96875 92.800781 93.875 92.335938 93.875 91.855469 C 93.875 91.371094 93.96875 90.910156 94.152344 90.460938 C 94.339844 90.015625 94.601562 89.625 94.941406 89.28125 C 95.285156 88.941406 95.679688 88.679688 96.125 88.496094 C 96.570312 88.308594 97.035156 88.21875 97.519531 88.21875 C 98 88.21875 98.464844 88.308594 98.910156 88.496094 C 99.359375 88.679688 99.753906 88.941406 100.09375 89.28125 C 100.433594 89.625 100.699219 90.015625 100.882812 90.460938 C 101.066406 90.910156 101.160156 91.371094 101.160156 91.855469 Z M 101.160156 91.855469 " fill-opacity="1" fill-rule="nonzero"/><path fill="#c5d0f3" d="M 125.964844 91.855469 L 129.144531 91.855469 L 129.144531 124.753906 L 125.964844 124.753906 Z M 125.964844 91.855469 " fill-opacity="1" fill-rule="nonzero"/><path fill="#4bd8bd" d="M 131.183594 91.855469 C 131.183594 92.335938 131.089844 92.800781 130.90625 93.246094 C 130.722656 93.691406 130.457031 94.082031 130.117188 94.421875 C 129.777344 94.765625 129.386719 95.027344 128.941406 95.210938 C 128.496094 95.398438 128.03125 95.492188 127.546875 95.492188 C 127.066406 95.492188 126.601562 95.402344 126.15625 95.21875 C 125.710938 95.035156 125.316406 94.773438 124.972656 94.4375 C 124.632812 94.097656 124.367188 93.707031 124.179688 93.261719 C 123.996094 92.816406 123.898438 92.355469 123.898438 91.871094 C 123.894531 91.390625 123.984375 90.925781 124.167969 90.480469 C 124.347656 90.035156 124.609375 89.640625 124.949219 89.296875 C 125.285156 88.957031 125.679688 88.691406 126.121094 88.503906 C 126.566406 88.316406 127.03125 88.222656 127.511719 88.21875 C 127.996094 88.214844 128.464844 88.304688 128.914062 88.488281 C 129.363281 88.667969 129.761719 88.933594 130.105469 89.273438 C 130.449219 89.613281 130.714844 90.007812 130.902344 90.457031 C 131.089844 90.902344 131.183594 91.371094 131.183594 91.855469 Z M 131.183594 91.855469 " fill-opacity="1" fill-rule="nonzero"/><path fill="#a5b8f3" d="M 127.554688 151.300781 C 127.554688 151.78125 127.457031 152.261719 127.265625 152.734375 C 127.074219 153.207031 126.789062 153.664062 126.410156 154.109375 C 126.03125 154.554688 125.570312 154.980469 125.023438 155.378906 C 124.472656 155.78125 123.851562 156.152344 123.15625 156.492188 C 122.457031 156.832031 121.699219 157.136719 120.878906 157.40625 C 120.058594 157.671875 119.195312 157.898438 118.28125 158.082031 C 117.371094 158.269531 116.433594 158.40625 115.464844 158.5 C 114.5 158.59375 113.523438 158.644531 112.535156 158.644531 C 111.550781 158.644531 110.574219 158.59375 109.605469 158.5 C 108.640625 158.40625 107.699219 158.269531 106.789062 158.082031 C 105.878906 157.898438 105.011719 157.671875 104.191406 157.40625 C 103.371094 157.136719 102.613281 156.832031 101.917969 156.492188 C 101.21875 156.152344 100.597656 155.78125 100.050781 155.378906 C 99.5 154.980469 99.039062 154.554688 98.660156 154.109375 C 98.285156 153.664062 98 153.207031 97.808594 152.734375 C 97.613281 152.261719 97.519531 151.78125 97.519531 151.300781 C 97.519531 150.816406 97.613281 150.339844 97.808594 149.867188 C 98 149.394531 98.285156 148.9375 98.660156 148.492188 C 99.039062 148.046875 99.5 147.621094 100.050781 147.222656 C 100.597656 146.820312 101.21875 146.449219 101.917969 146.109375 C 102.613281 145.765625 103.371094 145.464844 104.191406 145.195312 C 105.011719 144.925781 105.878906 144.703125 106.789062 144.515625 C 107.699219 144.332031 108.640625 144.191406 109.605469 144.097656 C 110.574219 144.003906 111.550781 143.957031 112.535156 143.957031 C 113.523438 143.957031 114.5 144.003906 115.464844 144.097656 C 116.433594 144.191406 117.371094 144.332031 118.28125 144.515625 C 119.195312 144.703125 120.058594 144.925781 120.878906 145.195312 C 121.699219 145.464844 122.457031 145.765625 123.15625 146.109375 C 123.851562 146.449219 124.472656 146.820312 125.023438 147.222656 C 125.570312 147.621094 126.03125 148.046875 126.410156 148.492188 C 126.789062 148.9375 127.074219 149.394531 127.265625 149.867188 C 127.457031 150.339844 127.554688 150.816406 127.554688 151.300781 Z M 127.554688 151.300781 " fill-opacity="1" fill-rule="nonzero"/><path fill="#c5d0f3" d="M 93.265625 131.117188 C 93.265625 131.589844 93.21875 132.054688 93.125 132.515625 C 93.035156 132.976562 92.898438 133.421875 92.71875 133.855469 C 92.539062 134.289062 92.320312 134.703125 92.058594 135.09375 C 91.796875 135.484375 91.5 135.84375 91.167969 136.175781 C 90.835938 136.507812 90.472656 136.804688 90.082031 137.066406 C 89.691406 137.328125 89.277344 137.546875 88.84375 137.726562 C 88.410156 137.90625 87.960938 138.042969 87.5 138.132812 C 87.039062 138.226562 86.574219 138.269531 86.101562 138.269531 C 85.632812 138.269531 85.167969 138.226562 84.703125 138.132812 C 84.242188 138.042969 83.796875 137.90625 83.363281 137.726562 C 82.925781 137.546875 82.515625 137.328125 82.125 137.066406 C 81.730469 136.804688 81.371094 136.507812 81.039062 136.175781 C 80.707031 135.84375 80.410156 135.484375 80.148438 135.09375 C 79.886719 134.703125 79.664062 134.289062 79.484375 133.855469 C 79.304688 133.421875 79.167969 132.976562 79.078125 132.515625 C 78.984375 132.054688 78.941406 131.589844 78.941406 131.117188 C 78.941406 130.648438 78.984375 130.183594 79.078125 129.722656 C 79.167969 129.261719 79.304688 128.816406 79.484375 128.382812 C 79.664062 127.949219 79.886719 127.535156 80.148438 127.144531 C 80.410156 126.753906 80.707031 126.394531 81.039062 126.0625 C 81.371094 125.730469 81.730469 125.433594 82.125 125.171875 C 82.515625 124.910156 82.925781 124.691406 83.363281 124.511719 C 83.796875 124.332031 84.242188 124.195312 84.703125 124.105469 C 85.167969 124.011719 85.632812 123.964844 86.101562 123.964844 C 86.574219 123.964844 87.039062 124.011719 87.5 124.105469 C 87.960938 124.195312 88.410156 124.332031 88.84375 124.511719 C 89.277344 124.691406 89.691406 124.910156 90.082031 125.171875 C 90.472656 125.433594 90.835938 125.730469 91.167969 126.0625 C 91.5 126.394531 91.796875 126.753906 92.058594 127.144531 C 92.320312 127.535156 92.539062 127.949219 92.71875 128.382812 C 92.898438 128.816406 93.035156 129.261719 93.125 129.722656 C 93.21875 130.183594 93.265625 130.648438 93.265625 131.117188 Z M 93.265625 131.117188 " fill-opacity="1" fill-rule="nonzero"/><path fill="#c5d0f3" d="M 146.1875 131.117188 C 146.1875 131.589844 146.140625 132.054688 146.046875 132.515625 C 145.957031 132.976562 145.820312 133.421875 145.640625 133.855469 C 145.460938 134.289062 145.238281 134.703125 144.980469 135.09375 C 144.71875 135.484375 144.421875 135.84375 144.089844 136.175781 C 143.753906 136.507812 143.394531 136.804688 143.003906 137.066406 C 142.613281 137.328125 142.199219 137.546875 141.765625 137.726562 C 141.328125 137.90625 140.882812 138.042969 140.421875 138.132812 C 139.960938 138.226562 139.492188 138.269531 139.023438 138.269531 C 138.554688 138.269531 138.085938 138.226562 137.625 138.132812 C 137.164062 138.042969 136.71875 137.90625 136.28125 137.726562 C 135.847656 137.546875 135.433594 137.328125 135.042969 137.066406 C 134.652344 136.804688 134.292969 136.507812 133.960938 136.175781 C 133.625 135.84375 133.328125 135.484375 133.070312 135.09375 C 132.808594 134.703125 132.585938 134.289062 132.40625 133.855469 C 132.226562 133.421875 132.089844 132.976562 132 132.515625 C 131.90625 132.054688 131.863281 131.589844 131.863281 131.117188 C 131.863281 130.648438 131.90625 130.183594 132 129.722656 C 132.089844 129.261719 132.226562 128.816406 132.40625 128.382812 C 132.585938 127.949219 132.808594 127.535156 133.070312 127.144531 C 133.328125 126.753906 133.625 126.394531 133.960938 126.0625 C 134.292969 125.730469 134.652344 125.433594 135.042969 125.171875 C 135.433594 124.910156 135.847656 124.691406 136.28125 124.511719 C 136.71875 124.332031 137.164062 124.195312 137.625 124.105469 C 138.085938 124.011719 138.554688 123.964844 139.023438 123.964844 C 139.492188 123.964844 139.960938 124.011719 140.421875 124.105469 C 140.882812 124.195312 141.328125 124.332031 141.765625 124.511719 C 142.199219 124.691406 142.613281 124.910156 143.003906 125.171875 C 143.394531 125.433594 143.753906 125.730469 144.089844 126.0625 C 144.421875 126.394531 144.71875 126.753906 144.980469 127.144531 C 145.238281 127.535156 145.460938 127.949219 145.640625 128.382812 C 145.820312 128.816406 145.957031 129.261719 146.046875 129.722656 C 146.140625 130.183594 146.1875 130.648438 146.1875 131.117188 Z M 146.1875 131.117188 " fill-opacity="1" fill-rule="nonzero"/><path fill="#c5d0f3" d="M 136.25 138.746094 C 136.25 137.972656 136.214844 137.195312 136.136719 136.425781 C 136.0625 135.652344 135.949219 134.886719 135.796875 134.128906 C 135.644531 133.367188 135.457031 132.613281 135.230469 131.875 C 135.007812 131.132812 134.746094 130.402344 134.449219 129.683594 C 134.152344 128.96875 133.820312 128.269531 133.457031 127.585938 C 133.089844 126.898438 132.691406 126.234375 132.261719 125.589844 C 131.832031 124.945312 131.367188 124.324219 130.875 123.722656 C 130.386719 123.121094 129.863281 122.546875 129.316406 122 C 128.769531 121.449219 128.195312 120.929688 127.59375 120.4375 C 126.996094 119.945312 126.371094 119.480469 125.726562 119.050781 C 125.082031 118.617188 124.417969 118.21875 123.734375 117.851562 C 123.050781 117.488281 122.347656 117.152344 121.632812 116.855469 C 120.914062 116.558594 120.183594 116.296875 119.441406 116.070312 C 118.699219 115.84375 117.949219 115.652344 117.1875 115.5 C 116.425781 115.347656 115.660156 115.234375 114.886719 115.15625 C 114.113281 115.078125 113.339844 115.039062 112.5625 115.035156 C 111.785156 115.035156 111.007812 115.070312 110.230469 115.144531 C 109.457031 115.21875 108.6875 115.332031 107.921875 115.480469 C 107.160156 115.632812 106.40625 115.820312 105.660156 116.042969 C 104.914062 116.269531 104.179688 116.527344 103.460938 116.824219 C 102.742188 117.121094 102.035156 117.453125 101.347656 117.816406 C 100.660156 118.183594 99.996094 118.582031 99.347656 119.011719 C 98.699219 119.445312 98.074219 119.90625 97.46875 120.398438 C 96.867188 120.890625 96.289062 121.410156 95.738281 121.960938 C 95.1875 122.511719 94.664062 123.085938 94.171875 123.6875 C 93.675781 124.285156 93.210938 124.910156 92.777344 125.554688 C 92.34375 126.203125 91.945312 126.867188 91.578125 127.554688 C 91.210938 128.238281 90.875 128.941406 90.578125 129.660156 C 90.28125 130.378906 90.019531 131.109375 89.792969 131.855469 C 89.566406 132.597656 89.375 133.351562 89.222656 134.113281 C 89.070312 134.875 88.957031 135.644531 88.878906 136.417969 C 88.804688 137.191406 88.765625 137.96875 88.765625 138.746094 L 88.765625 146.605469 C 88.769531 147.027344 88.8125 147.441406 88.898438 147.855469 C 88.980469 148.269531 89.105469 148.671875 89.269531 149.058594 C 89.433594 149.449219 89.632812 149.816406 89.867188 150.167969 C 90.105469 150.515625 90.371094 150.839844 90.671875 151.136719 C 90.96875 151.433594 91.296875 151.699219 91.648438 151.933594 C 92 152.164062 92.371094 152.363281 92.761719 152.523438 C 93.152344 152.683594 93.554688 152.804688 93.96875 152.886719 C 94.382812 152.96875 94.800781 153.011719 95.222656 153.011719 L 129.835938 153.011719 C 130.261719 153.011719 130.683594 152.96875 131.101562 152.886719 C 131.515625 152.804688 131.921875 152.683594 132.316406 152.519531 C 132.707031 152.359375 133.082031 152.160156 133.433594 151.921875 C 133.789062 151.6875 134.113281 151.417969 134.414062 151.117188 C 134.714844 150.816406 134.984375 150.488281 135.21875 150.132812 C 135.453125 149.78125 135.652344 149.40625 135.8125 149.015625 C 135.972656 148.621094 136.09375 148.214844 136.175781 147.800781 C 136.253906 147.382812 136.292969 146.960938 136.292969 146.535156 Z M 136.25 138.746094 " fill-opacity="1" fill-rule="nonzero"/><path fill="#e2e7f3" d="M 138.984375 132.921875 C 138.984375 132.058594 138.941406 131.195312 138.855469 130.335938 C 138.769531 129.476562 138.644531 128.621094 138.476562 127.773438 C 138.308594 126.925781 138.097656 126.085938 137.847656 125.257812 C 137.59375 124.429688 137.304688 123.617188 136.972656 122.820312 C 136.640625 122.019531 136.273438 121.238281 135.863281 120.476562 C 135.457031 119.710938 135.011719 118.972656 134.53125 118.253906 C 134.050781 117.53125 133.539062 116.839844 132.988281 116.167969 C 132.441406 115.5 131.859375 114.859375 131.246094 114.25 C 130.636719 113.636719 129.996094 113.054688 129.328125 112.507812 C 128.660156 111.957031 127.964844 111.441406 127.246094 110.960938 C 126.527344 110.480469 125.785156 110.035156 125.019531 109.625 C 124.257812 109.214844 123.476562 108.84375 122.675781 108.511719 C 121.878906 108.179688 121.0625 107.890625 120.234375 107.636719 C 119.40625 107.382812 118.570312 107.171875 117.71875 107.003906 C 116.871094 106.832031 116.015625 106.703125 115.152344 106.617188 C 114.292969 106.53125 113.429688 106.488281 112.5625 106.484375 C 111.695312 106.484375 110.828125 106.523438 109.964844 106.609375 C 109.101562 106.691406 108.242188 106.816406 107.390625 106.984375 C 106.539062 107.152344 105.695312 107.359375 104.867188 107.609375 C 104.035156 107.859375 103.21875 108.152344 102.414062 108.480469 C 101.613281 108.8125 100.828125 109.183594 100.0625 109.589844 C 99.296875 109.996094 98.550781 110.441406 97.828125 110.921875 C 97.105469 111.402344 96.410156 111.917969 95.738281 112.46875 C 95.066406 113.015625 94.421875 113.597656 93.808594 114.210938 C 93.191406 114.820312 92.609375 115.464844 92.058594 116.132812 C 91.507812 116.804688 90.992188 117.496094 90.507812 118.21875 C 90.023438 118.9375 89.578125 119.679688 89.167969 120.445312 C 88.757812 121.210938 88.386719 121.992188 88.054688 122.792969 C 87.722656 123.59375 87.429688 124.410156 87.175781 125.238281 C 86.925781 126.070312 86.714844 126.910156 86.542969 127.757812 C 86.375 128.609375 86.246094 129.464844 86.160156 130.328125 C 86.078125 131.191406 86.035156 132.058594 86.035156 132.921875 L 86.035156 141.675781 C 86.035156 142.148438 86.085938 142.613281 86.179688 143.074219 C 86.273438 143.53125 86.410156 143.980469 86.59375 144.414062 C 86.773438 144.847656 86.996094 145.257812 87.261719 145.648438 C 87.523438 146.035156 87.820312 146.398438 88.15625 146.726562 C 88.488281 147.058594 88.851562 147.355469 89.242188 147.613281 C 89.632812 147.875 90.046875 148.09375 90.480469 148.273438 C 90.917969 148.453125 91.363281 148.589844 91.824219 148.679688 C 92.289062 148.769531 92.753906 148.816406 93.222656 148.816406 L 131.835938 148.816406 C 132.308594 148.816406 132.777344 148.769531 133.242188 148.675781 C 133.707031 148.585938 134.15625 148.449219 134.59375 148.265625 C 135.03125 148.085938 135.449219 147.863281 135.839844 147.597656 C 136.234375 147.335938 136.597656 147.035156 136.933594 146.699219 C 137.265625 146.363281 137.5625 146 137.828125 145.605469 C 138.089844 145.210938 138.308594 144.792969 138.488281 144.355469 C 138.667969 143.917969 138.800781 143.46875 138.890625 143.003906 C 138.984375 142.539062 139.027344 142.070312 139.023438 141.597656 Z M 138.984375 132.921875 " fill-opacity="1" fill-rule="nonzero"/><path fill="#c5d0f3" d="M 93.007812 144.59375 C 92.617188 144.59375 92.238281 144.519531 91.878906 144.367188 C 91.519531 144.21875 91.199219 144.003906 90.925781 143.730469 C 90.648438 143.453125 90.433594 143.136719 90.285156 142.777344 C 90.136719 142.414062 90.058594 142.039062 90.058594 141.652344 L 90.058594 132.898438 C 90.074219 132.179688 90.128906 131.46875 90.214844 130.757812 C 90.300781 130.046875 90.421875 129.34375 90.578125 128.644531 C 90.730469 127.945312 90.917969 127.253906 91.140625 126.574219 C 91.363281 125.894531 91.617188 125.226562 91.902344 124.570312 C 92.191406 123.914062 92.507812 123.273438 92.855469 122.648438 C 93.207031 122.023438 93.582031 121.414062 93.992188 120.824219 C 94.398438 120.238281 94.832031 119.667969 95.296875 119.121094 C 95.757812 118.574219 96.246094 118.050781 96.757812 117.550781 C 97.269531 117.050781 97.808594 116.578125 98.367188 116.128906 C 98.925781 115.683594 99.503906 115.261719 100.105469 114.871094 C 100.703125 114.476562 101.320312 114.117188 101.957031 113.785156 C 102.589844 113.449219 103.238281 113.148438 103.902344 112.878906 C 104.566406 112.609375 105.242188 112.371094 105.929688 112.167969 C 106.617188 111.964844 107.3125 111.792969 108.015625 111.65625 C 108.71875 111.519531 109.425781 111.414062 110.140625 111.34375 C 110.851562 111.277344 111.566406 111.242188 112.285156 111.242188 C 113 111.242188 113.714844 111.277344 114.429688 111.34375 C 115.144531 111.414062 115.851562 111.519531 116.554688 111.65625 C 117.257812 111.792969 117.953125 111.964844 118.640625 112.167969 C 119.328125 112.371094 120 112.609375 120.664062 112.878906 C 121.328125 113.148438 121.980469 113.449219 122.613281 113.785156 C 123.25 114.117188 123.867188 114.476562 124.464844 114.871094 C 125.066406 115.261719 125.644531 115.683594 126.203125 116.128906 C 126.761719 116.578125 127.296875 117.050781 127.8125 117.550781 C 128.324219 118.050781 128.8125 118.574219 129.273438 119.121094 C 129.734375 119.667969 130.171875 120.238281 130.578125 120.824219 C 130.984375 121.414062 131.363281 122.023438 131.710938 122.648438 C 132.058594 123.273438 132.378906 123.914062 132.664062 124.570312 C 132.949219 125.226562 133.207031 125.894531 133.425781 126.574219 C 133.648438 127.253906 133.835938 127.945312 133.992188 128.644531 C 134.148438 129.34375 134.269531 130.046875 134.355469 130.757812 C 134.441406 131.46875 134.492188 132.179688 134.511719 132.898438 L 134.511719 141.597656 C 134.515625 141.988281 134.445312 142.367188 134.296875 142.730469 C 134.152344 143.09375 133.941406 143.414062 133.667969 143.695312 C 133.394531 143.976562 133.078125 144.195312 132.71875 144.351562 C 132.359375 144.507812 131.980469 144.589844 131.589844 144.59375 Z M 93.007812 144.59375 " fill-opacity="1" fill-rule="nonzero"/><path fill="#ffffff" d="M 105.769531 124.835938 C 105.761719 125.207031 105.683594 125.5625 105.535156 125.902344 C 105.386719 126.242188 105.179688 126.542969 104.914062 126.800781 C 104.648438 127.0625 104.34375 127.257812 103.996094 127.398438 C 103.652344 127.539062 103.292969 127.605469 102.921875 127.601562 C 102.550781 127.601562 102.195312 127.527344 101.851562 127.382812 C 101.507812 127.242188 101.207031 127.039062 100.941406 126.777344 C 100.679688 126.511719 100.476562 126.210938 100.332031 125.867188 C 100.191406 125.527344 100.117188 125.167969 100.113281 124.796875 C 100.113281 124.425781 100.179688 124.070312 100.320312 123.726562 C 100.457031 123.378906 100.65625 123.074219 100.917969 122.808594 C 101.175781 122.542969 101.476562 122.335938 101.816406 122.191406 C 102.160156 122.042969 102.515625 121.964844 102.886719 121.957031 C 103.269531 121.949219 103.640625 122.019531 103.996094 122.160156 C 104.355469 122.304688 104.667969 122.511719 104.941406 122.785156 C 105.210938 123.054688 105.417969 123.367188 105.5625 123.726562 C 105.707031 124.082031 105.773438 124.449219 105.769531 124.835938 Z M 105.769531 124.835938 " fill-opacity="1" fill-rule="nonzero"/><path fill="#ffffff" d="M 125 124.835938 C 124.992188 125.207031 124.914062 125.566406 124.765625 125.90625 C 124.613281 126.25 124.40625 126.550781 124.136719 126.808594 C 123.871094 127.066406 123.5625 127.265625 123.214844 127.402344 C 122.867188 127.542969 122.507812 127.609375 122.136719 127.601562 C 121.761719 127.597656 121.40625 127.523438 121.0625 127.375 C 120.71875 127.230469 120.414062 127.023438 120.152344 126.757812 C 119.894531 126.492188 119.691406 126.1875 119.550781 125.839844 C 119.410156 125.496094 119.34375 125.136719 119.34375 124.761719 C 119.347656 124.390625 119.421875 124.03125 119.566406 123.6875 C 119.710938 123.34375 119.914062 123.042969 120.179688 122.777344 C 120.445312 122.515625 120.75 122.3125 121.09375 122.171875 C 121.4375 122.027344 121.796875 121.957031 122.171875 121.957031 C 122.550781 121.957031 122.914062 122.03125 123.265625 122.175781 C 123.617188 122.324219 123.925781 122.53125 124.191406 122.804688 C 124.457031 123.074219 124.660156 123.386719 124.800781 123.738281 C 124.9375 124.089844 125.003906 124.457031 125 124.835938 Z M 125 124.835938 " fill-opacity="1" fill-rule="nonzero"/><path fill="#ffab39" d="M 118.1875 133.535156 L 106.882812 133.535156 C 106.726562 133.53125 106.578125 133.5625 106.4375 133.625 C 106.296875 133.691406 106.175781 133.777344 106.074219 133.894531 C 105.972656 134.011719 105.898438 134.144531 105.855469 134.292969 C 105.8125 134.4375 105.800781 134.589844 105.820312 134.742188 C 105.886719 135.136719 105.984375 135.523438 106.117188 135.898438 C 106.25 136.277344 106.414062 136.640625 106.609375 136.988281 C 106.808594 137.335938 107.035156 137.664062 107.289062 137.972656 C 107.542969 138.277344 107.820312 138.5625 108.128906 138.820312 C 108.433594 139.082031 108.757812 139.308594 109.101562 139.511719 C 109.449219 139.714844 109.808594 139.882812 110.183594 140.019531 C 110.558594 140.160156 110.945312 140.261719 111.339844 140.332031 C 111.730469 140.402344 112.128906 140.4375 112.527344 140.4375 C 112.929688 140.4375 113.324219 140.402344 113.71875 140.332031 C 114.113281 140.261719 114.5 140.160156 114.875 140.019531 C 115.25 139.882812 115.609375 139.714844 115.957031 139.511719 C 116.300781 139.308594 116.625 139.082031 116.929688 138.820312 C 117.234375 138.5625 117.515625 138.277344 117.769531 137.972656 C 118.023438 137.664062 118.25 137.335938 118.445312 136.988281 C 118.644531 136.640625 118.808594 136.277344 118.941406 135.898438 C 119.074219 135.523438 119.171875 135.136719 119.234375 134.742188 C 119.261719 134.589844 119.25 134.441406 119.207031 134.292969 C 119.167969 134.144531 119.09375 134.011719 118.992188 133.894531 C 118.894531 133.777344 118.773438 133.691406 118.632812 133.625 C 118.492188 133.5625 118.34375 133.53125 118.1875 133.535156 Z M 118.1875 133.535156 " fill-opacity="1" fill-rule="nonzero"/><path fill="#ffab39" d="M 159.859375 34.648438 L 159.859375 69.597656 C 159.859375 70.074219 159.8125 70.550781 159.71875 71.019531 C 159.628906 71.488281 159.488281 71.945312 159.304688 72.386719 C 159.121094 72.832031 158.898438 73.25 158.632812 73.648438 C 158.367188 74.046875 158.0625 74.414062 157.722656 74.753906 C 157.386719 75.09375 157.015625 75.394531 156.617188 75.660156 C 156.21875 75.925781 155.796875 76.152344 155.355469 76.332031 C 154.910156 76.515625 154.453125 76.652344 153.984375 76.746094 C 153.515625 76.839844 153.039062 76.886719 152.558594 76.886719 L 124.019531 76.886719 L 112.5625 91.855469 L 101.066406 76.925781 L 72.523438 76.925781 C 72.046875 76.925781 71.570312 76.878906 71.101562 76.785156 C 70.632812 76.691406 70.175781 76.554688 69.734375 76.371094 C 69.289062 76.1875 68.871094 75.964844 68.472656 75.695312 C 68.074219 75.429688 67.703125 75.128906 67.363281 74.789062 C 67.027344 74.453125 66.722656 74.085938 66.457031 73.6875 C 66.191406 73.289062 65.964844 72.867188 65.78125 72.425781 C 65.597656 71.984375 65.460938 71.527344 65.367188 71.058594 C 65.273438 70.589844 65.226562 70.117188 65.226562 69.636719 L 65.226562 34.648438 C 65.226562 34.167969 65.273438 33.691406 65.367188 33.222656 C 65.460938 32.75 65.597656 32.292969 65.78125 31.847656 C 65.96875 31.402344 66.195312 30.984375 66.460938 30.582031 C 66.730469 30.183594 67.035156 29.816406 67.375 29.476562 C 67.714844 29.136719 68.085938 28.835938 68.488281 28.570312 C 68.890625 28.304688 69.3125 28.082031 69.757812 27.898438 C 70.203125 27.71875 70.664062 27.582031 71.136719 27.492188 C 71.609375 27.402344 72.085938 27.355469 72.566406 27.359375 L 152.558594 27.359375 C 153.039062 27.359375 153.511719 27.40625 153.984375 27.5 C 154.453125 27.59375 154.910156 27.730469 155.351562 27.914062 C 155.796875 28.097656 156.214844 28.324219 156.613281 28.589844 C 157.011719 28.855469 157.382812 29.15625 157.71875 29.496094 C 158.058594 29.832031 158.363281 30.203125 158.628906 30.597656 C 158.894531 30.996094 159.117188 31.417969 159.300781 31.859375 C 159.484375 32.300781 159.625 32.757812 159.71875 33.226562 C 159.8125 33.695312 159.859375 34.171875 159.859375 34.648438 Z M 159.859375 34.648438 " fill-opacity="1" fill-rule="nonzero"/><g clip-path="url(#9d1f607951)"><path fill="#000000" d="M 115.6875 180.316406 L 108.894531 180.316406 C 108.707031 180.316406 108.546875 180.382812 108.414062 180.515625 C 108.28125 180.648438 108.214844 180.808594 108.214844 180.996094 C 108.214844 181.183594 108.28125 181.34375 108.414062 181.476562 C 108.546875 181.609375 108.707031 181.675781 108.894531 181.675781 L 115.6875 181.675781 C 115.875 181.675781 116.035156 181.609375 116.167969 181.476562 C 116.300781 181.34375 116.367188 181.183594 116.367188 180.996094 C 116.367188 180.808594 116.300781 180.648438 116.167969 180.515625 C 116.035156 180.382812 115.875 180.316406 115.6875 180.316406 Z M 115.6875 180.316406 " fill-opacity="1" fill-rule="nonzero"/></g><path fill="#000000" d="M 113.839844 174.140625 L 113.839844 170.207031 C 113.835938 170.019531 113.769531 169.863281 113.636719 169.730469 C 113.507812 169.597656 113.347656 169.53125 113.160156 169.527344 L 94.132812 169.527344 C 93.945312 169.527344 93.785156 169.59375 93.652344 169.726562 C 93.519531 169.859375 93.453125 170.019531 93.453125 170.207031 L 93.453125 174.140625 C 93.453125 174.328125 93.519531 174.488281 93.652344 174.621094 C 93.785156 174.753906 93.945312 174.820312 94.132812 174.820312 L 113.160156 174.820312 C 113.347656 174.820312 113.507812 174.753906 113.640625 174.621094 C 113.773438 174.488281 113.839844 174.328125 113.839844 174.140625 Z M 112.480469 173.464844 L 94.8125 173.464844 L 94.8125 170.882812 L 112.480469 170.882812 Z M 112.480469 173.464844 " fill-opacity="1" fill-rule="nonzero"/><path fill="#000000" d="M 120.132812 169.527344 C 119.773438 169.527344 119.425781 169.597656 119.09375 169.734375 C 118.757812 169.871094 118.464844 170.066406 118.210938 170.324219 C 117.957031 170.578125 117.757812 170.871094 117.621094 171.203125 C 117.484375 171.535156 117.414062 171.882812 117.414062 172.242188 C 117.414062 172.601562 117.484375 172.949219 117.621094 173.28125 C 117.757812 173.613281 117.957031 173.90625 118.210938 174.160156 C 118.464844 174.414062 118.757812 174.613281 119.09375 174.75 C 119.425781 174.886719 119.773438 174.957031 120.132812 174.957031 C 120.492188 174.957031 120.839844 174.886719 121.171875 174.75 C 121.507812 174.613281 121.800781 174.414062 122.054688 174.160156 C 122.308594 173.90625 122.507812 173.613281 122.644531 173.28125 C 122.78125 172.949219 122.851562 172.601562 122.851562 172.242188 C 122.851562 171.882812 122.78125 171.535156 122.644531 171.203125 C 122.507812 170.871094 122.308594 170.578125 122.054688 170.324219 C 121.800781 170.066406 121.507812 169.871094 121.171875 169.734375 C 120.839844 169.597656 120.492188 169.527344 120.132812 169.527344 Z M 120.132812 173.464844 C 119.953125 173.464844 119.777344 173.429688 119.613281 173.359375 C 119.445312 173.292969 119.300781 173.191406 119.171875 173.066406 C 119.042969 172.9375 118.945312 172.792969 118.878906 172.625 C 118.808594 172.460938 118.773438 172.285156 118.773438 172.105469 C 118.773438 171.925781 118.808594 171.753906 118.878906 171.585938 C 118.945312 171.421875 119.042969 171.273438 119.171875 171.148438 C 119.300781 171.019531 119.445312 170.921875 119.613281 170.851562 C 119.777344 170.785156 119.953125 170.75 120.132812 170.75 C 120.3125 170.75 120.488281 170.785156 120.652344 170.851562 C 120.820312 170.921875 120.964844 171.019531 121.09375 171.148438 C 121.222656 171.273438 121.320312 171.421875 121.386719 171.585938 C 121.457031 171.753906 121.492188 171.925781 121.492188 172.105469 C 121.5 172.292969 121.472656 172.472656 121.410156 172.644531 C 121.34375 172.820312 121.246094 172.976562 121.117188 173.109375 C 120.988281 173.246094 120.839844 173.347656 120.667969 173.421875 C 120.496094 173.496094 120.320312 173.53125 120.132812 173.53125 Z M 120.132812 173.464844 " fill-opacity="1" fill-rule="nonzero"/><path fill="#000000" d="M 131.726562 172.175781 C 131.714844 171.824219 131.640625 171.492188 131.5 171.171875 C 131.359375 170.851562 131.160156 170.574219 130.910156 170.332031 C 130.65625 170.089844 130.367188 169.90625 130.042969 169.777344 C 129.71875 169.652344 129.378906 169.589844 129.03125 169.597656 C 128.683594 169.601562 128.347656 169.671875 128.027344 169.8125 C 127.703125 169.949219 127.421875 170.144531 127.179688 170.394531 C 126.933594 170.644531 126.746094 170.929688 126.617188 171.253906 C 126.488281 171.578125 126.421875 171.914062 126.425781 172.265625 C 126.429688 172.613281 126.5 172.949219 126.632812 173.269531 C 126.769531 173.589844 126.960938 173.875 127.210938 174.121094 C 127.457031 174.367188 127.742188 174.554688 128.066406 174.6875 C 128.390625 174.820312 128.726562 174.886719 129.074219 174.886719 C 129.429688 174.878906 129.769531 174.804688 130.09375 174.664062 C 130.417969 174.519531 130.707031 174.324219 130.953125 174.070312 C 131.199219 173.816406 131.390625 173.527344 131.523438 173.199219 C 131.660156 172.871094 131.726562 172.527344 131.726562 172.175781 Z M 127.785156 172.175781 C 127.785156 171.992188 127.820312 171.820312 127.886719 171.65625 C 127.957031 171.488281 128.054688 171.339844 128.183594 171.214844 C 128.308594 171.085938 128.457031 170.988281 128.625 170.921875 C 128.789062 170.851562 128.964844 170.816406 129.144531 170.816406 C 129.324219 170.816406 129.496094 170.851562 129.664062 170.921875 C 129.828125 170.988281 129.976562 171.085938 130.105469 171.214844 C 130.230469 171.339844 130.328125 171.488281 130.398438 171.65625 C 130.46875 171.820312 130.503906 171.992188 130.503906 172.175781 C 130.503906 172.355469 130.46875 172.527344 130.398438 172.695312 C 130.328125 172.859375 130.230469 173.007812 130.105469 173.132812 C 129.976562 173.261719 129.828125 173.359375 129.664062 173.429688 C 129.496094 173.496094 129.324219 173.53125 129.144531 173.53125 C 128.964844 173.53125 128.789062 173.496094 128.625 173.429688 C 128.457031 173.359375 128.308594 173.261719 128.183594 173.132812 C 128.054688 173.007812 127.957031 172.859375 127.886719 172.695312 C 127.820312 172.527344 127.785156 172.355469 127.785156 172.175781 Z M 127.785156 172.175781 " fill-opacity="1" fill-rule="nonzero"/><g clip-path="url(#294a2cc37b)"><path fill="#000000" d="M 139.023438 123.316406 C 138.640625 123.316406 138.261719 123.351562 137.882812 123.410156 C 137.050781 121.203125 135.953125 119.140625 134.585938 117.21875 C 133.214844 115.296875 131.625 113.582031 129.808594 112.078125 L 129.808594 95.503906 C 130.074219 95.34375 130.320312 95.152344 130.546875 94.9375 C 130.769531 94.71875 130.96875 94.480469 131.140625 94.222656 C 131.316406 93.964844 131.457031 93.6875 131.574219 93.398438 C 131.6875 93.105469 131.765625 92.808594 131.816406 92.5 C 131.863281 92.191406 131.878906 91.882812 131.859375 91.570312 C 131.84375 91.261719 131.789062 90.953125 131.707031 90.65625 C 131.621094 90.355469 131.503906 90.066406 131.355469 89.792969 C 131.210938 89.515625 131.035156 89.261719 130.832031 89.023438 C 130.628906 88.789062 130.402344 88.574219 130.152344 88.386719 C 129.90625 88.199219 129.636719 88.039062 129.355469 87.910156 C 129.070312 87.777344 128.777344 87.679688 128.472656 87.613281 C 128.167969 87.546875 127.859375 87.511719 127.546875 87.511719 C 127.234375 87.511719 126.925781 87.546875 126.621094 87.613281 C 126.316406 87.679688 126.019531 87.777344 125.738281 87.910156 C 125.453125 88.039062 125.1875 88.199219 124.9375 88.386719 C 124.691406 88.574219 124.464844 88.789062 124.261719 89.023438 C 124.058594 89.261719 123.882812 89.515625 123.734375 89.792969 C 123.589844 90.066406 123.472656 90.355469 123.386719 90.65625 C 123.300781 90.953125 123.25 91.261719 123.230469 91.570312 C 123.214844 91.882812 123.230469 92.191406 123.277344 92.5 C 123.324219 92.808594 123.40625 93.105469 123.519531 93.398438 C 123.632812 93.6875 123.777344 93.964844 123.949219 94.222656 C 124.125 94.480469 124.324219 94.71875 124.546875 94.9375 C 124.773438 95.152344 125.019531 95.34375 125.285156 95.503906 L 125.285156 109.011719 C 123.324219 107.964844 121.261719 107.171875 119.105469 106.628906 C 116.949219 106.089844 114.757812 105.820312 112.535156 105.820312 C 110.3125 105.820312 108.121094 106.089844 105.964844 106.628906 C 103.808594 107.171875 101.75 107.964844 99.789062 109.011719 L 99.789062 95.503906 C 100.054688 95.34375 100.296875 95.152344 100.523438 94.933594 C 100.746094 94.71875 100.945312 94.480469 101.117188 94.222656 C 101.289062 93.960938 101.433594 93.6875 101.546875 93.394531 C 101.660156 93.105469 101.738281 92.808594 101.789062 92.5 C 101.835938 92.191406 101.851562 91.882812 101.832031 91.570312 C 101.8125 91.261719 101.761719 90.953125 101.675781 90.65625 C 101.589844 90.355469 101.472656 90.066406 101.328125 89.792969 C 101.179688 89.519531 101.003906 89.261719 100.800781 89.027344 C 100.597656 88.789062 100.371094 88.578125 100.125 88.390625 C 99.875 88.203125 99.609375 88.042969 99.324219 87.914062 C 99.042969 87.78125 98.75 87.683594 98.441406 87.617188 C 98.136719 87.550781 97.832031 87.515625 97.519531 87.515625 C 97.207031 87.515625 96.898438 87.550781 96.59375 87.617188 C 96.289062 87.683594 95.996094 87.78125 95.710938 87.914062 C 95.425781 88.042969 95.160156 88.203125 94.914062 88.390625 C 94.664062 88.578125 94.4375 88.789062 94.234375 89.027344 C 94.03125 89.261719 93.855469 89.519531 93.710938 89.792969 C 93.5625 90.066406 93.445312 90.355469 93.359375 90.65625 C 93.277344 90.953125 93.222656 91.261719 93.203125 91.570312 C 93.183594 91.882812 93.199219 92.191406 93.25 92.5 C 93.296875 92.808594 93.378906 93.105469 93.488281 93.394531 C 93.601562 93.6875 93.746094 93.960938 93.917969 94.222656 C 94.089844 94.480469 94.289062 94.71875 94.515625 94.933594 C 94.738281 95.152344 94.984375 95.34375 95.25 95.503906 L 95.25 112.007812 C 93.417969 113.515625 91.808594 115.230469 90.425781 117.15625 C 89.042969 119.082031 87.933594 121.152344 87.09375 123.367188 C 86.753906 123.316406 86.40625 123.289062 86.0625 123.289062 C 85.566406 123.292969 85.074219 123.347656 84.589844 123.449219 C 84.105469 123.546875 83.632812 123.691406 83.171875 123.882812 C 82.714844 124.070312 82.277344 124.300781 81.863281 124.574219 C 81.449219 124.847656 81.066406 125.15625 80.710938 125.5 C 80.355469 125.84375 80.035156 126.21875 79.75 126.625 C 79.464844 127.03125 79.222656 127.460938 79.019531 127.914062 C 78.816406 128.363281 78.65625 128.832031 78.542969 129.3125 C 78.429688 129.792969 78.359375 130.285156 78.339844 130.777344 C 78.316406 131.273438 78.34375 131.765625 78.414062 132.253906 C 78.484375 132.746094 78.605469 133.222656 78.765625 133.691406 C 78.929688 134.160156 79.136719 134.609375 79.382812 135.035156 C 79.632812 135.464844 79.917969 135.867188 80.242188 136.242188 C 80.566406 136.617188 80.921875 136.957031 81.3125 137.261719 C 81.703125 137.570312 82.117188 137.839844 82.554688 138.066406 C 82.996094 138.292969 83.453125 138.480469 83.929688 138.621094 C 84.40625 138.761719 84.886719 138.859375 85.382812 138.910156 L 85.382812 141.625 C 85.390625 142.78125 85.640625 143.882812 86.136719 144.925781 C 86.628906 145.972656 87.320312 146.867188 88.207031 147.609375 C 88.273438 148.023438 88.375 148.429688 88.511719 148.828125 C 88.648438 149.226562 88.816406 149.609375 89.023438 149.976562 C 89.226562 150.34375 89.460938 150.691406 89.726562 151.019531 C 89.996094 151.34375 90.289062 151.644531 90.605469 151.917969 C 90.925781 152.191406 91.269531 152.4375 91.628906 152.648438 C 91.992188 152.863281 92.371094 153.042969 92.765625 153.191406 C 93.164062 153.335938 93.566406 153.445312 93.980469 153.523438 C 94.394531 153.597656 94.8125 153.632812 95.234375 153.632812 L 97.613281 153.632812 C 98.054688 154.347656 98.605469 154.96875 99.257812 155.492188 L 91.539062 155.492188 C 90.886719 155.496094 90.242188 155.558594 89.601562 155.6875 C 88.960938 155.816406 88.339844 156.003906 87.738281 156.253906 C 87.136719 156.503906 86.5625 156.808594 86.023438 157.171875 C 85.480469 157.53125 84.980469 157.941406 84.515625 158.402344 C 84.054688 158.863281 83.644531 159.363281 83.28125 159.90625 C 82.917969 160.449219 82.613281 161.019531 82.363281 161.621094 C 82.113281 162.222656 81.925781 162.84375 81.796875 163.480469 C 81.667969 164.117188 81.605469 164.765625 81.605469 165.414062 L 81.605469 180.96875 C 81.605469 181.15625 81.671875 181.316406 81.804688 181.449219 C 81.933594 181.582031 82.09375 181.648438 82.285156 181.648438 L 96.539062 181.648438 C 96.726562 181.648438 96.886719 181.582031 97.019531 181.449219 C 97.152344 181.316406 97.21875 181.15625 97.21875 180.96875 C 97.21875 180.78125 97.152344 180.621094 97.019531 180.488281 C 96.886719 180.355469 96.726562 180.289062 96.539062 180.289062 L 90.070312 180.289062 L 90.070312 167.34375 C 90.082031 166.894531 90.175781 166.464844 90.359375 166.054688 C 90.539062 165.640625 90.792969 165.28125 91.117188 164.972656 C 91.441406 164.660156 91.816406 164.425781 92.234375 164.261719 C 92.652344 164.097656 93.085938 164.023438 93.535156 164.03125 L 131.726562 164.03125 C 132.175781 164.03125 132.609375 164.117188 133.027344 164.289062 C 133.441406 164.460938 133.808594 164.707031 134.128906 165.023438 C 134.445312 165.34375 134.691406 165.710938 134.863281 166.125 C 135.035156 166.542969 135.125 166.972656 135.125 167.425781 L 135.125 180.316406 L 128.070312 180.316406 C 127.882812 180.316406 127.722656 180.382812 127.589844 180.515625 C 127.457031 180.648438 127.390625 180.808594 127.390625 180.996094 C 127.390625 181.183594 127.457031 181.34375 127.589844 181.476562 C 127.722656 181.609375 127.882812 181.675781 128.070312 181.675781 L 142.84375 181.675781 C 143.03125 181.675781 143.191406 181.609375 143.324219 181.476562 C 143.457031 181.34375 143.523438 181.183594 143.523438 180.996094 L 143.523438 165.46875 C 143.519531 164.816406 143.457031 164.171875 143.328125 163.535156 C 143.199219 162.894531 143.011719 162.277344 142.761719 161.675781 C 142.511719 161.074219 142.207031 160.503906 141.84375 159.960938 C 141.480469 159.417969 141.070312 158.917969 140.609375 158.457031 C 140.148438 157.996094 139.644531 157.585938 139.105469 157.222656 C 138.5625 156.863281 137.988281 156.558594 137.386719 156.308594 C 136.785156 156.058594 136.164062 155.867188 135.523438 155.742188 C 134.886719 155.613281 134.238281 155.550781 133.585938 155.546875 L 125.855469 155.546875 C 126.515625 155.027344 127.070312 154.40625 127.511719 153.6875 L 129.851562 153.6875 C 130.265625 153.6875 130.679688 153.652344 131.09375 153.578125 C 131.503906 153.503906 131.902344 153.394531 132.296875 153.25 C 132.6875 153.105469 133.0625 152.929688 133.421875 152.71875 C 133.785156 152.507812 134.121094 152.269531 134.441406 151.996094 C 134.757812 151.726562 135.050781 151.433594 135.316406 151.109375 C 135.582031 150.789062 135.816406 150.449219 136.023438 150.085938 C 136.226562 149.722656 136.402344 149.34375 136.539062 148.949219 C 136.679688 148.558594 136.78125 148.15625 136.847656 147.746094 C 137.761719 146.992188 138.464844 146.082031 138.964844 145.011719 C 139.464844 143.941406 139.710938 142.816406 139.703125 141.636719 L 139.703125 138.921875 C 140.191406 138.867188 140.671875 138.765625 141.140625 138.621094 C 141.609375 138.472656 142.058594 138.285156 142.492188 138.054688 C 142.925781 137.824219 143.335938 137.554688 143.71875 137.246094 C 144.101562 136.941406 144.453125 136.597656 144.773438 136.226562 C 145.089844 135.851562 145.371094 135.453125 145.617188 135.027344 C 145.859375 134.601562 146.0625 134.15625 146.222656 133.691406 C 146.382812 133.226562 146.496094 132.753906 146.566406 132.265625 C 146.636719 131.78125 146.664062 131.292969 146.640625 130.800781 C 146.621094 130.3125 146.554688 129.828125 146.441406 129.351562 C 146.328125 128.871094 146.171875 128.410156 145.972656 127.960938 C 145.773438 127.511719 145.53125 127.085938 145.253906 126.683594 C 144.972656 126.28125 144.65625 125.90625 144.308594 125.5625 C 143.957031 125.21875 143.578125 124.910156 143.171875 124.636719 C 142.761719 124.363281 142.332031 124.128906 141.878906 123.9375 C 141.425781 123.746094 140.960938 123.597656 140.480469 123.492188 C 140 123.386719 139.515625 123.328125 139.023438 123.316406 Z M 124.589844 91.855469 C 124.589844 91.460938 124.667969 91.082031 124.816406 90.71875 C 124.96875 90.355469 125.183594 90.035156 125.464844 89.757812 C 125.742188 89.480469 126.066406 89.265625 126.429688 89.117188 C 126.792969 88.96875 127.171875 88.894531 127.566406 88.894531 C 127.960938 88.898438 128.339844 88.976562 128.703125 89.128906 C 129.066406 89.28125 129.386719 89.496094 129.664062 89.777344 C 129.9375 90.058594 130.152344 90.378906 130.300781 90.746094 C 130.449219 91.109375 130.519531 91.488281 130.515625 91.882812 C 130.511719 92.277344 130.433594 92.652344 130.277344 93.015625 C 130.125 93.378906 129.90625 93.695312 129.625 93.972656 C 129.34375 94.246094 129.019531 94.457031 128.652344 94.601562 C 128.285156 94.75 127.90625 94.820312 127.511719 94.8125 C 127.125 94.808594 126.75 94.730469 126.390625 94.578125 C 126.03125 94.425781 125.71875 94.210938 125.445312 93.933594 C 125.171875 93.65625 124.960938 93.335938 124.8125 92.976562 C 124.664062 92.617188 124.589844 92.242188 124.589844 91.855469 Z M 128.449219 96.0625 L 128.449219 111.101562 C 127.867188 110.664062 127.269531 110.273438 126.644531 109.890625 L 126.644531 96.0625 C 127.246094 96.199219 127.847656 96.199219 128.449219 96.0625 Z M 94.554688 91.855469 C 94.554688 91.460938 94.628906 91.085938 94.78125 90.722656 C 94.929688 90.359375 95.144531 90.039062 95.421875 89.761719 C 95.699219 89.484375 96.023438 89.269531 96.382812 89.121094 C 96.746094 88.972656 97.125 88.894531 97.519531 88.894531 C 97.910156 88.894531 98.289062 88.972656 98.652344 89.121094 C 99.015625 89.269531 99.335938 89.484375 99.613281 89.761719 C 99.890625 90.039062 100.105469 90.359375 100.253906 90.722656 C 100.40625 91.085938 100.480469 91.460938 100.480469 91.855469 C 100.480469 92.246094 100.40625 92.625 100.253906 92.988281 C 100.105469 93.347656 99.890625 93.667969 99.613281 93.945312 C 99.335938 94.222656 99.015625 94.4375 98.652344 94.589844 C 98.289062 94.738281 97.910156 94.8125 97.519531 94.8125 C 97.125 94.8125 96.75 94.734375 96.386719 94.585938 C 96.023438 94.433594 95.703125 94.21875 95.425781 93.941406 C 95.148438 93.664062 94.9375 93.347656 94.785156 92.984375 C 94.632812 92.625 94.558594 92.246094 94.554688 91.855469 Z M 98.429688 96.0625 L 98.429688 109.742188 C 97.804688 110.121094 97.191406 110.53125 96.609375 110.949219 L 96.609375 96.019531 C 97.210938 96.175781 97.820312 96.1875 98.429688 96.0625 Z M 85.382812 132.921875 L 85.382812 137.523438 C 84.984375 137.46875 84.597656 137.375 84.214844 137.246094 C 83.835938 137.117188 83.472656 136.953125 83.121094 136.757812 C 82.773438 136.5625 82.441406 136.332031 82.136719 136.074219 C 81.828125 135.816406 81.546875 135.535156 81.292969 135.222656 C 81.039062 134.914062 80.816406 134.582031 80.621094 134.230469 C 80.429688 133.878906 80.269531 133.511719 80.148438 133.132812 C 80.023438 132.75 79.933594 132.363281 79.882812 131.964844 C 79.832031 131.566406 79.816406 131.167969 79.839844 130.769531 C 79.859375 130.367188 79.917969 129.972656 80.015625 129.585938 C 80.113281 129.195312 80.242188 128.816406 80.410156 128.453125 C 80.574219 128.089844 80.773438 127.742188 81.003906 127.414062 C 81.234375 127.085938 81.496094 126.78125 81.78125 126.503906 C 82.070312 126.222656 82.378906 125.972656 82.714844 125.75 C 83.046875 125.527344 83.402344 125.339844 83.769531 125.183594 C 84.140625 125.027344 84.519531 124.90625 84.914062 124.820312 C 85.304688 124.734375 85.699219 124.683594 86.101562 124.671875 C 86.277344 124.671875 86.46875 124.671875 86.644531 124.671875 C 85.792969 127.355469 85.371094 130.105469 85.382812 132.921875 Z M 133.613281 156.90625 C 134.175781 156.90625 134.734375 156.960938 135.285156 157.074219 C 135.839844 157.183594 136.375 157.34375 136.894531 157.5625 C 137.414062 157.777344 137.90625 158.039062 138.375 158.351562 C 138.84375 158.664062 139.277344 159.019531 139.675781 159.417969 C 140.074219 159.816406 140.429688 160.246094 140.742188 160.714844 C 141.054688 161.183594 141.316406 161.675781 141.535156 162.195312 C 141.75 162.714844 141.914062 163.25 142.023438 163.800781 C 142.132812 164.351562 142.1875 164.90625 142.191406 165.46875 L 142.191406 180.398438 L 136.414062 180.398438 L 136.414062 167.449219 C 136.414062 167.140625 136.382812 166.832031 136.324219 166.523438 C 136.261719 166.21875 136.171875 165.921875 136.050781 165.632812 C 135.933594 165.34375 135.785156 165.070312 135.613281 164.8125 C 135.4375 164.550781 135.242188 164.3125 135.019531 164.09375 C 134.800781 163.871094 134.558594 163.675781 134.300781 163.5 C 134.039062 163.328125 133.765625 163.183594 133.476562 163.0625 C 133.1875 162.941406 132.890625 162.851562 132.585938 162.792969 C 132.277344 162.730469 131.96875 162.699219 131.65625 162.699219 L 93.535156 162.699219 C 93.222656 162.699219 92.914062 162.730469 92.609375 162.792969 C 92.300781 162.851562 92.003906 162.941406 91.714844 163.0625 C 91.425781 163.183594 91.152344 163.328125 90.894531 163.5 C 90.632812 163.675781 90.394531 163.871094 90.171875 164.09375 C 89.953125 164.3125 89.753906 164.550781 89.582031 164.8125 C 89.40625 165.070312 89.261719 165.34375 89.140625 165.632812 C 89.023438 165.921875 88.933594 166.21875 88.871094 166.523438 C 88.808594 166.832031 88.78125 167.140625 88.78125 167.449219 L 88.78125 180.316406 L 82.960938 180.316406 L 82.960938 165.386719 C 82.964844 164.824219 83.019531 164.269531 83.128906 163.71875 C 83.242188 163.167969 83.402344 162.632812 83.621094 162.113281 C 83.835938 161.59375 84.097656 161.101562 84.414062 160.632812 C 84.726562 160.167969 85.082031 159.734375 85.480469 159.335938 C 85.875 158.9375 86.308594 158.582031 86.777344 158.273438 C 87.246094 157.960938 87.738281 157.695312 88.257812 157.480469 C 88.777344 157.265625 89.316406 157.101562 89.867188 156.992188 C 90.417969 156.878906 90.976562 156.824219 91.539062 156.824219 L 101.269531 156.824219 C 104.835938 158.542969 108.601562 159.375 112.5625 159.320312 C 116.503906 159.398438 120.253906 158.59375 123.816406 156.90625 Z M 99.246094 153.6875 L 125.839844 153.6875 C 125.121094 154.496094 124.277344 155.140625 123.3125 155.628906 C 119.917969 157.265625 116.332031 158.042969 112.5625 157.964844 C 108.75 158.0625 105.125 157.285156 101.691406 155.628906 C 100.75 155.132812 99.925781 154.484375 99.21875 153.6875 Z M 129.863281 152.332031 L 95.261719 152.332031 C 94.691406 152.332031 94.132812 152.246094 93.585938 152.082031 C 93.039062 151.914062 92.53125 151.671875 92.058594 151.351562 C 91.582031 151.03125 91.167969 150.652344 90.808594 150.207031 C 90.449219 149.765625 90.164062 149.277344 89.949219 148.75 C 91.003906 149.246094 92.113281 149.496094 93.277344 149.496094 L 131.835938 149.496094 C 132.996094 149.496094 134.109375 149.25 135.164062 148.761719 C 134.949219 149.289062 134.660156 149.777344 134.296875 150.21875 C 133.9375 150.660156 133.519531 151.039062 133.046875 151.359375 C 132.570312 151.675781 132.058594 151.917969 131.511719 152.082031 C 130.964844 152.25 130.40625 152.332031 129.835938 152.332031 Z M 131.863281 148.136719 L 93.277344 148.136719 C 92.851562 148.140625 92.429688 148.101562 92.007812 148.019531 C 91.589844 147.9375 91.183594 147.816406 90.789062 147.65625 C 90.394531 147.492188 90.015625 147.296875 89.660156 147.058594 C 89.304688 146.824219 88.976562 146.558594 88.671875 146.257812 C 88.367188 145.957031 88.097656 145.632812 87.859375 145.277344 C 87.617188 144.925781 87.417969 144.550781 87.25 144.160156 C 87.085938 143.765625 86.960938 143.359375 86.875 142.945312 C 86.789062 142.527344 86.742188 142.105469 86.742188 141.675781 L 86.742188 132.921875 C 86.742188 132.078125 86.78125 131.238281 86.867188 130.394531 C 86.949219 129.554688 87.070312 128.722656 87.238281 127.894531 C 87.402344 127.066406 87.605469 126.246094 87.851562 125.4375 C 88.097656 124.628906 88.382812 123.835938 88.707031 123.054688 C 89.03125 122.273438 89.390625 121.511719 89.789062 120.769531 C 90.1875 120.023438 90.621094 119.300781 91.09375 118.597656 C 91.5625 117.894531 92.066406 117.21875 92.601562 116.566406 C 93.140625 115.910156 93.707031 115.285156 94.304688 114.691406 C 94.902344 114.09375 95.527344 113.527344 96.183594 112.988281 C 96.835938 112.453125 97.515625 111.953125 98.21875 111.484375 C 98.921875 111.011719 99.644531 110.578125 100.390625 110.183594 C 101.136719 109.785156 101.898438 109.421875 102.679688 109.101562 C 103.460938 108.777344 104.257812 108.492188 105.066406 108.246094 C 105.875 108.003906 106.695312 107.796875 107.523438 107.632812 C 108.355469 107.46875 109.191406 107.34375 110.03125 107.261719 C 110.875 107.179688 111.71875 107.136719 112.5625 107.136719 C 113.410156 107.136719 114.253906 107.179688 115.09375 107.261719 C 115.933594 107.34375 116.769531 107.46875 117.601562 107.632812 C 118.429688 107.796875 119.25 108.003906 120.058594 108.246094 C 120.867188 108.492188 121.664062 108.777344 122.445312 109.101562 C 123.226562 109.421875 123.988281 109.785156 124.734375 110.183594 C 125.480469 110.578125 126.207031 111.011719 126.910156 111.484375 C 127.613281 111.953125 128.289062 112.453125 128.945312 112.988281 C 129.597656 113.527344 130.222656 114.09375 130.820312 114.691406 C 131.417969 115.285156 131.988281 115.910156 132.523438 116.566406 C 133.058594 117.21875 133.5625 117.894531 134.03125 118.597656 C 134.503906 119.300781 134.9375 120.023438 135.335938 120.769531 C 135.734375 121.511719 136.09375 122.273438 136.417969 123.054688 C 136.742188 123.835938 137.027344 124.628906 137.273438 125.4375 C 137.519531 126.246094 137.722656 127.066406 137.886719 127.894531 C 138.054688 128.722656 138.175781 129.554688 138.261719 130.394531 C 138.34375 131.238281 138.386719 132.078125 138.386719 132.921875 L 138.386719 141.609375 C 138.382812 142.039062 138.339844 142.464844 138.257812 142.882812 C 138.171875 143.304688 138.046875 143.714844 137.882812 144.109375 C 137.71875 144.503906 137.515625 144.882812 137.277344 145.238281 C 137.035156 145.59375 136.765625 145.921875 136.460938 146.226562 C 136.15625 146.53125 135.828125 146.800781 135.46875 147.039062 C 135.113281 147.277344 134.734375 147.476562 134.339844 147.640625 C 133.941406 147.804688 133.53125 147.929688 133.109375 148.011719 C 132.6875 148.097656 132.265625 148.136719 131.835938 148.136719 Z M 139.742188 137.523438 L 139.742188 132.921875 C 139.730469 130.101562 139.277344 127.351562 138.386719 124.671875 C 138.605469 124.65625 138.828125 124.65625 139.050781 124.671875 C 139.453125 124.683594 139.847656 124.734375 140.238281 124.824219 C 140.628906 124.910156 141.011719 125.03125 141.378906 125.1875 C 141.746094 125.347656 142.097656 125.535156 142.433594 125.761719 C 142.765625 125.984375 143.074219 126.234375 143.363281 126.515625 C 143.648438 126.792969 143.90625 127.097656 144.136719 127.425781 C 144.367188 127.753906 144.5625 128.101562 144.726562 128.46875 C 144.894531 128.832031 145.023438 129.207031 145.117188 129.597656 C 145.214844 129.988281 145.273438 130.382812 145.292969 130.78125 C 145.316406 131.179688 145.300781 131.578125 145.246094 131.976562 C 145.195312 132.375 145.105469 132.761719 144.980469 133.144531 C 144.855469 133.523438 144.695312 133.890625 144.503906 134.238281 C 144.308594 134.589844 144.085938 134.921875 143.832031 135.230469 C 143.578125 135.539062 143.296875 135.824219 142.988281 136.082031 C 142.679688 136.335938 142.351562 136.5625 142.003906 136.761719 C 141.652344 136.957031 141.289062 137.117188 140.910156 137.246094 C 140.53125 137.375 140.140625 137.46875 139.742188 137.523438 Z M 139.742188 137.523438 " fill-opacity="1" fill-rule="nonzero"/></g><path fill="#000000" d="M 112.238281 110.042969 C 111.488281 110.042969 110.738281 110.082031 109.992188 110.15625 C 109.246094 110.230469 108.507812 110.339844 107.773438 110.488281 C 107.035156 110.632812 106.3125 110.816406 105.59375 111.035156 C 104.875 111.253906 104.171875 111.503906 103.480469 111.792969 C 102.789062 112.078125 102.109375 112.398438 101.449219 112.753906 C 100.789062 113.105469 100.148438 113.492188 99.523438 113.90625 C 98.902344 114.324219 98.300781 114.769531 97.71875 115.246094 C 97.140625 115.71875 96.585938 116.222656 96.054688 116.75 C 95.527344 117.28125 95.023438 117.835938 94.546875 118.414062 C 94.070312 118.992188 93.625 119.59375 93.207031 120.214844 C 92.792969 120.835938 92.40625 121.476562 92.054688 122.136719 C 91.699219 122.796875 91.378906 123.472656 91.089844 124.164062 C 90.804688 124.855469 90.550781 125.558594 90.332031 126.277344 C 90.113281 126.992188 89.929688 127.71875 89.785156 128.453125 C 89.636719 129.183594 89.523438 129.925781 89.449219 130.667969 C 89.375 131.414062 89.339844 132.160156 89.335938 132.910156 L 89.335938 141.664062 C 89.34375 142.140625 89.4375 142.601562 89.625 143.042969 C 89.808594 143.484375 90.074219 143.871094 90.414062 144.210938 C 90.75 144.546875 91.140625 144.808594 91.585938 144.992188 C 92.027344 145.175781 92.488281 145.269531 92.964844 145.273438 L 131.589844 145.273438 C 132.074219 145.273438 132.539062 145.179688 132.984375 144.996094 C 133.429688 144.808594 133.824219 144.546875 134.164062 144.203125 C 134.503906 143.859375 134.765625 143.464844 134.949219 143.019531 C 135.132812 142.570312 135.222656 142.105469 135.21875 141.625 L 135.21875 132.921875 C 135.214844 132.171875 135.179688 131.425781 135.101562 130.679688 C 135.027344 129.933594 134.914062 129.191406 134.765625 128.453125 C 134.621094 127.71875 134.433594 126.992188 134.214844 126.273438 C 133.996094 125.558594 133.742188 124.851562 133.453125 124.160156 C 133.164062 123.46875 132.84375 122.789062 132.488281 122.128906 C 132.132812 121.46875 131.746094 120.824219 131.324219 120.203125 C 130.90625 119.578125 130.460938 118.976562 129.980469 118.398438 C 129.503906 117.820312 129 117.265625 128.46875 116.734375 C 127.933594 116.207031 127.378906 115.703125 126.796875 115.226562 C 126.214844 114.753906 125.613281 114.308594 124.988281 113.890625 C 124.363281 113.476562 123.71875 113.089844 123.054688 112.738281 C 122.390625 112.382812 121.710938 112.066406 121.019531 111.777344 C 120.324219 111.492188 119.617188 111.238281 118.898438 111.023438 C 118.179688 110.804688 117.449219 110.625 116.710938 110.476562 C 115.976562 110.332031 115.234375 110.222656 114.484375 110.148438 C 113.738281 110.078125 112.988281 110.039062 112.238281 110.042969 Z M 131.589844 143.917969 L 93.007812 143.917969 C 92.707031 143.914062 92.417969 143.855469 92.140625 143.738281 C 91.867188 143.621094 91.621094 143.457031 91.410156 143.246094 C 91.195312 143.035156 91.03125 142.789062 90.917969 142.515625 C 90.800781 142.238281 90.738281 141.949219 90.738281 141.652344 L 90.738281 132.898438 C 90.753906 132.203125 90.804688 131.511719 90.890625 130.824219 C 90.972656 130.136719 91.089844 129.453125 91.242188 128.773438 C 91.390625 128.097656 91.574219 127.429688 91.789062 126.769531 C 92.003906 126.109375 92.25 125.460938 92.53125 124.828125 C 92.808594 124.191406 93.113281 123.570312 93.453125 122.964844 C 93.792969 122.359375 94.15625 121.769531 94.550781 121.199219 C 94.949219 120.628906 95.367188 120.078125 95.816406 119.546875 C 96.265625 119.019531 96.738281 118.511719 97.234375 118.027344 C 97.734375 117.542969 98.253906 117.082031 98.792969 116.648438 C 99.335938 116.214844 99.898438 115.808594 100.480469 115.425781 C 101.058594 115.046875 101.65625 114.695312 102.273438 114.375 C 102.886719 114.050781 103.515625 113.761719 104.160156 113.5 C 104.804688 113.238281 105.457031 113.007812 106.125 112.808594 C 106.789062 112.609375 107.464844 112.445312 108.144531 112.3125 C 108.828125 112.179688 109.515625 112.078125 110.207031 112.011719 C 110.898438 111.945312 111.589844 111.910156 112.285156 111.910156 C 112.980469 111.910156 113.671875 111.945312 114.363281 112.011719 C 115.054688 112.078125 115.742188 112.179688 116.421875 112.3125 C 117.105469 112.445312 117.777344 112.609375 118.445312 112.808594 C 119.109375 113.007812 119.765625 113.238281 120.40625 113.5 C 121.050781 113.761719 121.679688 114.050781 122.296875 114.375 C 122.910156 114.695312 123.507812 115.046875 124.089844 115.425781 C 124.671875 115.808594 125.234375 116.214844 125.773438 116.648438 C 126.316406 117.082031 126.835938 117.542969 127.332031 118.027344 C 127.832031 118.511719 128.304688 119.019531 128.75 119.546875 C 129.199219 120.078125 129.621094 120.628906 130.015625 121.199219 C 130.410156 121.769531 130.777344 122.359375 131.117188 122.964844 C 131.453125 123.570312 131.761719 124.191406 132.039062 124.828125 C 132.316406 125.460938 132.5625 126.109375 132.777344 126.769531 C 132.992188 127.429688 133.175781 128.097656 133.328125 128.773438 C 133.476562 129.453125 133.59375 130.136719 133.679688 130.824219 C 133.765625 131.511719 133.816406 132.203125 133.832031 132.898438 L 133.832031 141.597656 C 133.839844 141.898438 133.789062 142.191406 133.675781 142.472656 C 133.566406 142.757812 133.40625 143.007812 133.195312 143.222656 C 132.984375 143.441406 132.742188 143.613281 132.460938 143.730469 C 132.183594 143.851562 131.894531 143.914062 131.589844 143.917969 Z M 131.589844 143.917969 " fill-opacity="1" fill-rule="nonzero"/><path fill="#000000" d="M 106.394531 124.835938 C 106.394531 124.371094 106.304688 123.921875 106.125 123.496094 C 105.949219 123.066406 105.695312 122.6875 105.367188 122.359375 C 105.035156 122.03125 104.65625 121.777344 104.226562 121.601562 C 103.796875 121.421875 103.351562 121.332031 102.886719 121.332031 C 102.421875 121.332031 101.972656 121.421875 101.542969 121.601562 C 101.113281 121.777344 100.734375 122.03125 100.40625 122.359375 C 100.078125 122.6875 99.824219 123.066406 99.648438 123.496094 C 99.46875 123.921875 99.378906 124.371094 99.378906 124.835938 C 99.378906 125.300781 99.46875 125.746094 99.648438 126.175781 C 99.824219 126.605469 100.078125 126.984375 100.40625 127.3125 C 100.734375 127.640625 101.113281 127.890625 101.542969 128.070312 C 101.972656 128.246094 102.421875 128.335938 102.886719 128.335938 C 103.351562 128.335938 103.796875 128.246094 104.226562 128.070312 C 104.65625 127.890625 105.035156 127.640625 105.367188 127.3125 C 105.695312 126.984375 105.949219 126.605469 106.125 126.175781 C 106.304688 125.746094 106.394531 125.300781 106.394531 124.835938 Z M 102.886719 126.980469 C 102.601562 126.980469 102.328125 126.925781 102.066406 126.816406 C 101.800781 126.707031 101.570312 126.550781 101.367188 126.351562 C 101.167969 126.148438 101.011719 125.917969 100.902344 125.65625 C 100.792969 125.394531 100.738281 125.117188 100.738281 124.835938 C 100.738281 124.550781 100.792969 124.277344 100.902344 124.015625 C 101.011719 123.75 101.167969 123.519531 101.367188 123.320312 C 101.570312 123.117188 101.800781 122.960938 102.066406 122.855469 C 102.328125 122.746094 102.601562 122.691406 102.886719 122.691406 C 103.171875 122.691406 103.445312 122.746094 103.707031 122.855469 C 103.972656 122.960938 104.203125 123.117188 104.40625 123.320312 C 104.605469 123.519531 104.761719 123.75 104.871094 124.015625 C 104.980469 124.277344 105.035156 124.550781 105.035156 124.835938 C 105.035156 125.121094 104.980469 125.394531 104.875 125.65625 C 104.765625 125.921875 104.609375 126.152344 104.410156 126.355469 C 104.207031 126.554688 103.972656 126.710938 103.710938 126.820312 C 103.445312 126.929688 103.171875 126.980469 102.886719 126.980469 Z M 102.886719 126.980469 " fill-opacity="1" fill-rule="nonzero"/><path fill="#000000" d="M 122.171875 121.332031 C 121.707031 121.332031 121.257812 121.421875 120.828125 121.601562 C 120.398438 121.777344 120.019531 122.03125 119.691406 122.359375 C 119.363281 122.6875 119.109375 123.066406 118.933594 123.496094 C 118.753906 123.921875 118.664062 124.371094 118.664062 124.835938 C 118.664062 125.300781 118.753906 125.746094 118.933594 126.175781 C 119.109375 126.605469 119.363281 126.984375 119.691406 127.3125 C 120.019531 127.640625 120.398438 127.890625 120.828125 128.070312 C 121.257812 128.246094 121.707031 128.335938 122.171875 128.335938 C 122.636719 128.335938 123.082031 128.246094 123.511719 128.070312 C 123.941406 127.890625 124.320312 127.640625 124.652344 127.3125 C 124.980469 126.984375 125.234375 126.605469 125.410156 126.175781 C 125.589844 125.746094 125.675781 125.300781 125.679688 124.835938 C 125.675781 124.371094 125.585938 123.925781 125.40625 123.496094 C 125.230469 123.070312 124.976562 122.691406 124.648438 122.363281 C 124.320312 122.035156 123.941406 121.78125 123.511719 121.601562 C 123.082031 121.425781 122.636719 121.335938 122.171875 121.332031 Z M 122.171875 126.980469 C 121.886719 126.980469 121.613281 126.925781 121.351562 126.816406 C 121.085938 126.707031 120.855469 126.550781 120.652344 126.351562 C 120.453125 126.148438 120.296875 125.917969 120.1875 125.65625 C 120.078125 125.394531 120.023438 125.121094 120.023438 124.835938 C 120.023438 124.550781 120.078125 124.277344 120.1875 124.015625 C 120.296875 123.75 120.453125 123.519531 120.652344 123.320312 C 120.855469 123.117188 121.085938 122.960938 121.351562 122.855469 C 121.613281 122.746094 121.886719 122.691406 122.171875 122.691406 C 122.457031 122.691406 122.730469 122.746094 122.992188 122.855469 C 123.257812 122.960938 123.488281 123.117188 123.691406 123.320312 C 123.890625 123.519531 124.046875 123.75 124.15625 124.015625 C 124.265625 124.277344 124.320312 124.550781 124.320312 124.835938 C 124.320312 125.121094 124.265625 125.394531 124.15625 125.65625 C 124.046875 125.917969 123.890625 126.148438 123.691406 126.351562 C 123.488281 126.550781 123.257812 126.707031 122.992188 126.816406 C 122.730469 126.925781 122.457031 126.980469 122.171875 126.980469 Z M 122.171875 126.980469 " fill-opacity="1" fill-rule="nonzero"/><path fill="#000000" d="M 118.1875 132.816406 L 106.882812 132.816406 C 106.628906 132.8125 106.382812 132.867188 106.152344 132.972656 C 105.917969 133.078125 105.71875 133.226562 105.554688 133.421875 C 105.386719 133.613281 105.269531 133.832031 105.199219 134.078125 C 105.132812 134.324219 105.117188 134.570312 105.15625 134.824219 C 105.234375 135.253906 105.34375 135.671875 105.496094 136.082031 C 105.644531 136.492188 105.828125 136.882812 106.046875 137.261719 C 106.265625 137.636719 106.515625 137.992188 106.796875 138.328125 C 107.078125 138.660156 107.386719 138.96875 107.71875 139.246094 C 108.054688 139.527344 108.410156 139.777344 108.789062 139.992188 C 109.167969 140.210938 109.558594 140.394531 109.96875 140.542969 C 110.378906 140.691406 110.800781 140.804688 111.230469 140.878906 C 111.660156 140.957031 112.09375 140.992188 112.527344 140.992188 C 112.964844 140.992188 113.398438 140.957031 113.828125 140.878906 C 114.257812 140.804688 114.675781 140.691406 115.085938 140.542969 C 115.496094 140.394531 115.890625 140.210938 116.269531 139.992188 C 116.648438 139.777344 117.003906 139.527344 117.339844 139.246094 C 117.671875 138.96875 117.980469 138.660156 118.261719 138.328125 C 118.542969 137.992188 118.792969 137.636719 119.011719 137.261719 C 119.230469 136.882812 119.414062 136.492188 119.5625 136.082031 C 119.710938 135.671875 119.824219 135.253906 119.902344 134.824219 C 119.945312 134.574219 119.929688 134.324219 119.863281 134.078125 C 119.796875 133.835938 119.679688 133.613281 119.515625 133.421875 C 119.347656 133.226562 119.148438 133.078125 118.917969 132.972656 C 118.6875 132.867188 118.445312 132.8125 118.1875 132.816406 Z M 112.5625 139.601562 C 111.84375 139.601562 111.144531 139.480469 110.46875 139.238281 C 109.792969 138.992188 109.179688 138.640625 108.628906 138.179688 C 108.078125 137.71875 107.621094 137.179688 107.257812 136.558594 C 106.898438 135.9375 106.65625 135.273438 106.527344 134.566406 C 106.378906 133.765625 107.699219 134.335938 118.214844 134.160156 C 118.328125 134.152344 118.425781 134.191406 118.5 134.273438 C 118.578125 134.355469 118.609375 134.453125 118.597656 134.566406 C 118.46875 135.273438 118.226562 135.9375 117.863281 136.554688 C 117.503906 137.175781 117.046875 137.71875 116.496094 138.175781 C 115.945312 138.636719 115.328125 138.988281 114.65625 139.234375 C 113.980469 139.480469 113.28125 139.601562 112.5625 139.601562 Z M 112.5625 139.601562 " fill-opacity="1" fill-rule="nonzero"/><g clip-path="url(#05269a54b7)"><path fill="#000000" d="M 159.859375 45.4375 C 160.046875 45.4375 160.207031 45.371094 160.339844 45.238281 C 160.472656 45.105469 160.539062 44.945312 160.539062 44.761719 L 160.539062 34.648438 C 160.539062 34.125 160.484375 33.609375 160.382812 33.09375 C 160.28125 32.582031 160.128906 32.082031 159.929688 31.601562 C 159.730469 31.117188 159.484375 30.65625 159.191406 30.222656 C 158.902344 29.789062 158.570312 29.386719 158.199219 29.015625 C 157.832031 28.644531 157.425781 28.316406 156.992188 28.023438 C 156.554688 27.734375 156.097656 27.488281 155.613281 27.289062 C 155.128906 27.089844 154.628906 26.9375 154.117188 26.835938 C 153.601562 26.734375 153.082031 26.683594 152.558594 26.683594 L 72.566406 26.683594 C 72.042969 26.683594 71.523438 26.734375 71.011719 26.835938 C 70.496094 26.9375 69.996094 27.089844 69.511719 27.289062 C 69.027344 27.488281 68.570312 27.734375 68.132812 28.023438 C 67.699219 28.316406 67.296875 28.644531 66.925781 29.015625 C 66.554688 29.386719 66.222656 29.789062 65.933594 30.222656 C 65.640625 30.65625 65.394531 31.117188 65.195312 31.601562 C 64.996094 32.082031 64.84375 32.582031 64.742188 33.09375 C 64.640625 33.609375 64.589844 34.125 64.589844 34.648438 L 64.589844 69.597656 C 64.589844 70.121094 64.640625 70.636719 64.742188 71.152344 C 64.84375 71.664062 64.996094 72.160156 65.195312 72.644531 C 65.394531 73.128906 65.640625 73.585938 65.933594 74.023438 C 66.222656 74.457031 66.554688 74.859375 66.925781 75.230469 C 67.296875 75.601562 67.699219 75.929688 68.132812 76.222656 C 68.570312 76.511719 69.027344 76.757812 69.511719 76.957031 C 69.996094 77.15625 70.496094 77.308594 71.011719 77.410156 C 71.523438 77.511719 72.042969 77.5625 72.566406 77.5625 L 100.726562 77.5625 L 112.019531 92.261719 C 112.082031 92.347656 112.164062 92.414062 112.257812 92.460938 C 112.355469 92.507812 112.457031 92.535156 112.5625 92.535156 C 112.667969 92.535156 112.769531 92.507812 112.867188 92.460938 C 112.960938 92.414062 113.042969 92.347656 113.105469 92.261719 L 124.398438 77.5625 L 152.558594 77.5625 C 153.082031 77.5625 153.601562 77.511719 154.117188 77.410156 C 154.628906 77.308594 155.128906 77.15625 155.613281 76.957031 C 156.097656 76.757812 156.554688 76.511719 156.992188 76.222656 C 157.425781 75.929688 157.832031 75.601562 158.199219 75.230469 C 158.570312 74.859375 158.902344 74.457031 159.191406 74.023438 C 159.484375 73.585938 159.730469 73.128906 159.929688 72.644531 C 160.128906 72.160156 160.28125 71.664062 160.382812 71.152344 C 160.484375 70.636719 160.539062 70.121094 160.539062 69.597656 L 160.539062 57.136719 C 160.539062 56.949219 160.472656 56.789062 160.339844 56.65625 C 160.207031 56.523438 160.046875 56.457031 159.859375 56.457031 C 159.671875 56.457031 159.511719 56.523438 159.378906 56.65625 C 159.246094 56.789062 159.179688 56.949219 159.179688 57.136719 L 159.179688 69.597656 C 159.179688 70.03125 159.136719 70.460938 159.050781 70.886719 C 158.964844 71.3125 158.839844 71.726562 158.675781 72.125 C 158.507812 72.527344 158.304688 72.90625 158.0625 73.269531 C 157.820312 73.628906 157.546875 73.964844 157.238281 74.269531 C 156.933594 74.578125 156.597656 74.851562 156.238281 75.09375 C 155.875 75.332031 155.492188 75.535156 155.09375 75.703125 C 154.691406 75.871094 154.277344 75.996094 153.851562 76.078125 C 153.425781 76.164062 152.996094 76.207031 152.558594 76.207031 L 124.019531 76.207031 C 123.792969 76.203125 123.609375 76.292969 123.476562 76.476562 L 112.5625 90.742188 L 101.609375 76.476562 C 101.472656 76.292969 101.292969 76.203125 101.066406 76.207031 L 72.523438 76.207031 C 72.089844 76.207031 71.660156 76.164062 71.234375 76.078125 C 70.808594 75.996094 70.394531 75.871094 69.992188 75.703125 C 69.589844 75.535156 69.210938 75.332031 68.847656 75.09375 C 68.488281 74.851562 68.152344 74.578125 67.84375 74.269531 C 67.539062 73.964844 67.261719 73.628906 67.023438 73.269531 C 66.78125 72.90625 66.578125 72.527344 66.410156 72.125 C 66.246094 71.726562 66.117188 71.3125 66.035156 70.886719 C 65.949219 70.460938 65.90625 70.03125 65.90625 69.597656 L 65.90625 34.648438 C 65.90625 34.214844 65.949219 33.78125 66.035156 33.355469 C 66.121094 32.925781 66.246094 32.511719 66.414062 32.109375 C 66.582031 31.707031 66.789062 31.324219 67.03125 30.964844 C 67.273438 30.601562 67.550781 30.269531 67.859375 29.960938 C 68.167969 29.652344 68.503906 29.378906 68.871094 29.140625 C 69.234375 28.898438 69.617188 28.695312 70.019531 28.53125 C 70.425781 28.367188 70.839844 28.242188 71.269531 28.160156 C 71.699219 28.078125 72.128906 28.035156 72.566406 28.039062 L 152.558594 28.039062 C 152.996094 28.039062 153.425781 28.082031 153.851562 28.167969 C 154.277344 28.25 154.691406 28.375 155.09375 28.542969 C 155.492188 28.707031 155.875 28.910156 156.238281 29.152344 C 156.597656 29.394531 156.933594 29.667969 157.238281 29.976562 C 157.546875 30.28125 157.820312 30.617188 158.0625 30.976562 C 158.304688 31.335938 158.507812 31.71875 158.675781 32.121094 C 158.839844 32.519531 158.964844 32.933594 159.050781 33.359375 C 159.136719 33.785156 159.179688 34.214844 159.179688 34.648438 L 159.179688 44.761719 C 159.179688 44.945312 159.246094 45.105469 159.378906 45.238281 C 159.511719 45.371094 159.671875 45.4375 159.859375 45.4375 Z M 159.859375 45.4375 " fill-opacity="1" fill-rule="nonzero"/></g><path fill="#000000" d="M 95.957031 40.703125 C 96.144531 40.703125 96.304688 40.636719 96.4375 40.503906 C 96.570312 40.371094 96.636719 40.210938 96.636719 40.023438 C 96.632812 39.835938 96.5625 39.679688 96.433594 39.546875 C 96.300781 39.414062 96.140625 39.347656 95.957031 39.34375 L 84.320312 39.34375 C 84.136719 39.347656 83.976562 39.414062 83.84375 39.546875 C 83.714844 39.679688 83.644531 39.835938 83.640625 40.023438 L 83.640625 63.597656 C 83.640625 63.785156 83.707031 63.945312 83.839844 64.078125 C 83.972656 64.210938 84.132812 64.277344 84.320312 64.277344 C 84.507812 64.277344 84.667969 64.210938 84.800781 64.078125 C 84.933594 63.945312 85 63.785156 85 63.597656 L 85 51.628906 L 95.957031 51.628906 C 96.140625 51.625 96.300781 51.554688 96.433594 51.425781 C 96.5625 51.292969 96.632812 51.132812 96.636719 50.949219 C 96.636719 50.761719 96.570312 50.601562 96.4375 50.46875 C 96.304688 50.335938 96.144531 50.269531 95.957031 50.269531 L 85 50.269531 L 85 40.769531 Z M 95.957031 40.703125 " fill-opacity="1" fill-rule="nonzero"/><path fill="#000000" d="M 101.785156 55.605469 L 99.066406 62.390625 C 98.96875 62.570312 98.949219 62.753906 99.019531 62.949219 C 99.085938 63.140625 99.214844 63.277344 99.40625 63.351562 C 99.597656 63.429688 99.785156 63.421875 99.964844 63.328125 C 100.148438 63.234375 100.265625 63.089844 100.316406 62.890625 C 100.96875 61.289062 101.878906 59.011719 102.886719 56.511719 L 114.804688 56.511719 C 115.8125 59.011719 116.722656 61.289062 117.359375 62.890625 C 117.429688 63.066406 117.550781 63.191406 117.722656 63.265625 C 117.894531 63.339844 118.070312 63.339844 118.242188 63.273438 C 118.421875 63.207031 118.546875 63.085938 118.621094 62.910156 C 118.699219 62.738281 118.699219 62.5625 118.625 62.390625 C 111.953125 45.953125 110.210938 41.503906 109.492188 40.078125 C 109.488281 39.929688 109.445312 39.800781 109.355469 39.679688 C 109.269531 39.5625 109.15625 39.484375 109.015625 39.441406 C 108.949219 39.425781 108.878906 39.425781 108.8125 39.441406 C 108.75 39.425781 108.683594 39.425781 108.621094 39.441406 C 108.308594 39.535156 108.144531 39.75 108.132812 40.078125 C 107.414062 41.558594 105.167969 47.1875 101.785156 55.605469 Z M 108.8125 41.800781 C 109.886719 44.433594 112.167969 50.09375 114.25 55.195312 L 103.417969 55.195312 Z M 108.8125 41.800781 " fill-opacity="1" fill-rule="nonzero"/><path fill="#000000" d="M 131.316406 39.34375 C 125.703125 39.34375 121.152344 44.773438 121.152344 51.355469 C 121.152344 57.9375 125.703125 63.367188 131.316406 63.367188 C 132.464844 63.355469 133.570312 63.132812 134.636719 62.707031 C 135.703125 62.277344 136.652344 61.667969 137.488281 60.882812 L 140.367188 63.21875 C 140.511719 63.359375 140.683594 63.425781 140.882812 63.417969 C 141.085938 63.40625 141.25 63.324219 141.375 63.167969 C 141.503906 63.011719 141.550781 62.835938 141.523438 62.636719 C 141.492188 62.4375 141.394531 62.285156 141.226562 62.171875 L 138.507812 59.917969 C 139.492188 58.71875 140.242188 57.382812 140.753906 55.914062 C 141.265625 54.445312 141.507812 52.9375 141.484375 51.382812 C 141.484375 44.734375 136.917969 39.34375 131.316406 39.34375 Z M 137.378906 59.050781 L 131.738281 54.492188 C 131.59375 54.371094 131.429688 54.320312 131.242188 54.335938 C 131.054688 54.355469 130.90625 54.4375 130.789062 54.585938 C 130.667969 54.734375 130.621094 54.898438 130.636719 55.085938 C 130.65625 55.273438 130.738281 55.429688 130.882812 55.550781 L 136.414062 60.015625 C 135.714844 60.644531 134.925781 61.132812 134.046875 61.476562 C 133.171875 61.820312 132.261719 62 131.316406 62.011719 C 126.453125 62.011719 122.511719 57.234375 122.511719 51.355469 C 122.511719 45.480469 126.453125 40.703125 131.316406 40.703125 C 136.183594 40.703125 140.125 45.480469 140.125 51.355469 C 140.140625 52.761719 139.914062 54.125 139.441406 55.449219 C 138.96875 56.773438 138.28125 57.972656 137.378906 59.050781 Z M 137.378906 59.050781 " fill-opacity="1" fill-rule="nonzero"/></svg>