<svg xmlns="http://www.w3.org/2000/svg" xmlns:xlink="http://www.w3.org/1999/xlink" width="324" zoomAndPan="magnify" viewBox="0 0 242.87999 50.999998" height="68" preserveAspectRatio="xMidYMid meet" version="1.0"><defs><g/><clipPath id="ae8123570d"><path d="M 0 4.511719 L 53.972656 4.511719 L 53.972656 46.488281 L 0 46.488281 Z M 0 4.511719 " clip-rule="nonzero"/></clipPath></defs><g clip-path="url(#ae8123570d)"><path fill="#540044" d="M 42.019531 12.667969 C 40.25 10.898438 37.898438 9.921875 35.394531 9.921875 C 32.890625 9.921875 30.539062 10.898438 28.765625 12.667969 L 27.003906 14.429688 L 25.242188 12.667969 C 23.46875 10.898438 21.117188 9.921875 18.613281 9.921875 C 16.109375 9.921875 13.757812 10.898438 11.988281 12.667969 C 10.21875 14.4375 9.242188 16.789062 9.242188 19.292969 C 9.242188 21.796875 10.21875 24.152344 11.988281 25.921875 L 23.589844 37.523438 C 23.761719 37.695312 24.042969 37.695312 24.214844 37.523438 C 24.386719 37.351562 24.386719 37.074219 24.214844 36.902344 L 12.609375 25.296875 C 11.007812 23.695312 10.121094 21.5625 10.121094 19.292969 C 10.121094 17.027344 11.007812 14.894531 12.609375 13.289062 C 14.214844 11.6875 16.347656 10.800781 18.613281 10.800781 C 20.882812 10.800781 23.015625 11.6875 24.617188 13.289062 L 26.691406 15.363281 C 26.777344 15.445312 26.886719 15.492188 27.003906 15.492188 C 27.121094 15.492188 27.234375 15.445312 27.316406 15.363281 L 29.390625 13.289062 C 30.992188 11.6875 33.125 10.800781 35.394531 10.800781 C 37.664062 10.800781 39.792969 11.6875 41.398438 13.289062 C 43.003906 14.894531 43.886719 17.027344 43.886719 19.292969 C 43.886719 21.5625 43.003906 23.695312 41.398438 25.296875 L 26.6875 40.007812 C 21.550781 45.28125 20.605469 45.28125 11.550781 45.277344 L 10.855469 45.277344 C 9.210938 45.277344 7.921875 44.777344 6.921875 43.75 C 4.253906 41.015625 4.402344 35.171875 4.480469 32.03125 C 4.492188 31.546875 4.503906 31.128906 4.503906 30.773438 C 4.503906 27.875 2.398438 26.082031 1.292969 25.339844 C 2.398438 24.597656 4.503906 22.804688 4.503906 19.902344 C 4.503906 19.546875 4.492188 19.128906 4.480469 18.644531 C 4.402344 15.503906 4.253906 9.660156 6.921875 6.929688 C 7.921875 5.902344 9.210938 5.402344 10.855469 5.402344 C 11.097656 5.402344 11.296875 5.203125 11.296875 4.960938 C 11.296875 4.71875 11.097656 4.519531 10.855469 4.519531 C 8.988281 4.519531 7.449219 5.125 6.289062 6.3125 C 3.367188 9.3125 3.519531 15.398438 3.601562 18.664062 C 3.613281 19.144531 3.621094 19.558594 3.621094 19.902344 C 3.621094 23.203125 0.277344 24.929688 0.242188 24.945312 C 0.09375 25.019531 0 25.171875 0 25.339844 C 0 25.503906 0.09375 25.65625 0.242188 25.730469 C 0.277344 25.75 3.621094 27.472656 3.621094 30.773438 C 3.621094 31.117188 3.613281 31.53125 3.601562 32.011719 C 3.519531 35.28125 3.367188 41.363281 6.289062 44.363281 C 7.449219 45.554688 8.988281 46.15625 10.855469 46.15625 L 11.550781 46.15625 C 11.769531 46.15625 11.984375 46.15625 12.195312 46.15625 C 20.800781 46.15625 22.050781 46.027344 27.316406 40.625 L 42.019531 25.921875 C 43.789062 24.152344 44.765625 21.796875 44.765625 19.292969 C 44.765625 16.789062 43.789062 14.4375 42.019531 12.667969 Z M 54.007812 25.339844 C 54.007812 25.503906 53.914062 25.65625 53.765625 25.730469 C 53.734375 25.75 50.386719 27.472656 50.386719 30.773438 C 50.386719 31.117188 50.394531 31.53125 50.410156 32.011719 C 50.492188 35.28125 50.644531 41.363281 47.71875 44.363281 C 46.558594 45.554688 45.023438 46.15625 43.152344 46.15625 C 42.910156 46.15625 42.714844 45.960938 42.714844 45.714844 C 42.714844 45.472656 42.910156 45.277344 43.152344 45.277344 C 44.800781 45.277344 46.085938 44.777344 47.089844 43.75 C 49.753906 41.015625 49.605469 35.171875 49.527344 32.03125 C 49.515625 31.546875 49.507812 31.128906 49.507812 30.773438 C 49.507812 27.875 51.609375 26.082031 52.714844 25.339844 C 51.609375 24.597656 49.507812 22.804688 49.507812 19.902344 C 49.507812 19.546875 49.515625 19.128906 49.527344 18.644531 C 49.605469 15.503906 49.753906 9.660156 47.089844 6.929688 C 46.085938 5.902344 44.800781 5.402344 43.152344 5.402344 C 42.910156 5.402344 42.714844 5.203125 42.714844 4.960938 C 42.714844 4.71875 42.910156 4.519531 43.152344 4.519531 C 45.023438 4.519531 46.558594 5.125 47.71875 6.3125 C 50.644531 9.3125 50.492188 15.398438 50.410156 18.664062 C 50.394531 19.144531 50.386719 19.558594 50.386719 19.902344 C 50.386719 23.203125 53.734375 24.929688 53.765625 24.945312 C 53.914062 25.019531 54.007812 25.171875 54.007812 25.339844 " fill-opacity="1" fill-rule="nonzero"/></g><g fill="#00423a" fill-opacity="1"><g transform="translate(61.311821, 20.841755)"><g><path d="M 1.84375 -12.359375 C 2 -12.441406 2.113281 -12.484375 2.1875 -12.484375 C 2.4375 -12.484375 2.832031 -12.171875 3.375 -11.546875 C 3.925781 -10.921875 5.117188 -9.429688 6.953125 -7.078125 C 7.179688 -6.796875 8.113281 -5.609375 9.75 -3.515625 L 10.078125 -3.0625 L 10.1875 -3.71875 C 10.25 -4.21875 10.304688 -5.707031 10.359375 -8.1875 C 10.410156 -10.40625 10.472656 -11.660156 10.546875 -11.953125 C 10.617188 -12.171875 10.75 -12.28125 10.9375 -12.28125 C 11.03125 -12.28125 11.109375 -12.273438 11.171875 -12.265625 C 11.347656 -12.253906 11.453125 -12.203125 11.484375 -12.109375 C 11.523438 -12.023438 11.566406 -11.769531 11.609375 -11.34375 C 11.671875 -10.71875 11.703125 -9.976562 11.703125 -9.125 C 11.703125 -6.476562 11.554688 -4.078125 11.265625 -1.921875 C 11.171875 -1.285156 10.921875 -0.96875 10.515625 -0.96875 C 10.296875 -0.96875 10.070312 -1.085938 9.84375 -1.328125 C 9.625 -1.554688 8.957031 -2.390625 7.84375 -3.828125 C 6.863281 -5.128906 5.765625 -6.539062 4.546875 -8.0625 L 2.875 -10.140625 L 2.796875 -5.71875 C 2.753906 -2.78125 2.703125 -1.25 2.640625 -1.125 C 2.554688 -1.019531 2.363281 -0.96875 2.0625 -0.96875 C 1.863281 -0.96875 1.738281 -1 1.6875 -1.0625 C 1.65625 -1.132812 1.617188 -3.007812 1.578125 -6.6875 L 1.546875 -12.21875 Z M 1.84375 -12.359375 "/></g></g></g><g fill="#00423a" fill-opacity="1"><g transform="translate(74.547102, 20.841755)"><g><path d="M 7.421875 -9.078125 C 6.867188 -9.335938 6.257812 -9.46875 5.59375 -9.46875 C 5.375 -9.46875 5.179688 -9.441406 5.015625 -9.390625 C 3.941406 -9.046875 3.25 -8.289062 2.9375 -7.125 L 2.765625 -6.484375 L 3.3125 -6.390625 C 3.738281 -6.316406 4.570312 -6.269531 5.8125 -6.25 C 5.9375 -6.25 6.097656 -6.242188 6.296875 -6.234375 C 6.492188 -6.234375 6.628906 -6.234375 6.703125 -6.234375 C 7.421875 -6.234375 7.953125 -6.320312 8.296875 -6.5 C 8.628906 -6.675781 8.796875 -6.863281 8.796875 -7.0625 L 8.796875 -7.1875 C 8.765625 -7.519531 8.609375 -7.875 8.328125 -8.25 C 8.054688 -8.632812 7.753906 -8.910156 7.421875 -9.078125 Z M 4.484375 -10.609375 C 4.722656 -10.671875 5.085938 -10.703125 5.578125 -10.703125 C 6.265625 -10.703125 6.816406 -10.640625 7.234375 -10.515625 C 7.859375 -10.328125 8.34375 -10.085938 8.6875 -9.796875 C 9.039062 -9.515625 9.351562 -9.109375 9.625 -8.578125 C 9.957031 -7.910156 10.125 -7.382812 10.125 -7 C 10.125 -6.644531 9.984375 -6.300781 9.703125 -5.96875 C 9.378906 -5.613281 9 -5.367188 8.5625 -5.234375 C 8.132812 -5.097656 7.441406 -5.019531 6.484375 -5 C 6.273438 -4.988281 5.953125 -4.984375 5.515625 -4.984375 C 4.710938 -4.984375 4.15625 -5.003906 3.84375 -5.046875 C 3.425781 -5.085938 3.160156 -5.109375 3.046875 -5.109375 C 2.929688 -5.109375 2.875 -5.097656 2.875 -5.078125 C 2.875 -4.960938 2.96875 -4.679688 3.15625 -4.234375 C 3.320312 -3.773438 3.617188 -3.335938 4.046875 -2.921875 C 4.484375 -2.503906 4.882812 -2.257812 5.25 -2.1875 C 5.53125 -2.144531 5.753906 -2.125 5.921875 -2.125 C 6.660156 -2.125 7.425781 -2.328125 8.21875 -2.734375 C 8.726562 -3.015625 9.078125 -3.15625 9.265625 -3.15625 C 9.347656 -3.15625 9.429688 -3.140625 9.515625 -3.109375 C 9.734375 -3.003906 9.84375 -2.832031 9.84375 -2.59375 C 9.84375 -2.414062 9.765625 -2.238281 9.609375 -2.0625 C 9.398438 -1.851562 8.992188 -1.625 8.390625 -1.375 C 7.785156 -1.132812 7.238281 -0.972656 6.75 -0.890625 C 6.5 -0.859375 6.25 -0.84375 6 -0.84375 C 5.09375 -0.84375 4.285156 -1.09375 3.578125 -1.59375 C 2.867188 -2.09375 2.3125 -2.8125 1.90625 -3.75 C 1.769531 -4.0625 1.6875 -4.347656 1.65625 -4.609375 C 1.625 -4.867188 1.601562 -5.316406 1.59375 -5.953125 C 1.59375 -6.609375 1.609375 -7.0625 1.640625 -7.3125 C 1.671875 -7.570312 1.757812 -7.859375 1.90625 -8.171875 C 2.164062 -8.742188 2.53125 -9.253906 3 -9.703125 C 3.46875 -10.148438 3.960938 -10.453125 4.484375 -10.609375 Z M 4.484375 -10.609375 "/></g></g></g><g fill="#00423a" fill-opacity="1"><g transform="translate(86.20675, 20.841755)"><g><path d="M 9.328125 -9.46875 C 9.390625 -9.507812 9.460938 -9.53125 9.546875 -9.53125 C 9.703125 -9.53125 9.847656 -9.46875 9.984375 -9.34375 C 10.128906 -9.226562 10.203125 -9.09375 10.203125 -8.9375 C 10.203125 -8.769531 9.863281 -8.367188 9.1875 -7.734375 C 8.96875 -7.535156 8.617188 -7.207031 8.140625 -6.75 C 7.671875 -6.289062 7.375 -6.003906 7.25 -5.890625 L 6.34375 -5.03125 L 8.078125 -3.203125 C 8.722656 -2.523438 9.171875 -2.03125 9.421875 -1.71875 C 9.671875 -1.414062 9.796875 -1.179688 9.796875 -1.015625 C 9.796875 -0.898438 9.75 -0.800781 9.65625 -0.71875 C 9.539062 -0.601562 9.4375 -0.546875 9.34375 -0.546875 C 9.175781 -0.546875 8.945312 -0.664062 8.65625 -0.90625 C 8.363281 -1.15625 7.878906 -1.617188 7.203125 -2.296875 L 5.453125 -4.015625 L 4 -2.515625 C 3.050781 -1.515625 2.5 -0.984375 2.34375 -0.921875 C 2.25 -0.898438 2.1875 -0.890625 2.15625 -0.890625 C 2 -0.890625 1.859375 -0.945312 1.734375 -1.0625 C 1.617188 -1.175781 1.5625 -1.300781 1.5625 -1.4375 C 1.5625 -1.664062 2.0625 -2.328125 3.0625 -3.421875 L 4.578125 -5.03125 L 3.09375 -6.8125 C 2.070312 -8.007812 1.5625 -8.703125 1.5625 -8.890625 C 1.5625 -9.078125 1.617188 -9.222656 1.734375 -9.328125 C 1.847656 -9.429688 2.003906 -9.484375 2.203125 -9.484375 C 2.335938 -9.484375 2.507812 -9.378906 2.71875 -9.171875 C 2.9375 -8.960938 3.316406 -8.53125 3.859375 -7.875 C 4.710938 -6.875 5.21875 -6.296875 5.375 -6.140625 C 5.382812 -6.128906 5.410156 -6.125 5.453125 -6.125 C 5.554688 -6.125 5.726562 -6.222656 5.96875 -6.421875 C 6.207031 -6.628906 6.644531 -7.050781 7.28125 -7.6875 C 8.46875 -8.820312 9.148438 -9.414062 9.328125 -9.46875 Z M 9.328125 -9.46875 "/></g></g></g><g fill="#00423a" fill-opacity="1"><g transform="translate(97.999083, 20.841755)"><g><path d="M 4.21875 -11.953125 C 4.34375 -12.078125 4.488281 -12.140625 4.65625 -12.140625 C 4.832031 -12.140625 4.988281 -12.078125 5.125 -11.953125 C 5.226562 -11.835938 5.28125 -11.632812 5.28125 -11.34375 C 5.28125 -11.28125 5.269531 -11.082031 5.25 -10.75 L 5.15625 -9.75 L 6.375 -9.75 C 7 -9.75 7.40625 -9.710938 7.59375 -9.640625 C 7.78125 -9.578125 7.875 -9.414062 7.875 -9.15625 C 7.875 -8.757812 7.609375 -8.5625 7.078125 -8.5625 C 6.804688 -8.5625 6.414062 -8.53125 5.90625 -8.46875 L 5.171875 -8.375 L 5.234375 -5.96875 C 5.253906 -4.40625 5.347656 -3.4375 5.515625 -3.0625 C 5.773438 -2.5625 6.21875 -2.3125 6.84375 -2.3125 C 6.925781 -2.3125 7.078125 -2.320312 7.296875 -2.34375 C 7.523438 -2.363281 7.671875 -2.375 7.734375 -2.375 C 7.972656 -2.375 8.144531 -2.320312 8.25 -2.21875 C 8.351562 -2.125 8.40625 -1.96875 8.40625 -1.75 C 8.40625 -1.507812 8.285156 -1.320312 8.046875 -1.1875 C 7.816406 -1.0625 7.503906 -1 7.109375 -1 C 6.828125 -1 6.519531 -1.03125 6.1875 -1.09375 C 4.738281 -1.394531 4.015625 -2.585938 4.015625 -4.671875 C 4.015625 -5.273438 3.984375 -6.050781 3.921875 -7 L 3.828125 -8.296875 L 2.875 -8.296875 C 2.363281 -8.296875 2.023438 -8.332031 1.859375 -8.40625 C 1.691406 -8.488281 1.609375 -8.648438 1.609375 -8.890625 C 1.609375 -9.078125 1.6875 -9.234375 1.84375 -9.359375 C 2 -9.492188 2.203125 -9.566406 2.453125 -9.578125 C 2.609375 -9.585938 2.941406 -9.59375 3.453125 -9.59375 L 4.015625 -9.625 L 4.015625 -10.671875 C 4.015625 -11.398438 4.082031 -11.828125 4.21875 -11.953125 Z M 4.21875 -11.953125 "/></g></g></g><g fill="#00423a" fill-opacity="1"><g transform="translate(108.016765, 20.841755)"><g><path d="M 2.953125 -11.9375 C 3.703125 -11.96875 4.910156 -11.984375 6.578125 -11.984375 C 8.835938 -11.984375 10.453125 -11.953125 11.421875 -11.890625 L 12.890625 -11.8125 L 12.921875 -11.453125 C 12.929688 -11.390625 12.9375 -11.3125 12.9375 -11.21875 C 12.9375 -10.976562 12.789062 -10.828125 12.5 -10.765625 C 12.21875 -10.710938 11.519531 -10.6875 10.40625 -10.6875 L 8.140625 -10.6875 L 8.25 -10.390625 C 8.289062 -10.253906 8.3125 -9.300781 8.3125 -7.53125 C 8.3125 -4.625 8.269531 -2.703125 8.1875 -1.765625 C 8.125 -1.265625 8.070312 -0.96875 8.03125 -0.875 C 8 -0.78125 7.894531 -0.726562 7.71875 -0.71875 C 7.582031 -0.695312 7.492188 -0.6875 7.453125 -0.6875 C 7.273438 -0.6875 7.148438 -0.789062 7.078125 -1 C 7.015625 -1.21875 6.984375 -1.679688 6.984375 -2.390625 C 6.984375 -3.003906 7 -3.898438 7.03125 -5.078125 C 7.050781 -5.828125 7.0625 -6.863281 7.0625 -8.1875 C 7.0625 -9.195312 7.050781 -9.773438 7.03125 -9.921875 L 6.953125 -10.6875 L 4.4375 -10.6875 C 3.113281 -10.6875 2.3125 -10.71875 2.03125 -10.78125 C 1.757812 -10.84375 1.625 -11.015625 1.625 -11.296875 C 1.625 -11.515625 1.710938 -11.664062 1.890625 -11.75 C 2.066406 -11.84375 2.421875 -11.90625 2.953125 -11.9375 Z M 2.953125 -11.9375 "/></g></g></g><g fill="#00423a" fill-opacity="1"><g transform="translate(122.578883, 20.841755)"><g><path d="M 7.640625 -9.0625 C 7.242188 -9.144531 6.992188 -9.1875 6.890625 -9.1875 C 6.835938 -9.175781 6.59375 -9.140625 6.15625 -9.078125 C 5.75 -9.023438 5.40625 -8.921875 5.125 -8.765625 C 4.84375 -8.617188 4.488281 -8.351562 4.0625 -7.96875 C 3.21875 -7.1875 2.796875 -6.3125 2.796875 -5.34375 C 2.796875 -4.945312 2.859375 -4.582031 2.984375 -4.25 C 3.242188 -3.550781 3.671875 -3.007812 4.265625 -2.625 C 4.859375 -2.238281 5.519531 -2.046875 6.25 -2.046875 C 7.507812 -2.046875 8.523438 -2.53125 9.296875 -3.5 C 9.859375 -4.21875 10.140625 -5.078125 10.140625 -6.078125 C 10.140625 -6.492188 10.070312 -6.867188 9.9375 -7.203125 C 9.726562 -7.753906 9.445312 -8.164062 9.09375 -8.4375 C 8.75 -8.71875 8.265625 -8.925781 7.640625 -9.0625 Z M 5.46875 -10.21875 C 5.71875 -10.269531 6.101562 -10.296875 6.625 -10.296875 C 6.84375 -10.296875 7.007812 -10.289062 7.125 -10.28125 C 8.425781 -10.226562 9.445312 -9.828125 10.1875 -9.078125 C 10.9375 -8.335938 11.3125 -7.335938 11.3125 -6.078125 C 11.3125 -4.566406 10.828125 -3.3125 9.859375 -2.3125 C 8.898438 -1.320312 7.734375 -0.828125 6.359375 -0.828125 C 5.796875 -0.828125 5.242188 -0.914062 4.703125 -1.09375 C 3.734375 -1.40625 2.972656 -1.957031 2.421875 -2.75 C 1.867188 -3.539062 1.59375 -4.414062 1.59375 -5.375 C 1.59375 -6.726562 2.109375 -7.878906 3.140625 -8.828125 C 4.023438 -9.609375 4.800781 -10.070312 5.46875 -10.21875 Z M 5.46875 -10.21875 "/></g></g></g><g fill="#00423a" fill-opacity="1"><g transform="translate(135.465863, 20.841755)"><g><path d="M 1.6875 -12.0625 L 1.90625 -12.390625 L 5.40625 -12.390625 C 7.726562 -12.390625 8.976562 -12.347656 9.15625 -12.265625 C 9.332031 -12.148438 9.421875 -11.9375 9.421875 -11.625 C 9.421875 -11.4375 9.375 -11.3125 9.28125 -11.25 C 9.21875 -11.207031 8.113281 -11.1875 5.96875 -11.1875 L 2.796875 -11.203125 L 2.90625 -10.703125 C 2.957031 -10.222656 2.984375 -9.597656 2.984375 -8.828125 L 2.984375 -7.484375 L 5.84375 -7.40625 C 7.613281 -7.363281 8.640625 -7.304688 8.921875 -7.234375 C 9.078125 -7.171875 9.15625 -6.988281 9.15625 -6.6875 C 9.15625 -6.394531 9.078125 -6.222656 8.921875 -6.171875 C 8.765625 -6.128906 7.742188 -6.109375 5.859375 -6.109375 L 2.984375 -6.109375 L 2.984375 -2.1875 L 6.234375 -2.21875 L 7.15625 -2.21875 C 8.707031 -2.21875 9.539062 -2.195312 9.65625 -2.15625 C 9.769531 -2.082031 9.828125 -1.925781 9.828125 -1.6875 C 9.828125 -1.445312 9.769531 -1.269531 9.65625 -1.15625 C 9.5625 -1.0625 8.296875 -1.015625 5.859375 -1.015625 C 4.296875 -1.015625 3.28125 -1.023438 2.8125 -1.046875 C 2.351562 -1.078125 2.078125 -1.140625 1.984375 -1.234375 C 1.878906 -1.328125 1.8125 -1.804688 1.78125 -2.671875 C 1.757812 -3.535156 1.734375 -5.523438 1.703125 -8.640625 C 1.679688 -9.773438 1.644531 -10.53125 1.59375 -10.90625 C 1.5625 -11.164062 1.546875 -11.363281 1.546875 -11.5 C 1.546875 -11.707031 1.59375 -11.894531 1.6875 -12.0625 Z M 1.6875 -12.0625 "/></g></g></g><g fill="#00423a" fill-opacity="1"><g transform="translate(146.876725, 20.841755)"><g><path d="M 7.46875 -7.078125 C 6.625 -7.484375 5.976562 -7.6875 5.53125 -7.6875 C 5.09375 -7.6875 4.59375 -7.5 4.03125 -7.125 C 3.613281 -6.832031 3.289062 -6.457031 3.0625 -6 C 2.832031 -5.539062 2.71875 -5.0625 2.71875 -4.5625 C 2.71875 -3.601562 3.078125 -2.882812 3.796875 -2.40625 C 4.179688 -2.15625 4.625 -2.03125 5.125 -2.03125 C 5.582031 -2.03125 6.039062 -2.140625 6.5 -2.359375 C 7.007812 -2.597656 7.4375 -3.035156 7.78125 -3.671875 C 8.132812 -4.316406 8.359375 -5.066406 8.453125 -5.921875 L 8.515625 -6.609375 Z M 8.609375 -10.296875 C 8.609375 -11.765625 8.660156 -12.550781 8.765625 -12.65625 C 8.878906 -12.769531 9.03125 -12.828125 9.21875 -12.828125 C 9.4375 -12.828125 9.59375 -12.765625 9.6875 -12.640625 C 9.78125 -12.523438 9.828125 -11.554688 9.828125 -9.734375 C 9.828125 -9.566406 9.820312 -9.28125 9.8125 -8.875 C 9.8125 -8.46875 9.8125 -8.144531 9.8125 -7.90625 L 9.8125 -6.09375 C 9.8125 -4.507812 9.851562 -3.476562 9.9375 -3 C 10.019531 -2.53125 10.203125 -2.125 10.484375 -1.78125 C 10.742188 -1.488281 10.875 -1.226562 10.875 -1 C 10.875 -0.664062 10.65625 -0.5 10.21875 -0.5 C 9.976562 -0.5 9.726562 -0.640625 9.46875 -0.921875 C 9.207031 -1.203125 9.003906 -1.554688 8.859375 -1.984375 C 8.722656 -2.378906 8.644531 -2.578125 8.625 -2.578125 C 8.613281 -2.578125 8.609375 -2.570312 8.609375 -2.5625 C 8.609375 -2.425781 8.414062 -2.1875 8.03125 -1.84375 C 7.644531 -1.5 7.300781 -1.257812 7 -1.125 C 6.601562 -0.9375 6 -0.835938 5.1875 -0.828125 C 4.519531 -0.828125 4.003906 -0.890625 3.640625 -1.015625 C 3.273438 -1.148438 2.898438 -1.398438 2.515625 -1.765625 C 2.140625 -2.140625 1.890625 -2.515625 1.765625 -2.890625 C 1.640625 -3.273438 1.578125 -3.859375 1.578125 -4.640625 C 1.578125 -5.492188 1.65625 -6.109375 1.8125 -6.484375 C 1.96875 -6.867188 2.332031 -7.316406 2.90625 -7.828125 C 3.707031 -8.554688 4.570312 -8.921875 5.5 -8.921875 C 6.050781 -8.921875 6.617188 -8.8125 7.203125 -8.59375 C 7.773438 -8.394531 8.164062 -8.257812 8.375 -8.1875 C 8.382812 -8.1875 8.394531 -8.179688 8.40625 -8.171875 C 8.414062 -8.171875 8.429688 -8.171875 8.453125 -8.171875 C 8.523438 -8.171875 8.566406 -8.289062 8.578125 -8.53125 C 8.597656 -8.78125 8.609375 -9.367188 8.609375 -10.296875 Z M 8.609375 -10.296875 "/></g></g></g><g fill="#00423a" fill-opacity="1"><g transform="translate(159.365648, 20.841755)"><g><path d="M 2.40625 -9.625 C 2.550781 -9.675781 2.695312 -9.703125 2.84375 -9.703125 C 3.0625 -9.703125 3.203125 -9.65625 3.265625 -9.5625 C 3.367188 -9.4375 3.503906 -7.367188 3.671875 -3.359375 C 3.691406 -2.515625 3.703125 -2.035156 3.703125 -1.921875 C 3.703125 -1.421875 3.644531 -1.125 3.53125 -1.03125 C 3.445312 -0.9375 3.316406 -0.890625 3.140625 -0.890625 C 2.878906 -0.890625 2.707031 -0.972656 2.625 -1.140625 C 2.5625 -1.265625 2.476562 -2.234375 2.375 -4.046875 C 2.28125 -5.859375 2.234375 -7.242188 2.234375 -8.203125 C 2.234375 -9.117188 2.289062 -9.59375 2.40625 -9.625 Z M 2.203125 -12.734375 C 2.460938 -12.859375 2.691406 -12.921875 2.890625 -12.921875 C 3.128906 -12.921875 3.328125 -12.835938 3.484375 -12.671875 C 3.640625 -12.515625 3.71875 -12.3125 3.71875 -12.0625 C 3.71875 -11.84375 3.648438 -11.597656 3.515625 -11.328125 C 3.410156 -11.117188 3.285156 -10.972656 3.140625 -10.890625 C 2.992188 -10.816406 2.773438 -10.78125 2.484375 -10.78125 C 2.203125 -10.78125 1.976562 -10.867188 1.8125 -11.046875 C 1.65625 -11.222656 1.578125 -11.441406 1.578125 -11.703125 C 1.578125 -12.160156 1.785156 -12.503906 2.203125 -12.734375 Z M 2.203125 -12.734375 "/></g></g></g><g fill="#00423a" fill-opacity="1"><g transform="translate(164.623269, 20.841755)"><g><path d="M 4.21875 -11.953125 C 4.34375 -12.078125 4.488281 -12.140625 4.65625 -12.140625 C 4.832031 -12.140625 4.988281 -12.078125 5.125 -11.953125 C 5.226562 -11.835938 5.28125 -11.632812 5.28125 -11.34375 C 5.28125 -11.28125 5.269531 -11.082031 5.25 -10.75 L 5.15625 -9.75 L 6.375 -9.75 C 7 -9.75 7.40625 -9.710938 7.59375 -9.640625 C 7.78125 -9.578125 7.875 -9.414062 7.875 -9.15625 C 7.875 -8.757812 7.609375 -8.5625 7.078125 -8.5625 C 6.804688 -8.5625 6.414062 -8.53125 5.90625 -8.46875 L 5.171875 -8.375 L 5.234375 -5.96875 C 5.253906 -4.40625 5.347656 -3.4375 5.515625 -3.0625 C 5.773438 -2.5625 6.21875 -2.3125 6.84375 -2.3125 C 6.925781 -2.3125 7.078125 -2.320312 7.296875 -2.34375 C 7.523438 -2.363281 7.671875 -2.375 7.734375 -2.375 C 7.972656 -2.375 8.144531 -2.320312 8.25 -2.21875 C 8.351562 -2.125 8.40625 -1.96875 8.40625 -1.75 C 8.40625 -1.507812 8.285156 -1.320312 8.046875 -1.1875 C 7.816406 -1.0625 7.503906 -1 7.109375 -1 C 6.828125 -1 6.519531 -1.03125 6.1875 -1.09375 C 4.738281 -1.394531 4.015625 -2.585938 4.015625 -4.671875 C 4.015625 -5.273438 3.984375 -6.050781 3.921875 -7 L 3.828125 -8.296875 L 2.875 -8.296875 C 2.363281 -8.296875 2.023438 -8.332031 1.859375 -8.40625 C 1.691406 -8.488281 1.609375 -8.648438 1.609375 -8.890625 C 1.609375 -9.078125 1.6875 -9.234375 1.84375 -9.359375 C 2 -9.492188 2.203125 -9.566406 2.453125 -9.578125 C 2.609375 -9.585938 2.941406 -9.59375 3.453125 -9.59375 L 4.015625 -9.625 L 4.015625 -10.671875 C 4.015625 -11.398438 4.082031 -11.828125 4.21875 -11.953125 Z M 4.21875 -11.953125 "/></g></g></g><g fill="#00423a" fill-opacity="1"><g transform="translate(174.640951, 20.841755)"><g/></g></g><g fill="#00423a" fill-opacity="1"><g transform="translate(182.767871, 20.841755)"><g><path d="M 2.953125 -11.9375 C 3.703125 -11.96875 4.910156 -11.984375 6.578125 -11.984375 C 8.835938 -11.984375 10.453125 -11.953125 11.421875 -11.890625 L 12.890625 -11.8125 L 12.921875 -11.453125 C 12.929688 -11.390625 12.9375 -11.3125 12.9375 -11.21875 C 12.9375 -10.976562 12.789062 -10.828125 12.5 -10.765625 C 12.21875 -10.710938 11.519531 -10.6875 10.40625 -10.6875 L 8.140625 -10.6875 L 8.25 -10.390625 C 8.289062 -10.253906 8.3125 -9.300781 8.3125 -7.53125 C 8.3125 -4.625 8.269531 -2.703125 8.1875 -1.765625 C 8.125 -1.265625 8.070312 -0.96875 8.03125 -0.875 C 8 -0.78125 7.894531 -0.726562 7.71875 -0.71875 C 7.582031 -0.695312 7.492188 -0.6875 7.453125 -0.6875 C 7.273438 -0.6875 7.148438 -0.789062 7.078125 -1 C 7.015625 -1.21875 6.984375 -1.679688 6.984375 -2.390625 C 6.984375 -3.003906 7 -3.898438 7.03125 -5.078125 C 7.050781 -5.828125 7.0625 -6.863281 7.0625 -8.1875 C 7.0625 -9.195312 7.050781 -9.773438 7.03125 -9.921875 L 6.953125 -10.6875 L 4.4375 -10.6875 C 3.113281 -10.6875 2.3125 -10.71875 2.03125 -10.78125 C 1.757812 -10.84375 1.625 -11.015625 1.625 -11.296875 C 1.625 -11.515625 1.710938 -11.664062 1.890625 -11.75 C 2.066406 -11.84375 2.421875 -11.90625 2.953125 -11.9375 Z M 2.953125 -11.9375 "/></g></g></g><g fill="#00423a" fill-opacity="1"><g transform="translate(197.329988, 20.841755)"><g><path d="M 7.421875 -9.078125 C 6.867188 -9.335938 6.257812 -9.46875 5.59375 -9.46875 C 5.375 -9.46875 5.179688 -9.441406 5.015625 -9.390625 C 3.941406 -9.046875 3.25 -8.289062 2.9375 -7.125 L 2.765625 -6.484375 L 3.3125 -6.390625 C 3.738281 -6.316406 4.570312 -6.269531 5.8125 -6.25 C 5.9375 -6.25 6.097656 -6.242188 6.296875 -6.234375 C 6.492188 -6.234375 6.628906 -6.234375 6.703125 -6.234375 C 7.421875 -6.234375 7.953125 -6.320312 8.296875 -6.5 C 8.628906 -6.675781 8.796875 -6.863281 8.796875 -7.0625 L 8.796875 -7.1875 C 8.765625 -7.519531 8.609375 -7.875 8.328125 -8.25 C 8.054688 -8.632812 7.753906 -8.910156 7.421875 -9.078125 Z M 4.484375 -10.609375 C 4.722656 -10.671875 5.085938 -10.703125 5.578125 -10.703125 C 6.265625 -10.703125 6.816406 -10.640625 7.234375 -10.515625 C 7.859375 -10.328125 8.34375 -10.085938 8.6875 -9.796875 C 9.039062 -9.515625 9.351562 -9.109375 9.625 -8.578125 C 9.957031 -7.910156 10.125 -7.382812 10.125 -7 C 10.125 -6.644531 9.984375 -6.300781 9.703125 -5.96875 C 9.378906 -5.613281 9 -5.367188 8.5625 -5.234375 C 8.132812 -5.097656 7.441406 -5.019531 6.484375 -5 C 6.273438 -4.988281 5.953125 -4.984375 5.515625 -4.984375 C 4.710938 -4.984375 4.15625 -5.003906 3.84375 -5.046875 C 3.425781 -5.085938 3.160156 -5.109375 3.046875 -5.109375 C 2.929688 -5.109375 2.875 -5.097656 2.875 -5.078125 C 2.875 -4.960938 2.96875 -4.679688 3.15625 -4.234375 C 3.320312 -3.773438 3.617188 -3.335938 4.046875 -2.921875 C 4.484375 -2.503906 4.882812 -2.257812 5.25 -2.1875 C 5.53125 -2.144531 5.753906 -2.125 5.921875 -2.125 C 6.660156 -2.125 7.425781 -2.328125 8.21875 -2.734375 C 8.726562 -3.015625 9.078125 -3.15625 9.265625 -3.15625 C 9.347656 -3.15625 9.429688 -3.140625 9.515625 -3.109375 C 9.734375 -3.003906 9.84375 -2.832031 9.84375 -2.59375 C 9.84375 -2.414062 9.765625 -2.238281 9.609375 -2.0625 C 9.398438 -1.851562 8.992188 -1.625 8.390625 -1.375 C 7.785156 -1.132812 7.238281 -0.972656 6.75 -0.890625 C 6.5 -0.859375 6.25 -0.84375 6 -0.84375 C 5.09375 -0.84375 4.285156 -1.09375 3.578125 -1.59375 C 2.867188 -2.09375 2.3125 -2.8125 1.90625 -3.75 C 1.769531 -4.0625 1.6875 -4.347656 1.65625 -4.609375 C 1.625 -4.867188 1.601562 -5.316406 1.59375 -5.953125 C 1.59375 -6.609375 1.609375 -7.0625 1.640625 -7.3125 C 1.671875 -7.570312 1.757812 -7.859375 1.90625 -8.171875 C 2.164062 -8.742188 2.53125 -9.253906 3 -9.703125 C 3.46875 -10.148438 3.960938 -10.453125 4.484375 -10.609375 Z M 4.484375 -10.609375 "/></g></g></g><g fill="#00423a" fill-opacity="1"><g transform="translate(208.989636, 20.841755)"><g><path d="M 5.0625 -9.953125 C 5.21875 -10.015625 5.582031 -10.046875 6.15625 -10.046875 C 7.457031 -10.046875 8.273438 -9.960938 8.609375 -9.796875 C 8.910156 -9.648438 9.0625 -9.425781 9.0625 -9.125 C 9.0625 -8.96875 9.003906 -8.84375 8.890625 -8.75 C 8.816406 -8.664062 8.6875 -8.625 8.5 -8.625 C 8.320312 -8.625 8.015625 -8.660156 7.578125 -8.734375 C 7.171875 -8.785156 6.835938 -8.8125 6.578125 -8.8125 C 5.828125 -8.8125 5.191406 -8.644531 4.671875 -8.3125 C 4.148438 -7.988281 3.691406 -7.476562 3.296875 -6.78125 C 3.109375 -6.4375 2.988281 -6.160156 2.9375 -5.953125 C 2.882812 -5.753906 2.859375 -5.472656 2.859375 -5.109375 C 2.859375 -4.460938 2.953125 -3.976562 3.140625 -3.65625 C 3.328125 -3.332031 3.671875 -3.039062 4.171875 -2.78125 C 4.804688 -2.46875 5.507812 -2.3125 6.28125 -2.3125 C 6.832031 -2.3125 7.351562 -2.394531 7.84375 -2.5625 C 8.226562 -2.695312 8.570312 -2.765625 8.875 -2.765625 L 8.953125 -2.765625 C 9.191406 -2.703125 9.3125 -2.515625 9.3125 -2.203125 C 9.3125 -2.035156 9.257812 -1.894531 9.15625 -1.78125 C 8.957031 -1.550781 8.570312 -1.367188 8 -1.234375 C 7.4375 -1.109375 6.828125 -1.046875 6.171875 -1.046875 C 5.378906 -1.046875 4.742188 -1.140625 4.265625 -1.328125 C 3.242188 -1.710938 2.566406 -2.21875 2.234375 -2.84375 C 1.804688 -3.664062 1.59375 -4.523438 1.59375 -5.421875 L 1.59375 -5.640625 C 1.65625 -6.535156 2.023438 -7.40625 2.703125 -8.25 C 3.378906 -9.09375 4.164062 -9.660156 5.0625 -9.953125 Z M 5.0625 -9.953125 "/></g></g></g><g fill="#00423a" fill-opacity="1"><g transform="translate(219.886351, 20.841755)"><g><path d="M 1.625 -13.90625 C 1.71875 -14.132812 1.890625 -14.25 2.140625 -14.25 C 2.316406 -14.25 2.441406 -14.234375 2.515625 -14.203125 C 2.597656 -14.171875 2.664062 -14.0625 2.71875 -13.875 C 2.769531 -13.695312 2.800781 -13.472656 2.8125 -13.203125 C 2.832031 -12.941406 2.84375 -12.515625 2.84375 -11.921875 C 2.84375 -10.785156 2.867188 -9.816406 2.921875 -9.015625 L 3.015625 -8.109375 L 3.390625 -8.546875 C 3.984375 -9.222656 4.847656 -9.5625 5.984375 -9.5625 C 7.003906 -9.5625 7.816406 -9.34375 8.421875 -8.90625 C 9.035156 -8.46875 9.519531 -7.765625 9.875 -6.796875 C 9.96875 -6.535156 10.046875 -5.976562 10.109375 -5.125 C 10.171875 -4.28125 10.203125 -3.457031 10.203125 -2.65625 C 10.203125 -1.675781 10.160156 -1.140625 10.078125 -1.046875 C 9.972656 -0.910156 9.804688 -0.84375 9.578125 -0.84375 C 9.378906 -0.84375 9.238281 -0.898438 9.15625 -1.015625 C 9.070312 -1.160156 9.003906 -1.957031 8.953125 -3.40625 C 8.921875 -4.59375 8.847656 -5.445312 8.734375 -5.96875 C 8.628906 -6.5 8.425781 -6.96875 8.125 -7.375 C 7.625 -8.007812 6.925781 -8.328125 6.03125 -8.328125 C 5.320312 -8.328125 4.757812 -8.109375 4.34375 -7.671875 C 3.644531 -6.898438 3.203125 -5.171875 3.015625 -2.484375 C 2.960938 -1.765625 2.890625 -1.289062 2.796875 -1.0625 C 2.710938 -0.832031 2.554688 -0.71875 2.328125 -0.71875 C 2.128906 -0.726562 2 -0.789062 1.9375 -0.90625 C 1.832031 -1.164062 1.757812 -2.421875 1.71875 -4.671875 C 1.71875 -5.003906 1.707031 -5.832031 1.6875 -7.15625 C 1.632812 -11.3125 1.59375 -13.410156 1.5625 -13.453125 C 1.507812 -13.535156 1.53125 -13.6875 1.625 -13.90625 Z M 1.625 -13.90625 "/></g></g></g><g fill="#00423a" fill-opacity="1"><g transform="translate(61.311821, 43.330642)"><g><path d="M 5.109375 -11.8125 C 5.660156 -11.9375 6.296875 -12 7.015625 -12 C 7.734375 -12 8.195312 -11.9375 8.40625 -11.8125 C 8.75 -11.632812 8.921875 -11.414062 8.921875 -11.15625 C 8.921875 -11 8.859375 -10.863281 8.734375 -10.75 C 8.609375 -10.644531 8.445312 -10.59375 8.25 -10.59375 C 8.070312 -10.59375 7.910156 -10.625 7.765625 -10.6875 C 7.597656 -10.75 7.367188 -10.78125 7.078125 -10.78125 C 6.515625 -10.78125 5.875 -10.679688 5.15625 -10.484375 C 4.445312 -10.285156 3.941406 -10.054688 3.640625 -9.796875 C 3.222656 -9.460938 3.015625 -9.125 3.015625 -8.78125 C 3.015625 -8.664062 3.046875 -8.535156 3.109375 -8.390625 C 3.296875 -7.953125 4.023438 -7.566406 5.296875 -7.234375 C 6.359375 -6.941406 7.289062 -6.59375 8.09375 -6.1875 C 8.90625 -5.78125 9.421875 -5.398438 9.640625 -5.046875 C 9.804688 -4.753906 9.890625 -4.4375 9.890625 -4.09375 C 9.890625 -3.34375 9.59375 -2.6875 9 -2.125 C 8.363281 -1.53125 7.390625 -1.144531 6.078125 -0.96875 C 5.671875 -0.894531 5.351562 -0.859375 5.125 -0.859375 C 4.882812 -0.859375 4.421875 -0.9375 3.734375 -1.09375 C 2.691406 -1.332031 2.066406 -1.503906 1.859375 -1.609375 C 1.660156 -1.710938 1.5625 -1.890625 1.5625 -2.140625 C 1.5625 -2.578125 1.738281 -2.796875 2.09375 -2.796875 C 2.238281 -2.796875 2.378906 -2.773438 2.515625 -2.734375 C 3.828125 -2.347656 4.78125 -2.15625 5.375 -2.15625 C 5.738281 -2.15625 6.179688 -2.226562 6.703125 -2.375 C 7.222656 -2.519531 7.675781 -2.765625 8.0625 -3.109375 C 8.445312 -3.460938 8.640625 -3.78125 8.640625 -4.0625 C 8.640625 -4.1875 8.609375 -4.285156 8.546875 -4.359375 C 8.367188 -4.566406 7.9375 -4.828125 7.25 -5.140625 C 6.5625 -5.460938 5.804688 -5.742188 4.984375 -5.984375 C 3.785156 -6.347656 3.039062 -6.632812 2.75 -6.84375 C 2.445312 -7.050781 2.207031 -7.332031 2.03125 -7.6875 C 1.863281 -8.050781 1.78125 -8.429688 1.78125 -8.828125 C 1.78125 -9.390625 1.9375 -9.863281 2.25 -10.25 C 2.507812 -10.570312 2.914062 -10.882812 3.46875 -11.1875 C 4.019531 -11.5 4.566406 -11.707031 5.109375 -11.8125 Z M 5.109375 -11.8125 "/></g></g></g><g fill="#00423a" fill-opacity="1"><g transform="translate(72.77244, 43.330642)"><g><path d="M 7.640625 -9.0625 C 7.242188 -9.144531 6.992188 -9.1875 6.890625 -9.1875 C 6.835938 -9.175781 6.59375 -9.140625 6.15625 -9.078125 C 5.75 -9.023438 5.40625 -8.921875 5.125 -8.765625 C 4.84375 -8.617188 4.488281 -8.351562 4.0625 -7.96875 C 3.21875 -7.1875 2.796875 -6.3125 2.796875 -5.34375 C 2.796875 -4.945312 2.859375 -4.582031 2.984375 -4.25 C 3.242188 -3.550781 3.671875 -3.007812 4.265625 -2.625 C 4.859375 -2.238281 5.519531 -2.046875 6.25 -2.046875 C 7.507812 -2.046875 8.523438 -2.53125 9.296875 -3.5 C 9.859375 -4.21875 10.140625 -5.078125 10.140625 -6.078125 C 10.140625 -6.492188 10.070312 -6.867188 9.9375 -7.203125 C 9.726562 -7.753906 9.445312 -8.164062 9.09375 -8.4375 C 8.75 -8.71875 8.265625 -8.925781 7.640625 -9.0625 Z M 5.46875 -10.21875 C 5.71875 -10.269531 6.101562 -10.296875 6.625 -10.296875 C 6.84375 -10.296875 7.007812 -10.289062 7.125 -10.28125 C 8.425781 -10.226562 9.445312 -9.828125 10.1875 -9.078125 C 10.9375 -8.335938 11.3125 -7.335938 11.3125 -6.078125 C 11.3125 -4.566406 10.828125 -3.3125 9.859375 -2.3125 C 8.898438 -1.320312 7.734375 -0.828125 6.359375 -0.828125 C 5.796875 -0.828125 5.242188 -0.914062 4.703125 -1.09375 C 3.734375 -1.40625 2.972656 -1.957031 2.421875 -2.75 C 1.867188 -3.539062 1.59375 -4.414062 1.59375 -5.375 C 1.59375 -6.726562 2.109375 -7.878906 3.140625 -8.828125 C 4.023438 -9.609375 4.800781 -10.070312 5.46875 -10.21875 Z M 5.46875 -10.21875 "/></g></g></g><g fill="#00423a" fill-opacity="1"><g transform="translate(85.65942, 43.330642)"><g><path d="M 1.703125 -13 C 1.835938 -13.070312 1.96875 -13.109375 2.09375 -13.109375 C 2.257812 -13.109375 2.398438 -13.046875 2.515625 -12.921875 C 2.648438 -12.796875 2.742188 -12.332031 2.796875 -11.53125 C 2.847656 -10.726562 2.875 -9.28125 2.875 -7.1875 L 2.875 -5.8125 C 2.863281 -3.425781 2.84375 -2.015625 2.8125 -1.578125 C 2.789062 -1.140625 2.71875 -0.890625 2.59375 -0.828125 C 2.5 -0.785156 2.398438 -0.765625 2.296875 -0.765625 C 2.203125 -0.765625 2.109375 -0.785156 2.015625 -0.828125 C 1.890625 -0.878906 1.8125 -0.941406 1.78125 -1.015625 C 1.695312 -1.234375 1.640625 -2.703125 1.609375 -5.421875 C 1.609375 -5.609375 1.601562 -6.394531 1.59375 -7.78125 C 1.570312 -10.84375 1.554688 -12.4375 1.546875 -12.5625 C 1.546875 -12.769531 1.597656 -12.914062 1.703125 -13 Z M 1.703125 -13 "/></g></g></g><g fill="#00423a" fill-opacity="1"><g transform="translate(90.071181, 43.330642)"><g><path d="M 8 -10.1875 C 8.15625 -10.300781 8.289062 -10.359375 8.40625 -10.359375 C 8.519531 -10.359375 8.65625 -10.300781 8.8125 -10.1875 C 8.9375 -10.101562 9.007812 -9.898438 9.03125 -9.578125 C 9.0625 -9.253906 9.082031 -8.421875 9.09375 -7.078125 C 9.09375 -5.148438 9.15625 -3.707031 9.28125 -2.75 C 9.332031 -2.195312 9.359375 -1.820312 9.359375 -1.625 C 9.359375 -1.332031 9.316406 -1.140625 9.234375 -1.046875 C 9.160156 -0.953125 9.019531 -0.90625 8.8125 -0.90625 C 8.601562 -0.90625 8.445312 -0.984375 8.34375 -1.140625 C 8.25 -1.304688 8.171875 -1.613281 8.109375 -2.0625 L 8.015625 -2.84375 L 7.671875 -2.3125 C 7.472656 -1.988281 7.164062 -1.675781 6.75 -1.375 C 6.5 -1.195312 6.285156 -1.085938 6.109375 -1.046875 C 5.929688 -1.003906 5.59375 -0.984375 5.09375 -0.984375 C 4.257812 -0.984375 3.597656 -1.101562 3.109375 -1.34375 C 2.617188 -1.59375 2.21875 -2.003906 1.90625 -2.578125 C 1.757812 -2.816406 1.671875 -3.128906 1.640625 -3.515625 C 1.617188 -3.898438 1.597656 -4.890625 1.578125 -6.484375 C 1.566406 -6.929688 1.5625 -7.492188 1.5625 -8.171875 C 1.5625 -9.046875 1.59375 -9.609375 1.65625 -9.859375 C 1.726562 -10.109375 1.867188 -10.234375 2.078125 -10.234375 C 2.085938 -10.234375 2.113281 -10.226562 2.15625 -10.21875 C 2.207031 -10.21875 2.242188 -10.21875 2.265625 -10.21875 L 2.6875 -10.171875 L 2.75 -6.90625 C 2.769531 -5.519531 2.800781 -4.601562 2.84375 -4.15625 C 2.882812 -3.71875 2.953125 -3.40625 3.046875 -3.21875 C 3.191406 -2.925781 3.378906 -2.710938 3.609375 -2.578125 C 3.835938 -2.441406 4.164062 -2.328125 4.59375 -2.234375 C 4.757812 -2.203125 4.925781 -2.1875 5.09375 -2.1875 C 5.550781 -2.1875 5.9375 -2.335938 6.25 -2.640625 C 6.570312 -2.941406 6.863281 -3.410156 7.125 -4.046875 C 7.332031 -4.585938 7.476562 -5.140625 7.5625 -5.703125 C 7.644531 -6.265625 7.695312 -7.054688 7.71875 -8.078125 C 7.738281 -8.960938 7.757812 -9.515625 7.78125 -9.734375 C 7.8125 -9.960938 7.882812 -10.113281 8 -10.1875 Z M 8 -10.1875 "/></g></g></g><g fill="#00423a" fill-opacity="1"><g transform="translate(100.984481, 43.330642)"><g><path d="M 4.21875 -11.953125 C 4.34375 -12.078125 4.488281 -12.140625 4.65625 -12.140625 C 4.832031 -12.140625 4.988281 -12.078125 5.125 -11.953125 C 5.226562 -11.835938 5.28125 -11.632812 5.28125 -11.34375 C 5.28125 -11.28125 5.269531 -11.082031 5.25 -10.75 L 5.15625 -9.75 L 6.375 -9.75 C 7 -9.75 7.40625 -9.710938 7.59375 -9.640625 C 7.78125 -9.578125 7.875 -9.414062 7.875 -9.15625 C 7.875 -8.757812 7.609375 -8.5625 7.078125 -8.5625 C 6.804688 -8.5625 6.414062 -8.53125 5.90625 -8.46875 L 5.171875 -8.375 L 5.234375 -5.96875 C 5.253906 -4.40625 5.347656 -3.4375 5.515625 -3.0625 C 5.773438 -2.5625 6.21875 -2.3125 6.84375 -2.3125 C 6.925781 -2.3125 7.078125 -2.320312 7.296875 -2.34375 C 7.523438 -2.363281 7.671875 -2.375 7.734375 -2.375 C 7.972656 -2.375 8.144531 -2.320312 8.25 -2.21875 C 8.351562 -2.125 8.40625 -1.96875 8.40625 -1.75 C 8.40625 -1.507812 8.285156 -1.320312 8.046875 -1.1875 C 7.816406 -1.0625 7.503906 -1 7.109375 -1 C 6.828125 -1 6.519531 -1.03125 6.1875 -1.09375 C 4.738281 -1.394531 4.015625 -2.585938 4.015625 -4.671875 C 4.015625 -5.273438 3.984375 -6.050781 3.921875 -7 L 3.828125 -8.296875 L 2.875 -8.296875 C 2.363281 -8.296875 2.023438 -8.332031 1.859375 -8.40625 C 1.691406 -8.488281 1.609375 -8.648438 1.609375 -8.890625 C 1.609375 -9.078125 1.6875 -9.234375 1.84375 -9.359375 C 2 -9.492188 2.203125 -9.566406 2.453125 -9.578125 C 2.609375 -9.585938 2.941406 -9.59375 3.453125 -9.59375 L 4.015625 -9.625 L 4.015625 -10.671875 C 4.015625 -11.398438 4.082031 -11.828125 4.21875 -11.953125 Z M 4.21875 -11.953125 "/></g></g></g><g fill="#00423a" fill-opacity="1"><g transform="translate(111.002164, 43.330642)"><g><path d="M 2.40625 -9.625 C 2.550781 -9.675781 2.695312 -9.703125 2.84375 -9.703125 C 3.0625 -9.703125 3.203125 -9.65625 3.265625 -9.5625 C 3.367188 -9.4375 3.503906 -7.367188 3.671875 -3.359375 C 3.691406 -2.515625 3.703125 -2.035156 3.703125 -1.921875 C 3.703125 -1.421875 3.644531 -1.125 3.53125 -1.03125 C 3.445312 -0.9375 3.316406 -0.890625 3.140625 -0.890625 C 2.878906 -0.890625 2.707031 -0.972656 2.625 -1.140625 C 2.5625 -1.265625 2.476562 -2.234375 2.375 -4.046875 C 2.28125 -5.859375 2.234375 -7.242188 2.234375 -8.203125 C 2.234375 -9.117188 2.289062 -9.59375 2.40625 -9.625 Z M 2.203125 -12.734375 C 2.460938 -12.859375 2.691406 -12.921875 2.890625 -12.921875 C 3.128906 -12.921875 3.328125 -12.835938 3.484375 -12.671875 C 3.640625 -12.515625 3.71875 -12.3125 3.71875 -12.0625 C 3.71875 -11.84375 3.648438 -11.597656 3.515625 -11.328125 C 3.410156 -11.117188 3.285156 -10.972656 3.140625 -10.890625 C 2.992188 -10.816406 2.773438 -10.78125 2.484375 -10.78125 C 2.203125 -10.78125 1.976562 -10.867188 1.8125 -11.046875 C 1.65625 -11.222656 1.578125 -11.441406 1.578125 -11.703125 C 1.578125 -12.160156 1.785156 -12.503906 2.203125 -12.734375 Z M 2.203125 -12.734375 "/></g></g></g><g fill="#00423a" fill-opacity="1"><g transform="translate(116.259785, 43.330642)"><g><path d="M 7.640625 -9.0625 C 7.242188 -9.144531 6.992188 -9.1875 6.890625 -9.1875 C 6.835938 -9.175781 6.59375 -9.140625 6.15625 -9.078125 C 5.75 -9.023438 5.40625 -8.921875 5.125 -8.765625 C 4.84375 -8.617188 4.488281 -8.351562 4.0625 -7.96875 C 3.21875 -7.1875 2.796875 -6.3125 2.796875 -5.34375 C 2.796875 -4.945312 2.859375 -4.582031 2.984375 -4.25 C 3.242188 -3.550781 3.671875 -3.007812 4.265625 -2.625 C 4.859375 -2.238281 5.519531 -2.046875 6.25 -2.046875 C 7.507812 -2.046875 8.523438 -2.53125 9.296875 -3.5 C 9.859375 -4.21875 10.140625 -5.078125 10.140625 -6.078125 C 10.140625 -6.492188 10.070312 -6.867188 9.9375 -7.203125 C 9.726562 -7.753906 9.445312 -8.164062 9.09375 -8.4375 C 8.75 -8.71875 8.265625 -8.925781 7.640625 -9.0625 Z M 5.46875 -10.21875 C 5.71875 -10.269531 6.101562 -10.296875 6.625 -10.296875 C 6.84375 -10.296875 7.007812 -10.289062 7.125 -10.28125 C 8.425781 -10.226562 9.445312 -9.828125 10.1875 -9.078125 C 10.9375 -8.335938 11.3125 -7.335938 11.3125 -6.078125 C 11.3125 -4.566406 10.828125 -3.3125 9.859375 -2.3125 C 8.898438 -1.320312 7.734375 -0.828125 6.359375 -0.828125 C 5.796875 -0.828125 5.242188 -0.914062 4.703125 -1.09375 C 3.734375 -1.40625 2.972656 -1.957031 2.421875 -2.75 C 1.867188 -3.539062 1.59375 -4.414062 1.59375 -5.375 C 1.59375 -6.726562 2.109375 -7.878906 3.140625 -8.828125 C 4.023438 -9.609375 4.800781 -10.070312 5.46875 -10.21875 Z M 5.46875 -10.21875 "/></g></g></g><g fill="#00423a" fill-opacity="1"><g transform="translate(129.146766, 43.330642)"><g><path d="M 5.640625 -10.359375 C 5.878906 -10.410156 6.117188 -10.4375 6.359375 -10.4375 C 6.578125 -10.4375 6.828125 -10.398438 7.109375 -10.328125 C 7.648438 -10.179688 8.15625 -9.867188 8.625 -9.390625 C 9.09375 -8.910156 9.445312 -8.347656 9.6875 -7.703125 C 9.84375 -7.328125 9.945312 -6.15625 10 -4.1875 C 10.039062 -3.21875 10.0625 -2.523438 10.0625 -2.109375 C 10.0625 -1.515625 10.003906 -1.160156 9.890625 -1.046875 C 9.742188 -0.921875 9.617188 -0.859375 9.515625 -0.859375 C 9.410156 -0.859375 9.285156 -0.910156 9.140625 -1.015625 C 9.035156 -1.085938 8.96875 -1.28125 8.9375 -1.59375 C 8.90625 -1.914062 8.867188 -2.742188 8.828125 -4.078125 L 8.734375 -6.984375 L 8.359375 -7.6875 C 7.796875 -8.6875 7.125 -9.1875 6.34375 -9.1875 C 5.84375 -9.1875 5.367188 -8.972656 4.921875 -8.546875 C 4.484375 -8.128906 4.128906 -7.523438 3.859375 -6.734375 C 3.679688 -6.234375 3.535156 -5.585938 3.421875 -4.796875 C 3.316406 -4.015625 3.265625 -3.296875 3.265625 -2.640625 L 3.265625 -1.84375 C 3.265625 -1.4375 3.234375 -1.164062 3.171875 -1.03125 C 3.117188 -0.90625 2.992188 -0.84375 2.796875 -0.84375 C 2.578125 -0.84375 2.421875 -0.929688 2.328125 -1.109375 C 2.234375 -1.296875 2.15625 -1.675781 2.09375 -2.25 C 2.007812 -2.96875 1.925781 -3.394531 1.84375 -3.53125 C 1.75 -3.6875 1.671875 -4.789062 1.609375 -6.84375 C 1.566406 -7.84375 1.546875 -8.617188 1.546875 -9.171875 C 1.546875 -9.679688 1.59375 -10 1.6875 -10.125 C 1.8125 -10.269531 1.957031 -10.34375 2.125 -10.34375 C 2.28125 -10.34375 2.414062 -10.273438 2.53125 -10.140625 C 2.664062 -10.003906 2.734375 -9.507812 2.734375 -8.65625 L 2.734375 -7.375 L 3.171875 -8.1875 C 3.867188 -9.445312 4.691406 -10.171875 5.640625 -10.359375 Z M 5.640625 -10.359375 "/></g></g></g><g fill="#00423a" fill-opacity="1"><g transform="translate(140.740071, 43.330642)"><g><path d="M 4.375 -10.8125 C 4.800781 -10.957031 5.320312 -11.03125 5.9375 -11.03125 C 6.738281 -11.03125 7.351562 -10.925781 7.78125 -10.71875 C 8.164062 -10.539062 8.421875 -10.382812 8.546875 -10.25 C 8.679688 -10.125 8.75 -9.945312 8.75 -9.71875 L 8.75 -9.5625 C 8.726562 -9.375 8.691406 -9.25 8.640625 -9.1875 C 8.585938 -9.125 8.476562 -9.085938 8.3125 -9.078125 L 8.21875 -9.078125 C 7.976562 -9.078125 7.789062 -9.148438 7.65625 -9.296875 C 7.269531 -9.660156 6.753906 -9.84375 6.109375 -9.84375 C 5.503906 -9.84375 4.957031 -9.6875 4.46875 -9.375 C 3.976562 -9.0625 3.695312 -8.664062 3.625 -8.1875 C 3.601562 -8.125 3.59375 -8.039062 3.59375 -7.9375 C 3.59375 -7.664062 3.71875 -7.445312 3.96875 -7.28125 C 4.226562 -7.125 4.796875 -6.890625 5.671875 -6.578125 C 6.734375 -6.210938 7.429688 -5.894531 7.765625 -5.625 C 8.335938 -5.15625 8.625 -4.523438 8.625 -3.734375 C 8.625 -2.878906 8.3125 -2.1875 7.6875 -1.65625 C 7.363281 -1.394531 6.9375 -1.1875 6.40625 -1.03125 C 5.882812 -0.875 5.34375 -0.796875 4.78125 -0.796875 C 4.144531 -0.796875 3.609375 -0.890625 3.171875 -1.078125 C 2.796875 -1.242188 2.4375 -1.492188 2.09375 -1.828125 C 1.75 -2.160156 1.578125 -2.429688 1.578125 -2.640625 C 1.578125 -3.078125 1.734375 -3.296875 2.046875 -3.296875 C 2.273438 -3.296875 2.550781 -3.148438 2.875 -2.859375 C 3.207031 -2.566406 3.46875 -2.367188 3.65625 -2.265625 C 3.84375 -2.171875 4.113281 -2.101562 4.46875 -2.0625 C 4.6875 -2.039062 4.84375 -2.03125 4.9375 -2.03125 C 5.582031 -2.03125 6.132812 -2.191406 6.59375 -2.515625 C 7.0625 -2.835938 7.296875 -3.234375 7.296875 -3.703125 C 7.296875 -4.117188 7.144531 -4.445312 6.84375 -4.6875 C 6.539062 -4.925781 5.941406 -5.175781 5.046875 -5.4375 C 4.378906 -5.632812 3.875 -5.816406 3.53125 -5.984375 C 3.195312 -6.160156 2.929688 -6.378906 2.734375 -6.640625 C 2.441406 -7.003906 2.296875 -7.425781 2.296875 -7.90625 C 2.296875 -8.125 2.328125 -8.375 2.390625 -8.65625 C 2.515625 -9.101562 2.769531 -9.539062 3.15625 -9.96875 C 3.539062 -10.394531 3.945312 -10.675781 4.375 -10.8125 Z M 4.375 -10.8125 "/></g></g></g></svg>