<svg xmlns="http://www.w3.org/2000/svg" xmlns:xlink="http://www.w3.org/1999/xlink" width="500" zoomAndPan="magnify" viewBox="0 0 375 374.999991" height="500" preserveAspectRatio="xMidYMid meet" version="1.0"><defs><g/><clipPath id="9358467d15"><path d="M 29.085938 91.949219 L 337.488281 91.949219 L 337.488281 186.730469 L 29.085938 186.730469 Z M 29.085938 91.949219 " clip-rule="nonzero"/></clipPath><clipPath id="7a4f9fad56"><path d="M 46.335938 91.949219 L 320.25 91.949219 C 324.824219 91.949219 329.210938 93.769531 332.449219 97.003906 C 335.683594 100.238281 337.5 104.625 337.5 109.199219 L 337.5 169.480469 C 337.5 174.054688 335.683594 178.441406 332.449219 181.675781 C 329.210938 184.914062 324.824219 186.730469 320.25 186.730469 L 46.335938 186.730469 C 41.761719 186.730469 37.375 184.914062 34.136719 181.675781 C 30.902344 178.441406 29.085938 174.054688 29.085938 169.480469 L 29.085938 109.199219 C 29.085938 104.625 30.902344 100.238281 34.136719 97.003906 C 37.375 93.769531 41.761719 91.949219 46.335938 91.949219 Z M 46.335938 91.949219 " clip-rule="nonzero"/></clipPath><radialGradient gradientTransform="matrix(1, 0, 0, 1, 29.085716, 91.950618)" gradientUnits="userSpaceOnUse" r="322.644481" cx="0" id="46274cf94c" cy="0" fx="0" fy="0"><stop stop-opacity="1" stop-color="rgb(0.172424%, 99.804688%, 67.163086%)" offset="0"/><stop stop-opacity="1" stop-color="rgb(0.520325%, 99.414062%, 67.29126%)" offset="0.00390625"/><stop stop-opacity="1" stop-color="rgb(0.868225%, 99.023438%, 67.420959%)" offset="0.0078125"/><stop stop-opacity="1" stop-color="rgb(1.216125%, 98.632812%, 67.549133%)" offset="0.0117188"/><stop stop-opacity="1" stop-color="rgb(1.564026%, 98.242188%, 67.677307%)" offset="0.015625"/><stop stop-opacity="1" stop-color="rgb(1.911926%, 97.851562%, 67.805481%)" offset="0.0195312"/><stop stop-opacity="1" stop-color="rgb(2.258301%, 97.460938%, 67.935181%)" offset="0.0234375"/><stop stop-opacity="1" stop-color="rgb(2.606201%, 97.070312%, 68.063354%)" offset="0.0273438"/><stop stop-opacity="1" stop-color="rgb(2.954102%, 96.679688%, 68.191528%)" offset="0.03125"/><stop stop-opacity="1" stop-color="rgb(3.302002%, 96.289062%, 68.319702%)" offset="0.0351562"/><stop stop-opacity="1" stop-color="rgb(3.649902%, 95.898438%, 68.447876%)" offset="0.0390625"/><stop stop-opacity="1" stop-color="rgb(3.997803%, 95.507812%, 68.577576%)" offset="0.0429688"/><stop stop-opacity="1" stop-color="rgb(4.344177%, 95.117188%, 68.70575%)" offset="0.046875"/><stop stop-opacity="1" stop-color="rgb(4.692078%, 94.726562%, 68.833923%)" offset="0.0507812"/><stop stop-opacity="1" stop-color="rgb(5.039978%, 94.335938%, 68.962097%)" offset="0.0546875"/><stop stop-opacity="1" stop-color="rgb(5.387878%, 93.945312%, 69.091797%)" offset="0.0585938"/><stop stop-opacity="1" stop-color="rgb(5.735779%, 93.554688%, 69.219971%)" offset="0.0625"/><stop stop-opacity="1" stop-color="rgb(6.083679%, 93.164062%, 69.348145%)" offset="0.0664062"/><stop stop-opacity="1" stop-color="rgb(6.430054%, 92.773438%, 69.476318%)" offset="0.0703125"/><stop stop-opacity="1" stop-color="rgb(6.777954%, 92.382812%, 69.604492%)" offset="0.0742188"/><stop stop-opacity="1" stop-color="rgb(7.125854%, 91.992188%, 69.734192%)" offset="0.078125"/><stop stop-opacity="1" stop-color="rgb(7.473755%, 91.601562%, 69.862366%)" offset="0.0820312"/><stop stop-opacity="1" stop-color="rgb(7.821655%, 91.210938%, 69.99054%)" offset="0.0859375"/><stop stop-opacity="1" stop-color="rgb(8.169556%, 90.820312%, 70.118713%)" offset="0.0898438"/><stop stop-opacity="1" stop-color="rgb(8.517456%, 90.429688%, 70.248413%)" offset="0.09375"/><stop stop-opacity="1" stop-color="rgb(8.863831%, 90.039062%, 70.376587%)" offset="0.0976562"/><stop stop-opacity="1" stop-color="rgb(9.211731%, 89.648438%, 70.504761%)" offset="0.101562"/><stop stop-opacity="1" stop-color="rgb(9.559631%, 89.257812%, 70.632935%)" offset="0.105469"/><stop stop-opacity="1" stop-color="rgb(9.907532%, 88.867188%, 70.761108%)" offset="0.109375"/><stop stop-opacity="1" stop-color="rgb(10.255432%, 88.476562%, 70.890808%)" offset="0.113281"/><stop stop-opacity="1" stop-color="rgb(10.603333%, 88.085938%, 71.018982%)" offset="0.117188"/><stop stop-opacity="1" stop-color="rgb(10.949707%, 87.695312%, 71.147156%)" offset="0.121094"/><stop stop-opacity="1" stop-color="rgb(11.297607%, 87.304688%, 71.27533%)" offset="0.125"/><stop stop-opacity="1" stop-color="rgb(11.645508%, 86.914062%, 71.405029%)" offset="0.128906"/><stop stop-opacity="1" stop-color="rgb(11.993408%, 86.523438%, 71.533203%)" offset="0.132812"/><stop stop-opacity="1" stop-color="rgb(12.341309%, 86.132812%, 71.661377%)" offset="0.136719"/><stop stop-opacity="1" stop-color="rgb(12.689209%, 85.742188%, 71.789551%)" offset="0.140625"/><stop stop-opacity="1" stop-color="rgb(13.035583%, 85.351562%, 71.917725%)" offset="0.144531"/><stop stop-opacity="1" stop-color="rgb(13.383484%, 84.960938%, 72.047424%)" offset="0.148438"/><stop stop-opacity="1" stop-color="rgb(13.731384%, 84.570312%, 72.175598%)" offset="0.152344"/><stop stop-opacity="1" stop-color="rgb(14.079285%, 84.179688%, 72.303772%)" offset="0.15625"/><stop stop-opacity="1" stop-color="rgb(14.427185%, 83.789062%, 72.431946%)" offset="0.160156"/><stop stop-opacity="1" stop-color="rgb(14.775085%, 83.398438%, 72.561646%)" offset="0.164062"/><stop stop-opacity="1" stop-color="rgb(15.12146%, 83.007812%, 72.689819%)" offset="0.167969"/><stop stop-opacity="1" stop-color="rgb(15.46936%, 82.617188%, 72.817993%)" offset="0.171875"/><stop stop-opacity="1" stop-color="rgb(15.817261%, 82.226562%, 72.946167%)" offset="0.175781"/><stop stop-opacity="1" stop-color="rgb(16.165161%, 81.835938%, 73.074341%)" offset="0.179688"/><stop stop-opacity="1" stop-color="rgb(16.513062%, 81.445312%, 73.204041%)" offset="0.183594"/><stop stop-opacity="1" stop-color="rgb(16.860962%, 81.054688%, 73.332214%)" offset="0.1875"/><stop stop-opacity="1" stop-color="rgb(17.208862%, 80.664062%, 73.460388%)" offset="0.191406"/><stop stop-opacity="1" stop-color="rgb(17.555237%, 80.273438%, 73.588562%)" offset="0.195312"/><stop stop-opacity="1" stop-color="rgb(17.903137%, 79.882812%, 73.718262%)" offset="0.199219"/><stop stop-opacity="1" stop-color="rgb(18.251038%, 79.492188%, 73.846436%)" offset="0.203125"/><stop stop-opacity="1" stop-color="rgb(18.598938%, 79.101562%, 73.974609%)" offset="0.207031"/><stop stop-opacity="1" stop-color="rgb(18.946838%, 78.710938%, 74.102783%)" offset="0.210938"/><stop stop-opacity="1" stop-color="rgb(19.294739%, 78.320312%, 74.230957%)" offset="0.214844"/><stop stop-opacity="1" stop-color="rgb(19.641113%, 77.929688%, 74.360657%)" offset="0.21875"/><stop stop-opacity="1" stop-color="rgb(19.989014%, 77.539062%, 74.488831%)" offset="0.222656"/><stop stop-opacity="1" stop-color="rgb(20.336914%, 77.148438%, 74.617004%)" offset="0.226562"/><stop stop-opacity="1" stop-color="rgb(20.684814%, 76.757812%, 74.745178%)" offset="0.230469"/><stop stop-opacity="1" stop-color="rgb(21.032715%, 76.367188%, 74.874878%)" offset="0.234375"/><stop stop-opacity="1" stop-color="rgb(21.380615%, 75.976562%, 75.003052%)" offset="0.238281"/><stop stop-opacity="1" stop-color="rgb(21.72699%, 75.585938%, 75.131226%)" offset="0.242188"/><stop stop-opacity="1" stop-color="rgb(22.07489%, 75.195312%, 75.259399%)" offset="0.246094"/><stop stop-opacity="1" stop-color="rgb(22.422791%, 74.804688%, 75.387573%)" offset="0.25"/><stop stop-opacity="1" stop-color="rgb(22.770691%, 74.414062%, 75.517273%)" offset="0.253906"/><stop stop-opacity="1" stop-color="rgb(23.118591%, 74.023438%, 75.645447%)" offset="0.257812"/><stop stop-opacity="1" stop-color="rgb(23.466492%, 73.632812%, 75.773621%)" offset="0.261719"/><stop stop-opacity="1" stop-color="rgb(23.812866%, 73.242188%, 75.901794%)" offset="0.265625"/><stop stop-opacity="1" stop-color="rgb(24.160767%, 72.851562%, 76.031494%)" offset="0.269531"/><stop stop-opacity="1" stop-color="rgb(24.508667%, 72.460938%, 76.159668%)" offset="0.273438"/><stop stop-opacity="1" stop-color="rgb(24.856567%, 72.070312%, 76.287842%)" offset="0.277344"/><stop stop-opacity="1" stop-color="rgb(25.204468%, 71.679688%, 76.416016%)" offset="0.28125"/><stop stop-opacity="1" stop-color="rgb(25.552368%, 71.289062%, 76.545715%)" offset="0.285156"/><stop stop-opacity="1" stop-color="rgb(25.900269%, 70.898438%, 76.673889%)" offset="0.289062"/><stop stop-opacity="1" stop-color="rgb(26.246643%, 70.507812%, 76.802063%)" offset="0.292969"/><stop stop-opacity="1" stop-color="rgb(26.594543%, 70.117188%, 76.930237%)" offset="0.296875"/><stop stop-opacity="1" stop-color="rgb(26.942444%, 69.726562%, 77.058411%)" offset="0.300781"/><stop stop-opacity="1" stop-color="rgb(27.290344%, 69.335938%, 77.18811%)" offset="0.304688"/><stop stop-opacity="1" stop-color="rgb(27.638245%, 68.945312%, 77.316284%)" offset="0.308594"/><stop stop-opacity="1" stop-color="rgb(27.986145%, 68.554688%, 77.444458%)" offset="0.3125"/><stop stop-opacity="1" stop-color="rgb(28.33252%, 68.164062%, 77.572632%)" offset="0.316406"/><stop stop-opacity="1" stop-color="rgb(28.68042%, 67.773438%, 77.702332%)" offset="0.320312"/><stop stop-opacity="1" stop-color="rgb(29.02832%, 67.382812%, 77.830505%)" offset="0.324219"/><stop stop-opacity="1" stop-color="rgb(29.376221%, 66.992188%, 77.958679%)" offset="0.328125"/><stop stop-opacity="1" stop-color="rgb(29.724121%, 66.601562%, 78.086853%)" offset="0.332031"/><stop stop-opacity="1" stop-color="rgb(30.072021%, 66.210938%, 78.215027%)" offset="0.335938"/><stop stop-opacity="1" stop-color="rgb(30.418396%, 65.820312%, 78.344727%)" offset="0.339844"/><stop stop-opacity="1" stop-color="rgb(30.766296%, 65.429688%, 78.4729%)" offset="0.34375"/><stop stop-opacity="1" stop-color="rgb(31.114197%, 65.039062%, 78.601074%)" offset="0.347656"/><stop stop-opacity="1" stop-color="rgb(31.462097%, 64.648438%, 78.729248%)" offset="0.351562"/><stop stop-opacity="1" stop-color="rgb(31.809998%, 64.257812%, 78.858948%)" offset="0.355469"/><stop stop-opacity="1" stop-color="rgb(32.157898%, 63.867188%, 78.987122%)" offset="0.359375"/><stop stop-opacity="1" stop-color="rgb(32.504272%, 63.476562%, 79.115295%)" offset="0.363281"/><stop stop-opacity="1" stop-color="rgb(32.852173%, 63.085938%, 79.243469%)" offset="0.367188"/><stop stop-opacity="1" stop-color="rgb(33.200073%, 62.695312%, 79.371643%)" offset="0.371094"/><stop stop-opacity="1" stop-color="rgb(33.547974%, 62.304688%, 79.501343%)" offset="0.375"/><stop stop-opacity="1" stop-color="rgb(33.895874%, 61.914062%, 79.629517%)" offset="0.378906"/><stop stop-opacity="1" stop-color="rgb(34.243774%, 61.523438%, 79.75769%)" offset="0.382812"/><stop stop-opacity="1" stop-color="rgb(34.591675%, 61.132812%, 79.885864%)" offset="0.386719"/><stop stop-opacity="1" stop-color="rgb(34.938049%, 60.742188%, 80.015564%)" offset="0.390625"/><stop stop-opacity="1" stop-color="rgb(35.28595%, 60.351562%, 80.143738%)" offset="0.394531"/><stop stop-opacity="1" stop-color="rgb(35.63385%, 59.960938%, 80.271912%)" offset="0.398438"/><stop stop-opacity="1" stop-color="rgb(35.98175%, 59.570312%, 80.400085%)" offset="0.402344"/><stop stop-opacity="1" stop-color="rgb(36.329651%, 59.179688%, 80.528259%)" offset="0.40625"/><stop stop-opacity="1" stop-color="rgb(36.677551%, 58.789062%, 80.657959%)" offset="0.410156"/><stop stop-opacity="1" stop-color="rgb(37.023926%, 58.398438%, 80.786133%)" offset="0.414062"/><stop stop-opacity="1" stop-color="rgb(37.371826%, 58.007812%, 80.914307%)" offset="0.417969"/><stop stop-opacity="1" stop-color="rgb(37.719727%, 57.617188%, 81.04248%)" offset="0.421875"/><stop stop-opacity="1" stop-color="rgb(38.067627%, 57.226562%, 81.17218%)" offset="0.425781"/><stop stop-opacity="1" stop-color="rgb(38.415527%, 56.835938%, 81.300354%)" offset="0.429688"/><stop stop-opacity="1" stop-color="rgb(38.763428%, 56.445312%, 81.428528%)" offset="0.433594"/><stop stop-opacity="1" stop-color="rgb(39.109802%, 56.054688%, 81.556702%)" offset="0.4375"/><stop stop-opacity="1" stop-color="rgb(39.457703%, 55.664062%, 81.684875%)" offset="0.441406"/><stop stop-opacity="1" stop-color="rgb(39.805603%, 55.273438%, 81.814575%)" offset="0.445312"/><stop stop-opacity="1" stop-color="rgb(40.153503%, 54.882812%, 81.942749%)" offset="0.449219"/><stop stop-opacity="1" stop-color="rgb(40.501404%, 54.492188%, 82.070923%)" offset="0.453125"/><stop stop-opacity="1" stop-color="rgb(40.849304%, 54.101562%, 82.199097%)" offset="0.457031"/><stop stop-opacity="1" stop-color="rgb(41.195679%, 53.710938%, 82.328796%)" offset="0.460938"/><stop stop-opacity="1" stop-color="rgb(41.543579%, 53.320312%, 82.45697%)" offset="0.464844"/><stop stop-opacity="1" stop-color="rgb(41.891479%, 52.929688%, 82.585144%)" offset="0.46875"/><stop stop-opacity="1" stop-color="rgb(42.23938%, 52.539062%, 82.713318%)" offset="0.472656"/><stop stop-opacity="1" stop-color="rgb(42.58728%, 52.148438%, 82.841492%)" offset="0.476562"/><stop stop-opacity="1" stop-color="rgb(42.935181%, 51.757812%, 82.971191%)" offset="0.480469"/><stop stop-opacity="1" stop-color="rgb(43.283081%, 51.367188%, 83.099365%)" offset="0.484375"/><stop stop-opacity="1" stop-color="rgb(43.629456%, 50.976562%, 83.227539%)" offset="0.488281"/><stop stop-opacity="1" stop-color="rgb(43.977356%, 50.585938%, 83.355713%)" offset="0.492188"/><stop stop-opacity="1" stop-color="rgb(44.325256%, 50.195312%, 83.485413%)" offset="0.496094"/><stop stop-opacity="1" stop-color="rgb(44.673157%, 49.804688%, 83.613586%)" offset="0.5"/><stop stop-opacity="1" stop-color="rgb(45.021057%, 49.414062%, 83.74176%)" offset="0.503906"/><stop stop-opacity="1" stop-color="rgb(45.368958%, 49.023438%, 83.869934%)" offset="0.507812"/><stop stop-opacity="1" stop-color="rgb(45.715332%, 48.632812%, 83.999634%)" offset="0.511719"/><stop stop-opacity="1" stop-color="rgb(46.063232%, 48.242188%, 84.127808%)" offset="0.515625"/><stop stop-opacity="1" stop-color="rgb(46.411133%, 47.851562%, 84.255981%)" offset="0.519531"/><stop stop-opacity="1" stop-color="rgb(46.759033%, 47.460938%, 84.384155%)" offset="0.523438"/><stop stop-opacity="1" stop-color="rgb(47.106934%, 47.070312%, 84.512329%)" offset="0.527344"/><stop stop-opacity="1" stop-color="rgb(47.454834%, 46.679688%, 84.642029%)" offset="0.53125"/><stop stop-opacity="1" stop-color="rgb(47.801208%, 46.289062%, 84.770203%)" offset="0.535156"/><stop stop-opacity="1" stop-color="rgb(48.149109%, 45.898438%, 84.898376%)" offset="0.539062"/><stop stop-opacity="1" stop-color="rgb(48.497009%, 45.507812%, 85.02655%)" offset="0.542969"/><stop stop-opacity="1" stop-color="rgb(48.84491%, 45.117188%, 85.15625%)" offset="0.546875"/><stop stop-opacity="1" stop-color="rgb(49.19281%, 44.726562%, 85.284424%)" offset="0.550781"/><stop stop-opacity="1" stop-color="rgb(49.54071%, 44.335938%, 85.412598%)" offset="0.554688"/><stop stop-opacity="1" stop-color="rgb(49.887085%, 43.945312%, 85.540771%)" offset="0.558594"/><stop stop-opacity="1" stop-color="rgb(50.234985%, 43.554688%, 85.668945%)" offset="0.5625"/><stop stop-opacity="1" stop-color="rgb(50.582886%, 43.164062%, 85.798645%)" offset="0.566406"/><stop stop-opacity="1" stop-color="rgb(50.930786%, 42.773438%, 85.926819%)" offset="0.570312"/><stop stop-opacity="1" stop-color="rgb(51.278687%, 42.382812%, 86.054993%)" offset="0.574219"/><stop stop-opacity="1" stop-color="rgb(51.626587%, 41.992188%, 86.183167%)" offset="0.578125"/><stop stop-opacity="1" stop-color="rgb(51.974487%, 41.601562%, 86.312866%)" offset="0.582031"/><stop stop-opacity="1" stop-color="rgb(52.320862%, 41.210938%, 86.44104%)" offset="0.585938"/><stop stop-opacity="1" stop-color="rgb(52.668762%, 40.820312%, 86.569214%)" offset="0.589844"/><stop stop-opacity="1" stop-color="rgb(53.016663%, 40.429688%, 86.697388%)" offset="0.59375"/><stop stop-opacity="1" stop-color="rgb(53.364563%, 40.039062%, 86.825562%)" offset="0.597656"/><stop stop-opacity="1" stop-color="rgb(53.712463%, 39.648438%, 86.955261%)" offset="0.601562"/><stop stop-opacity="1" stop-color="rgb(54.060364%, 39.257812%, 87.083435%)" offset="0.605469"/><stop stop-opacity="1" stop-color="rgb(54.406738%, 38.867188%, 87.211609%)" offset="0.609375"/><stop stop-opacity="1" stop-color="rgb(54.754639%, 38.476562%, 87.339783%)" offset="0.613281"/><stop stop-opacity="1" stop-color="rgb(55.102539%, 38.085938%, 87.469482%)" offset="0.617188"/><stop stop-opacity="1" stop-color="rgb(55.450439%, 37.695312%, 87.597656%)" offset="0.621094"/><stop stop-opacity="1" stop-color="rgb(55.79834%, 37.304688%, 87.72583%)" offset="0.625"/><stop stop-opacity="1" stop-color="rgb(56.14624%, 36.914062%, 87.854004%)" offset="0.628906"/><stop stop-opacity="1" stop-color="rgb(56.492615%, 36.523438%, 87.982178%)" offset="0.632812"/><stop stop-opacity="1" stop-color="rgb(56.840515%, 36.132812%, 88.111877%)" offset="0.636719"/><stop stop-opacity="1" stop-color="rgb(57.188416%, 35.742188%, 88.240051%)" offset="0.640625"/><stop stop-opacity="1" stop-color="rgb(57.536316%, 35.351562%, 88.368225%)" offset="0.644531"/><stop stop-opacity="1" stop-color="rgb(57.884216%, 34.960938%, 88.496399%)" offset="0.648438"/><stop stop-opacity="1" stop-color="rgb(58.232117%, 34.570312%, 88.626099%)" offset="0.652344"/><stop stop-opacity="1" stop-color="rgb(58.578491%, 34.179688%, 88.754272%)" offset="0.65625"/><stop stop-opacity="1" stop-color="rgb(58.926392%, 33.789062%, 88.882446%)" offset="0.660156"/><stop stop-opacity="1" stop-color="rgb(59.274292%, 33.398438%, 89.01062%)" offset="0.664062"/><stop stop-opacity="1" stop-color="rgb(59.622192%, 33.007812%, 89.138794%)" offset="0.667969"/><stop stop-opacity="1" stop-color="rgb(59.970093%, 32.617188%, 89.268494%)" offset="0.671875"/><stop stop-opacity="1" stop-color="rgb(60.317993%, 32.226562%, 89.396667%)" offset="0.675781"/><stop stop-opacity="1" stop-color="rgb(60.665894%, 31.835938%, 89.524841%)" offset="0.679688"/><stop stop-opacity="1" stop-color="rgb(61.012268%, 31.445312%, 89.653015%)" offset="0.683594"/><stop stop-opacity="1" stop-color="rgb(61.360168%, 31.054688%, 89.782715%)" offset="0.6875"/><stop stop-opacity="1" stop-color="rgb(61.708069%, 30.664062%, 89.910889%)" offset="0.691406"/><stop stop-opacity="1" stop-color="rgb(62.055969%, 30.273438%, 90.039062%)" offset="0.695312"/><stop stop-opacity="1" stop-color="rgb(62.40387%, 29.882812%, 90.167236%)" offset="0.699219"/><stop stop-opacity="1" stop-color="rgb(62.75177%, 29.492188%, 90.29541%)" offset="0.703125"/><stop stop-opacity="1" stop-color="rgb(63.098145%, 29.101562%, 90.42511%)" offset="0.707031"/><stop stop-opacity="1" stop-color="rgb(63.446045%, 28.710938%, 90.553284%)" offset="0.710938"/><stop stop-opacity="1" stop-color="rgb(63.793945%, 28.320312%, 90.681458%)" offset="0.714844"/><stop stop-opacity="1" stop-color="rgb(64.141846%, 27.929688%, 90.809631%)" offset="0.71875"/><stop stop-opacity="1" stop-color="rgb(64.489746%, 27.539062%, 90.939331%)" offset="0.722656"/><stop stop-opacity="1" stop-color="rgb(64.837646%, 27.148438%, 91.067505%)" offset="0.726562"/><stop stop-opacity="1" stop-color="rgb(65.184021%, 26.757812%, 91.195679%)" offset="0.730469"/><stop stop-opacity="1" stop-color="rgb(65.531921%, 26.367188%, 91.323853%)" offset="0.734375"/><stop stop-opacity="1" stop-color="rgb(65.879822%, 25.976562%, 91.452026%)" offset="0.738281"/><stop stop-opacity="1" stop-color="rgb(66.227722%, 25.585938%, 91.581726%)" offset="0.742188"/><stop stop-opacity="1" stop-color="rgb(66.575623%, 25.195312%, 91.7099%)" offset="0.746094"/><stop stop-opacity="1" stop-color="rgb(66.923523%, 24.804688%, 91.838074%)" offset="0.75"/><stop stop-opacity="1" stop-color="rgb(67.269897%, 24.414062%, 91.966248%)" offset="0.753906"/><stop stop-opacity="1" stop-color="rgb(67.617798%, 24.023438%, 92.095947%)" offset="0.757812"/><stop stop-opacity="1" stop-color="rgb(67.965698%, 23.632812%, 92.224121%)" offset="0.761719"/><stop stop-opacity="1" stop-color="rgb(68.313599%, 23.242188%, 92.352295%)" offset="0.765625"/><stop stop-opacity="1" stop-color="rgb(68.661499%, 22.851562%, 92.480469%)" offset="0.769531"/><stop stop-opacity="1" stop-color="rgb(69.009399%, 22.460938%, 92.610168%)" offset="0.773438"/><stop stop-opacity="1" stop-color="rgb(69.3573%, 22.070312%, 92.738342%)" offset="0.777344"/><stop stop-opacity="1" stop-color="rgb(69.703674%, 21.679688%, 92.866516%)" offset="0.78125"/><stop stop-opacity="1" stop-color="rgb(70.051575%, 21.289062%, 92.99469%)" offset="0.785156"/><stop stop-opacity="1" stop-color="rgb(70.399475%, 20.898438%, 93.122864%)" offset="0.789062"/><stop stop-opacity="1" stop-color="rgb(70.747375%, 20.507812%, 93.252563%)" offset="0.792969"/><stop stop-opacity="1" stop-color="rgb(71.095276%, 20.117188%, 93.380737%)" offset="0.796875"/><stop stop-opacity="1" stop-color="rgb(71.443176%, 19.726562%, 93.508911%)" offset="0.800781"/><stop stop-opacity="1" stop-color="rgb(71.789551%, 19.335938%, 93.637085%)" offset="0.804688"/><stop stop-opacity="1" stop-color="rgb(72.137451%, 18.945312%, 93.766785%)" offset="0.808594"/><stop stop-opacity="1" stop-color="rgb(72.485352%, 18.554688%, 93.894958%)" offset="0.8125"/><stop stop-opacity="1" stop-color="rgb(72.833252%, 18.164062%, 94.023132%)" offset="0.816406"/><stop stop-opacity="1" stop-color="rgb(73.181152%, 17.773438%, 94.151306%)" offset="0.820312"/><stop stop-opacity="1" stop-color="rgb(73.529053%, 17.382812%, 94.27948%)" offset="0.824219"/><stop stop-opacity="1" stop-color="rgb(73.875427%, 16.992188%, 94.40918%)" offset="0.828125"/><stop stop-opacity="1" stop-color="rgb(74.223328%, 16.601562%, 94.537354%)" offset="0.832031"/><stop stop-opacity="1" stop-color="rgb(74.571228%, 16.210938%, 94.665527%)" offset="0.835938"/><stop stop-opacity="1" stop-color="rgb(74.919128%, 15.820312%, 94.793701%)" offset="0.839844"/><stop stop-opacity="1" stop-color="rgb(75.267029%, 15.429688%, 94.923401%)" offset="0.84375"/><stop stop-opacity="1" stop-color="rgb(75.614929%, 15.039062%, 95.051575%)" offset="0.847656"/><stop stop-opacity="1" stop-color="rgb(75.961304%, 14.648438%, 95.179749%)" offset="0.851562"/><stop stop-opacity="1" stop-color="rgb(76.309204%, 14.257812%, 95.307922%)" offset="0.855469"/><stop stop-opacity="1" stop-color="rgb(76.657104%, 13.867188%, 95.436096%)" offset="0.859375"/><stop stop-opacity="1" stop-color="rgb(77.005005%, 13.476562%, 95.565796%)" offset="0.863281"/><stop stop-opacity="1" stop-color="rgb(77.352905%, 13.085938%, 95.69397%)" offset="0.867188"/><stop stop-opacity="1" stop-color="rgb(77.700806%, 12.695312%, 95.822144%)" offset="0.871094"/><stop stop-opacity="1" stop-color="rgb(78.048706%, 12.304688%, 95.950317%)" offset="0.875"/><stop stop-opacity="1" stop-color="rgb(78.395081%, 11.914062%, 96.080017%)" offset="0.878906"/><stop stop-opacity="1" stop-color="rgb(78.742981%, 11.523438%, 96.208191%)" offset="0.882812"/><stop stop-opacity="1" stop-color="rgb(79.090881%, 11.132812%, 96.336365%)" offset="0.886719"/><stop stop-opacity="1" stop-color="rgb(79.438782%, 10.742188%, 96.464539%)" offset="0.890625"/><stop stop-opacity="1" stop-color="rgb(79.786682%, 10.351562%, 96.592712%)" offset="0.894531"/><stop stop-opacity="1" stop-color="rgb(80.134583%, 9.960938%, 96.722412%)" offset="0.898438"/><stop stop-opacity="1" stop-color="rgb(80.480957%, 9.570312%, 96.850586%)" offset="0.902344"/><stop stop-opacity="1" stop-color="rgb(80.828857%, 9.179688%, 96.97876%)" offset="0.90625"/><stop stop-opacity="1" stop-color="rgb(81.176758%, 8.789062%, 97.106934%)" offset="0.910156"/><stop stop-opacity="1" stop-color="rgb(81.524658%, 8.398438%, 97.236633%)" offset="0.914062"/><stop stop-opacity="1" stop-color="rgb(81.872559%, 8.007812%, 97.364807%)" offset="0.917969"/><stop stop-opacity="1" stop-color="rgb(82.220459%, 7.617188%, 97.492981%)" offset="0.921875"/><stop stop-opacity="1" stop-color="rgb(82.566833%, 7.226562%, 97.621155%)" offset="0.925781"/><stop stop-opacity="1" stop-color="rgb(82.914734%, 6.835938%, 97.749329%)" offset="0.929688"/><stop stop-opacity="1" stop-color="rgb(83.262634%, 6.445312%, 97.879028%)" offset="0.933594"/><stop stop-opacity="1" stop-color="rgb(83.610535%, 6.054688%, 98.007202%)" offset="0.9375"/><stop stop-opacity="1" stop-color="rgb(83.958435%, 5.664062%, 98.135376%)" offset="0.941406"/><stop stop-opacity="1" stop-color="rgb(84.306335%, 5.273438%, 98.26355%)" offset="0.945312"/><stop stop-opacity="1" stop-color="rgb(84.65271%, 4.882812%, 98.39325%)" offset="0.949219"/><stop stop-opacity="1" stop-color="rgb(85.00061%, 4.492188%, 98.521423%)" offset="0.953125"/><stop stop-opacity="1" stop-color="rgb(85.348511%, 4.101562%, 98.649597%)" offset="0.957031"/><stop stop-opacity="1" stop-color="rgb(85.696411%, 3.710938%, 98.777771%)" offset="0.960938"/><stop stop-opacity="1" stop-color="rgb(86.044312%, 3.320312%, 98.905945%)" offset="0.964844"/><stop stop-opacity="1" stop-color="rgb(86.392212%, 2.929688%, 99.035645%)" offset="0.96875"/><stop stop-opacity="1" stop-color="rgb(86.740112%, 2.539062%, 99.163818%)" offset="0.972656"/><stop stop-opacity="1" stop-color="rgb(87.086487%, 2.148438%, 99.291992%)" offset="0.976562"/><stop stop-opacity="1" stop-color="rgb(87.434387%, 1.757812%, 99.420166%)" offset="0.980469"/><stop stop-opacity="1" stop-color="rgb(87.782288%, 1.367188%, 99.549866%)" offset="0.984375"/><stop stop-opacity="1" stop-color="rgb(88.130188%, 0.976562%, 99.67804%)" offset="0.988281"/><stop stop-opacity="1" stop-color="rgb(88.478088%, 0.585938%, 99.806213%)" offset="0.992188"/><stop stop-opacity="1" stop-color="rgb(88.825989%, 0.195312%, 99.934387%)" offset="0.996094"/><stop stop-opacity="1" stop-color="rgb(88.999939%, 0%, 100%)" offset="1"/></radialGradient><clipPath id="deb93ccd04"><path d="M 36 91 L 332 91 L 332 182 L 36 182 Z M 36 91 " clip-rule="nonzero"/></clipPath><clipPath id="6a78c42fb3"><path d="M 337.496094 133.425781 L 324.566406 223.207031 L 36.289062 181.6875 L 49.21875 91.910156 Z M 337.496094 133.425781 " clip-rule="nonzero"/></clipPath><clipPath id="92db1577cc"><path d="M 331.03125 178.316406 L 36.582031 181.730469 L 49.511719 91.953125 Z M 331.03125 178.316406 " clip-rule="nonzero"/></clipPath><clipPath id="d28e3d0b86"><path d="M 32.335938 113.0625 L 231.171875 113.0625 L 231.171875 148.363281 L 32.335938 148.363281 Z M 32.335938 113.0625 " clip-rule="nonzero"/></clipPath><clipPath id="26b285202c"><path d="M 49.988281 113.0625 L 213.496094 113.0625 C 218.175781 113.0625 222.664062 114.921875 225.976562 118.234375 C 229.285156 121.542969 231.144531 126.03125 231.144531 130.714844 C 231.144531 135.394531 229.285156 139.882812 225.976562 143.195312 C 222.664062 146.503906 218.175781 148.363281 213.496094 148.363281 L 49.988281 148.363281 C 45.304688 148.363281 40.816406 146.503906 37.507812 143.195312 C 34.195312 139.882812 32.335938 135.394531 32.335938 130.714844 C 32.335938 126.03125 34.195312 121.542969 37.507812 118.234375 C 40.816406 114.921875 45.304688 113.0625 49.988281 113.0625 Z M 49.988281 113.0625 " clip-rule="nonzero"/></clipPath></defs><g clip-path="url(#9358467d15)"><g clip-path="url(#7a4f9fad56)"><path fill="url(#46274cf94c)" d="M 29.085938 91.949219 L 29.085938 186.730469 L 337.488281 186.730469 L 337.488281 91.949219 Z M 29.085938 91.949219 " fill-rule="nonzero"/></g></g><g clip-path="url(#deb93ccd04)"><g clip-path="url(#6a78c42fb3)"><g clip-path="url(#92db1577cc)"><path fill="#2000a2" d="M 337.496094 133.425781 L 324.566406 223.207031 L 36.636719 181.738281 L 49.566406 91.960938 Z M 337.496094 133.425781 " fill-opacity="1" fill-rule="nonzero"/></g></g></g><g clip-path="url(#d28e3d0b86)"><g clip-path="url(#26b285202c)"><path fill="#fbffd2" d="M 32.335938 113.0625 L 231.171875 113.0625 L 231.171875 148.363281 L 32.335938 148.363281 Z M 32.335938 113.0625 " fill-opacity="1" fill-rule="nonzero"/></g></g><g fill="#004150" fill-opacity="1"><g transform="translate(44.944948, 140.969516)"><g><path d="M 2.875 -19.296875 C 3.113281 -19.421875 3.296875 -19.484375 3.421875 -19.484375 C 3.796875 -19.484375 4.410156 -18.992188 5.265625 -18.015625 C 6.117188 -17.035156 7.984375 -14.71875 10.859375 -11.0625 C 11.222656 -10.613281 12.679688 -8.753906 15.234375 -5.484375 L 15.71875 -4.796875 L 15.90625 -5.796875 C 16.007812 -6.578125 16.097656 -8.898438 16.171875 -12.765625 C 16.253906 -16.242188 16.351562 -18.207031 16.46875 -18.65625 C 16.570312 -19 16.773438 -19.171875 17.078125 -19.171875 C 17.234375 -19.171875 17.351562 -19.160156 17.4375 -19.140625 C 17.707031 -19.128906 17.875 -19.050781 17.9375 -18.90625 C 18 -18.769531 18.066406 -18.375 18.140625 -17.71875 C 18.222656 -16.738281 18.265625 -15.582031 18.265625 -14.25 C 18.265625 -10.125 18.039062 -6.375 17.59375 -3 C 17.4375 -2 17.046875 -1.5 16.421875 -1.5 C 16.078125 -1.5 15.722656 -1.691406 15.359375 -2.078125 C 15.015625 -2.429688 13.976562 -3.734375 12.25 -5.984375 C 10.71875 -8.003906 9 -10.207031 7.09375 -12.59375 L 4.484375 -15.828125 L 4.375 -8.9375 C 4.3125 -4.34375 4.226562 -1.953125 4.125 -1.765625 C 4 -1.585938 3.695312 -1.5 3.21875 -1.5 C 2.90625 -1.5 2.710938 -1.550781 2.640625 -1.65625 C 2.585938 -1.78125 2.53125 -4.707031 2.46875 -10.4375 L 2.40625 -19.0625 Z M 2.875 -19.296875 "/></g></g></g><g fill="#004150" fill-opacity="1"><g transform="translate(65.611958, 140.969516)"><g><path d="M 11.578125 -14.171875 C 10.710938 -14.585938 9.765625 -14.796875 8.734375 -14.796875 C 8.390625 -14.796875 8.085938 -14.75 7.828125 -14.65625 C 6.148438 -14.125 5.066406 -12.941406 4.578125 -11.109375 L 4.328125 -10.125 L 5.1875 -9.96875 C 5.84375 -9.863281 7.132812 -9.796875 9.0625 -9.765625 C 9.269531 -9.765625 9.523438 -9.757812 9.828125 -9.75 C 10.128906 -9.738281 10.34375 -9.734375 10.46875 -9.734375 C 11.59375 -9.734375 12.421875 -9.875 12.953125 -10.15625 C 13.472656 -10.425781 13.734375 -10.71875 13.734375 -11.03125 L 13.734375 -11.21875 C 13.679688 -11.738281 13.4375 -12.296875 13 -12.890625 C 12.570312 -13.484375 12.097656 -13.910156 11.578125 -14.171875 Z M 7 -16.546875 C 7.375 -16.648438 7.941406 -16.703125 8.703125 -16.703125 C 9.773438 -16.703125 10.640625 -16.609375 11.296875 -16.421875 C 12.265625 -16.128906 13.023438 -15.757812 13.578125 -15.3125 C 14.128906 -14.863281 14.613281 -14.222656 15.03125 -13.390625 C 15.539062 -12.359375 15.796875 -11.539062 15.796875 -10.9375 C 15.796875 -10.382812 15.582031 -9.847656 15.15625 -9.328125 C 14.65625 -8.773438 14.0625 -8.390625 13.375 -8.171875 C 12.695312 -7.953125 11.613281 -7.828125 10.125 -7.796875 C 9.800781 -7.773438 9.289062 -7.765625 8.59375 -7.765625 C 7.351562 -7.765625 6.492188 -7.800781 6.015625 -7.875 C 5.359375 -7.945312 4.941406 -7.984375 4.765625 -7.984375 C 4.578125 -7.984375 4.484375 -7.960938 4.484375 -7.921875 C 4.484375 -7.753906 4.628906 -7.316406 4.921875 -6.609375 C 5.179688 -5.898438 5.644531 -5.21875 6.3125 -4.5625 C 6.988281 -3.90625 7.613281 -3.523438 8.1875 -3.421875 C 8.632812 -3.347656 8.988281 -3.3125 9.25 -3.3125 C 10.40625 -3.3125 11.597656 -3.632812 12.828125 -4.28125 C 13.617188 -4.707031 14.160156 -4.921875 14.453125 -4.921875 C 14.585938 -4.921875 14.71875 -4.894531 14.84375 -4.84375 C 15.1875 -4.6875 15.359375 -4.421875 15.359375 -4.046875 C 15.359375 -3.765625 15.238281 -3.488281 15 -3.21875 C 14.664062 -2.882812 14.03125 -2.523438 13.09375 -2.140625 C 12.15625 -1.765625 11.304688 -1.519531 10.546875 -1.40625 C 10.148438 -1.351562 9.757812 -1.328125 9.375 -1.328125 C 7.957031 -1.328125 6.695312 -1.710938 5.59375 -2.484375 C 4.488281 -3.265625 3.617188 -4.390625 2.984375 -5.859375 C 2.773438 -6.335938 2.644531 -6.78125 2.59375 -7.1875 C 2.539062 -7.59375 2.503906 -8.296875 2.484375 -9.296875 C 2.484375 -10.316406 2.507812 -11.023438 2.5625 -11.421875 C 2.613281 -11.816406 2.753906 -12.257812 2.984375 -12.75 C 3.378906 -13.644531 3.941406 -14.441406 4.671875 -15.140625 C 5.410156 -15.835938 6.1875 -16.304688 7 -16.546875 Z M 7 -16.546875 "/></g></g></g><g fill="#004150" fill-opacity="1"><g transform="translate(83.818614, 140.969516)"><g><path d="M 14.5625 -14.796875 C 14.664062 -14.847656 14.773438 -14.875 14.890625 -14.875 C 15.140625 -14.875 15.375 -14.78125 15.59375 -14.59375 C 15.820312 -14.414062 15.9375 -14.207031 15.9375 -13.96875 C 15.9375 -13.707031 15.410156 -13.078125 14.359375 -12.078125 C 14.003906 -11.765625 13.457031 -11.25 12.71875 -10.53125 C 11.976562 -9.8125 11.515625 -9.367188 11.328125 -9.203125 L 9.890625 -7.84375 L 12.609375 -5 C 13.617188 -3.945312 14.316406 -3.175781 14.703125 -2.6875 C 15.085938 -2.207031 15.28125 -1.835938 15.28125 -1.578125 C 15.28125 -1.410156 15.210938 -1.253906 15.078125 -1.109375 C 14.898438 -0.941406 14.734375 -0.859375 14.578125 -0.859375 C 14.328125 -0.859375 13.972656 -1.046875 13.515625 -1.421875 C 13.054688 -1.804688 12.300781 -2.523438 11.25 -3.578125 L 8.515625 -6.265625 L 6.25 -3.9375 C 4.757812 -2.363281 3.894531 -1.535156 3.65625 -1.453125 C 3.519531 -1.421875 3.425781 -1.40625 3.375 -1.40625 C 3.125 -1.40625 2.90625 -1.488281 2.71875 -1.65625 C 2.53125 -1.832031 2.4375 -2.03125 2.4375 -2.25 C 2.4375 -2.59375 3.222656 -3.625 4.796875 -5.34375 L 7.15625 -7.84375 L 4.8125 -10.640625 C 3.226562 -12.515625 2.4375 -13.597656 2.4375 -13.890625 C 2.4375 -14.179688 2.523438 -14.40625 2.703125 -14.5625 C 2.890625 -14.726562 3.140625 -14.8125 3.453125 -14.8125 C 3.648438 -14.8125 3.914062 -14.644531 4.25 -14.3125 C 4.59375 -13.988281 5.1875 -13.320312 6.03125 -12.3125 C 7.363281 -10.738281 8.148438 -9.828125 8.390625 -9.578125 C 8.410156 -9.566406 8.453125 -9.5625 8.515625 -9.5625 C 8.671875 -9.5625 8.9375 -9.71875 9.3125 -10.03125 C 9.6875 -10.351562 10.375 -11.007812 11.375 -12 C 13.21875 -13.769531 14.28125 -14.703125 14.5625 -14.796875 Z M 14.5625 -14.796875 "/></g></g></g><g fill="#004150" fill-opacity="1"><g transform="translate(102.232454, 140.969516)"><g><path d="M 6.578125 -18.65625 C 6.785156 -18.863281 7.019531 -18.96875 7.28125 -18.96875 C 7.550781 -18.96875 7.789062 -18.863281 8 -18.65625 C 8.15625 -18.476562 8.234375 -18.164062 8.234375 -17.71875 C 8.234375 -17.613281 8.21875 -17.300781 8.1875 -16.78125 L 8.0625 -15.234375 L 9.953125 -15.234375 C 10.929688 -15.234375 11.566406 -15.175781 11.859375 -15.0625 C 12.160156 -14.945312 12.3125 -14.691406 12.3125 -14.296875 C 12.3125 -13.679688 11.894531 -13.375 11.0625 -13.375 C 10.632812 -13.375 10.019531 -13.320312 9.21875 -13.21875 L 8.078125 -13.078125 L 8.15625 -9.328125 C 8.195312 -6.867188 8.34375 -5.359375 8.59375 -4.796875 C 9.007812 -3.992188 9.703125 -3.59375 10.671875 -3.59375 C 10.804688 -3.59375 11.046875 -3.609375 11.390625 -3.640625 C 11.742188 -3.679688 11.972656 -3.703125 12.078125 -3.703125 C 12.453125 -3.703125 12.722656 -3.625 12.890625 -3.46875 C 13.054688 -3.3125 13.140625 -3.0625 13.140625 -2.71875 C 13.140625 -2.351562 12.953125 -2.066406 12.578125 -1.859375 C 12.203125 -1.648438 11.707031 -1.546875 11.09375 -1.546875 C 10.65625 -1.546875 10.175781 -1.597656 9.65625 -1.703125 C 7.394531 -2.171875 6.265625 -4.039062 6.265625 -7.3125 C 6.265625 -8.238281 6.210938 -9.445312 6.109375 -10.9375 L 5.984375 -12.953125 L 4.484375 -12.953125 C 3.691406 -12.953125 3.164062 -13.007812 2.90625 -13.125 C 2.644531 -13.25 2.515625 -13.503906 2.515625 -13.890625 C 2.515625 -14.179688 2.632812 -14.425781 2.875 -14.625 C 3.113281 -14.820312 3.429688 -14.929688 3.828125 -14.953125 C 4.078125 -14.960938 4.597656 -14.96875 5.390625 -14.96875 L 6.265625 -15.03125 L 6.265625 -16.65625 C 6.265625 -17.800781 6.367188 -18.46875 6.578125 -18.65625 Z M 6.578125 -18.65625 "/></g></g></g><g fill="#004150" fill-opacity="1"><g transform="translate(117.875153, 140.969516)"><g><path d="M 4.609375 -18.625 C 5.785156 -18.675781 7.671875 -18.703125 10.265625 -18.703125 C 13.796875 -18.703125 16.316406 -18.660156 17.828125 -18.578125 L 20.125 -18.4375 L 20.1875 -17.875 C 20.195312 -17.789062 20.203125 -17.671875 20.203125 -17.515625 C 20.203125 -17.128906 19.976562 -16.894531 19.53125 -16.8125 C 19.082031 -16.726562 17.988281 -16.6875 16.25 -16.6875 L 12.71875 -16.6875 L 12.875 -16.21875 C 12.945312 -16.007812 12.984375 -14.523438 12.984375 -11.765625 C 12.984375 -7.222656 12.910156 -4.21875 12.765625 -2.75 C 12.679688 -1.96875 12.609375 -1.503906 12.546875 -1.359375 C 12.492188 -1.210938 12.328125 -1.128906 12.046875 -1.109375 C 11.835938 -1.078125 11.695312 -1.0625 11.625 -1.0625 C 11.351562 -1.0625 11.164062 -1.226562 11.0625 -1.5625 C 10.957031 -1.90625 10.90625 -2.628906 10.90625 -3.734375 C 10.90625 -4.703125 10.929688 -6.097656 10.984375 -7.921875 C 11.015625 -9.097656 11.03125 -10.710938 11.03125 -12.765625 C 11.03125 -14.359375 11.015625 -15.265625 10.984375 -15.484375 L 10.859375 -16.6875 L 6.921875 -16.6875 C 4.859375 -16.6875 3.609375 -16.734375 3.171875 -16.828125 C 2.742188 -16.921875 2.53125 -17.191406 2.53125 -17.640625 C 2.53125 -17.984375 2.671875 -18.222656 2.953125 -18.359375 C 3.234375 -18.503906 3.785156 -18.59375 4.609375 -18.625 Z M 4.609375 -18.625 "/></g></g></g><g fill="#004150" fill-opacity="1"><g transform="translate(140.614047, 140.969516)"><g><path d="M 11.921875 -14.140625 C 11.316406 -14.285156 10.925781 -14.359375 10.75 -14.359375 C 10.675781 -14.335938 10.296875 -14.273438 9.609375 -14.171875 C 8.972656 -14.085938 8.429688 -13.925781 7.984375 -13.6875 C 7.546875 -13.457031 7 -13.039062 6.34375 -12.4375 C 5.03125 -11.226562 4.375 -9.863281 4.375 -8.34375 C 4.375 -7.71875 4.46875 -7.144531 4.65625 -6.625 C 5.0625 -5.539062 5.726562 -4.695312 6.65625 -4.09375 C 7.59375 -3.488281 8.628906 -3.1875 9.765625 -3.1875 C 11.734375 -3.1875 13.3125 -3.945312 14.5 -5.46875 C 15.382812 -6.59375 15.828125 -7.929688 15.828125 -9.484375 C 15.828125 -10.140625 15.722656 -10.726562 15.515625 -11.25 C 15.191406 -12.101562 14.753906 -12.742188 14.203125 -13.171875 C 13.660156 -13.609375 12.898438 -13.929688 11.921875 -14.140625 Z M 8.546875 -15.953125 C 8.929688 -16.046875 9.53125 -16.09375 10.34375 -16.09375 C 10.6875 -16.09375 10.941406 -16.082031 11.109375 -16.0625 C 13.148438 -15.976562 14.753906 -15.351562 15.921875 -14.1875 C 17.085938 -13.019531 17.671875 -11.453125 17.671875 -9.484375 C 17.671875 -7.128906 16.914062 -5.175781 15.40625 -3.625 C 13.90625 -2.070312 12.078125 -1.296875 9.921875 -1.296875 C 9.035156 -1.296875 8.171875 -1.429688 7.328125 -1.703125 C 5.828125 -2.191406 4.644531 -3.050781 3.78125 -4.28125 C 2.914062 -5.519531 2.484375 -6.890625 2.484375 -8.390625 C 2.484375 -10.492188 3.285156 -12.289062 4.890625 -13.78125 C 6.273438 -15.007812 7.492188 -15.734375 8.546875 -15.953125 Z M 8.546875 -15.953125 "/></g></g></g><g fill="#004150" fill-opacity="1"><g transform="translate(160.737188, 140.969516)"><g><path d="M 2.640625 -18.828125 L 2.984375 -19.359375 L 8.453125 -19.359375 C 12.078125 -19.359375 14.023438 -19.285156 14.296875 -19.140625 C 14.578125 -18.972656 14.71875 -18.644531 14.71875 -18.15625 C 14.71875 -17.863281 14.640625 -17.664062 14.484375 -17.5625 C 14.398438 -17.488281 12.679688 -17.453125 9.328125 -17.453125 L 4.375 -17.484375 L 4.53125 -16.703125 C 4.613281 -15.960938 4.65625 -14.988281 4.65625 -13.78125 L 4.65625 -11.6875 L 9.125 -11.546875 C 11.882812 -11.492188 13.488281 -11.410156 13.9375 -11.296875 C 14.175781 -11.191406 14.296875 -10.90625 14.296875 -10.4375 C 14.296875 -9.988281 14.175781 -9.722656 13.9375 -9.640625 C 13.695312 -9.566406 12.097656 -9.53125 9.140625 -9.53125 L 4.65625 -9.53125 L 4.65625 -3.421875 L 9.734375 -3.46875 L 11.171875 -3.46875 C 13.597656 -3.46875 14.898438 -3.4375 15.078125 -3.375 C 15.253906 -3.25 15.34375 -3.003906 15.34375 -2.640625 C 15.34375 -2.265625 15.253906 -1.988281 15.078125 -1.8125 C 14.921875 -1.65625 12.941406 -1.578125 9.140625 -1.578125 C 6.703125 -1.578125 5.117188 -1.597656 4.390625 -1.640625 C 3.671875 -1.679688 3.242188 -1.773438 3.109375 -1.921875 C 2.929688 -2.078125 2.820312 -2.828125 2.78125 -4.171875 C 2.738281 -5.515625 2.703125 -8.625 2.671875 -13.5 C 2.628906 -15.257812 2.566406 -16.429688 2.484375 -17.015625 C 2.429688 -17.429688 2.40625 -17.742188 2.40625 -17.953125 C 2.40625 -18.273438 2.484375 -18.566406 2.640625 -18.828125 Z M 2.640625 -18.828125 "/></g></g></g><g fill="#004150" fill-opacity="1"><g transform="translate(178.555362, 140.969516)"><g><path d="M 11.65625 -11.0625 C 10.34375 -11.6875 9.332031 -12 8.625 -12 C 7.945312 -12 7.171875 -11.703125 6.296875 -11.109375 C 5.640625 -10.660156 5.132812 -10.078125 4.78125 -9.359375 C 4.425781 -8.648438 4.25 -7.90625 4.25 -7.125 C 4.25 -5.625 4.8125 -4.5 5.9375 -3.75 C 6.539062 -3.351562 7.226562 -3.15625 8 -3.15625 C 8.707031 -3.15625 9.425781 -3.328125 10.15625 -3.671875 C 10.945312 -4.054688 11.613281 -4.75 12.15625 -5.75 C 12.707031 -6.75 13.050781 -7.914062 13.1875 -9.25 L 13.296875 -10.3125 Z M 13.453125 -16.09375 C 13.453125 -18.363281 13.535156 -19.585938 13.703125 -19.765625 C 13.878906 -19.941406 14.113281 -20.03125 14.40625 -20.03125 C 14.726562 -20.03125 14.96875 -19.929688 15.125 -19.734375 C 15.269531 -19.546875 15.34375 -18.035156 15.34375 -15.203125 C 15.34375 -14.941406 15.335938 -14.492188 15.328125 -13.859375 C 15.316406 -13.222656 15.3125 -12.710938 15.3125 -12.328125 L 15.3125 -9.5 C 15.3125 -7.03125 15.375 -5.425781 15.5 -4.6875 C 15.632812 -3.945312 15.925781 -3.304688 16.375 -2.765625 C 16.769531 -2.316406 16.96875 -1.910156 16.96875 -1.546875 C 16.96875 -1.035156 16.628906 -0.78125 15.953125 -0.78125 C 15.578125 -0.78125 15.1875 -1 14.78125 -1.4375 C 14.375 -1.875 14.054688 -2.429688 13.828125 -3.109375 C 13.617188 -3.710938 13.5 -4.015625 13.46875 -4.015625 C 13.457031 -4.015625 13.453125 -4.003906 13.453125 -3.984375 C 13.453125 -3.773438 13.144531 -3.40625 12.53125 -2.875 C 11.925781 -2.34375 11.394531 -1.972656 10.9375 -1.765625 C 10.3125 -1.472656 9.367188 -1.316406 8.109375 -1.296875 C 7.054688 -1.296875 6.242188 -1.394531 5.671875 -1.59375 C 5.097656 -1.789062 4.519531 -2.175781 3.9375 -2.75 C 3.351562 -3.332031 2.960938 -3.921875 2.765625 -4.515625 C 2.566406 -5.117188 2.46875 -6.03125 2.46875 -7.25 C 2.46875 -8.582031 2.585938 -9.546875 2.828125 -10.140625 C 3.066406 -10.734375 3.632812 -11.429688 4.53125 -12.234375 C 5.789062 -13.367188 7.140625 -13.9375 8.578125 -13.9375 C 9.441406 -13.9375 10.332031 -13.765625 11.25 -13.421875 C 12.144531 -13.109375 12.753906 -12.890625 13.078125 -12.765625 C 13.097656 -12.765625 13.113281 -12.757812 13.125 -12.75 C 13.144531 -12.75 13.164062 -12.75 13.1875 -12.75 C 13.3125 -12.75 13.382812 -12.941406 13.40625 -13.328125 C 13.4375 -13.710938 13.453125 -14.632812 13.453125 -16.09375 Z M 13.453125 -16.09375 "/></g></g></g><g fill="#004150" fill-opacity="1"><g transform="translate(198.056941, 140.969516)"><g><path d="M 3.75 -15.03125 C 3.976562 -15.113281 4.207031 -15.15625 4.4375 -15.15625 C 4.78125 -15.15625 5.003906 -15.078125 5.109375 -14.921875 C 5.265625 -14.734375 5.46875 -11.503906 5.71875 -5.234375 C 5.757812 -3.921875 5.78125 -3.175781 5.78125 -3 C 5.78125 -2.226562 5.691406 -1.765625 5.515625 -1.609375 C 5.378906 -1.472656 5.171875 -1.40625 4.890625 -1.40625 C 4.492188 -1.40625 4.226562 -1.53125 4.09375 -1.78125 C 4.007812 -1.976562 3.890625 -3.488281 3.734375 -6.3125 C 3.578125 -9.144531 3.5 -11.304688 3.5 -12.796875 C 3.5 -14.234375 3.582031 -14.976562 3.75 -15.03125 Z M 3.453125 -19.875 C 3.847656 -20.082031 4.195312 -20.1875 4.5 -20.1875 C 4.882812 -20.1875 5.195312 -20.0625 5.4375 -19.8125 C 5.675781 -19.5625 5.796875 -19.234375 5.796875 -18.828125 C 5.796875 -18.484375 5.691406 -18.101562 5.484375 -17.6875 C 5.316406 -17.363281 5.117188 -17.140625 4.890625 -17.015625 C 4.671875 -16.898438 4.335938 -16.84375 3.890625 -16.84375 C 3.441406 -16.84375 3.09375 -16.976562 2.84375 -17.25 C 2.59375 -17.53125 2.46875 -17.867188 2.46875 -18.265625 C 2.46875 -18.992188 2.796875 -19.53125 3.453125 -19.875 Z M 3.453125 -19.875 "/></g></g></g><g fill="#004150" fill-opacity="1"><g transform="translate(206.266771, 140.969516)"><g><path d="M 6.578125 -18.65625 C 6.785156 -18.863281 7.019531 -18.96875 7.28125 -18.96875 C 7.550781 -18.96875 7.789062 -18.863281 8 -18.65625 C 8.15625 -18.476562 8.234375 -18.164062 8.234375 -17.71875 C 8.234375 -17.613281 8.21875 -17.300781 8.1875 -16.78125 L 8.0625 -15.234375 L 9.953125 -15.234375 C 10.929688 -15.234375 11.566406 -15.175781 11.859375 -15.0625 C 12.160156 -14.945312 12.3125 -14.691406 12.3125 -14.296875 C 12.3125 -13.679688 11.894531 -13.375 11.0625 -13.375 C 10.632812 -13.375 10.019531 -13.320312 9.21875 -13.21875 L 8.078125 -13.078125 L 8.15625 -9.328125 C 8.195312 -6.867188 8.34375 -5.359375 8.59375 -4.796875 C 9.007812 -3.992188 9.703125 -3.59375 10.671875 -3.59375 C 10.804688 -3.59375 11.046875 -3.609375 11.390625 -3.640625 C 11.742188 -3.679688 11.972656 -3.703125 12.078125 -3.703125 C 12.453125 -3.703125 12.722656 -3.625 12.890625 -3.46875 C 13.054688 -3.3125 13.140625 -3.0625 13.140625 -2.71875 C 13.140625 -2.351562 12.953125 -2.066406 12.578125 -1.859375 C 12.203125 -1.648438 11.707031 -1.546875 11.09375 -1.546875 C 10.65625 -1.546875 10.175781 -1.597656 9.65625 -1.703125 C 7.394531 -2.171875 6.265625 -4.039062 6.265625 -7.3125 C 6.265625 -8.238281 6.210938 -9.445312 6.109375 -10.9375 L 5.984375 -12.953125 L 4.484375 -12.953125 C 3.691406 -12.953125 3.164062 -13.007812 2.90625 -13.125 C 2.644531 -13.25 2.515625 -13.503906 2.515625 -13.890625 C 2.515625 -14.179688 2.632812 -14.425781 2.875 -14.625 C 3.113281 -14.820312 3.429688 -14.929688 3.828125 -14.953125 C 4.078125 -14.960938 4.597656 -14.96875 5.390625 -14.96875 L 6.265625 -15.03125 L 6.265625 -16.65625 C 6.265625 -17.800781 6.367188 -18.46875 6.578125 -18.65625 Z M 6.578125 -18.65625 "/></g></g></g><g fill="#00fff7" fill-opacity="1"><g transform="translate(221.909784, 140.969516)"><g/></g></g><g fill="#f6e3a2" fill-opacity="1"><g transform="translate(44.944948, 176.969513)"><g><path d="M 4.609375 -18.625 C 5.785156 -18.675781 7.671875 -18.703125 10.265625 -18.703125 C 13.796875 -18.703125 16.316406 -18.660156 17.828125 -18.578125 L 20.125 -18.4375 L 20.1875 -17.875 C 20.195312 -17.789062 20.203125 -17.671875 20.203125 -17.515625 C 20.203125 -17.128906 19.976562 -16.894531 19.53125 -16.8125 C 19.082031 -16.726562 17.988281 -16.6875 16.25 -16.6875 L 12.71875 -16.6875 L 12.875 -16.21875 C 12.945312 -16.007812 12.984375 -14.523438 12.984375 -11.765625 C 12.984375 -7.222656 12.910156 -4.21875 12.765625 -2.75 C 12.679688 -1.96875 12.609375 -1.503906 12.546875 -1.359375 C 12.492188 -1.210938 12.328125 -1.128906 12.046875 -1.109375 C 11.835938 -1.078125 11.695312 -1.0625 11.625 -1.0625 C 11.351562 -1.0625 11.164062 -1.226562 11.0625 -1.5625 C 10.957031 -1.90625 10.90625 -2.628906 10.90625 -3.734375 C 10.90625 -4.703125 10.929688 -6.097656 10.984375 -7.921875 C 11.015625 -9.097656 11.03125 -10.710938 11.03125 -12.765625 C 11.03125 -14.359375 11.015625 -15.265625 10.984375 -15.484375 L 10.859375 -16.6875 L 6.921875 -16.6875 C 4.859375 -16.6875 3.609375 -16.734375 3.171875 -16.828125 C 2.742188 -16.921875 2.53125 -17.191406 2.53125 -17.640625 C 2.53125 -17.984375 2.671875 -18.222656 2.953125 -18.359375 C 3.234375 -18.503906 3.785156 -18.59375 4.609375 -18.625 Z M 4.609375 -18.625 "/></g></g></g><g fill="#f6e3a2" fill-opacity="1"><g transform="translate(67.683842, 176.969513)"><g><path d="M 11.578125 -14.171875 C 10.710938 -14.585938 9.765625 -14.796875 8.734375 -14.796875 C 8.390625 -14.796875 8.085938 -14.75 7.828125 -14.65625 C 6.148438 -14.125 5.066406 -12.941406 4.578125 -11.109375 L 4.328125 -10.125 L 5.1875 -9.96875 C 5.84375 -9.863281 7.132812 -9.796875 9.0625 -9.765625 C 9.269531 -9.765625 9.523438 -9.757812 9.828125 -9.75 C 10.128906 -9.738281 10.34375 -9.734375 10.46875 -9.734375 C 11.59375 -9.734375 12.421875 -9.875 12.953125 -10.15625 C 13.472656 -10.425781 13.734375 -10.71875 13.734375 -11.03125 L 13.734375 -11.21875 C 13.679688 -11.738281 13.4375 -12.296875 13 -12.890625 C 12.570312 -13.484375 12.097656 -13.910156 11.578125 -14.171875 Z M 7 -16.546875 C 7.375 -16.648438 7.941406 -16.703125 8.703125 -16.703125 C 9.773438 -16.703125 10.640625 -16.609375 11.296875 -16.421875 C 12.265625 -16.128906 13.023438 -15.757812 13.578125 -15.3125 C 14.128906 -14.863281 14.613281 -14.222656 15.03125 -13.390625 C 15.539062 -12.359375 15.796875 -11.539062 15.796875 -10.9375 C 15.796875 -10.382812 15.582031 -9.847656 15.15625 -9.328125 C 14.65625 -8.773438 14.0625 -8.390625 13.375 -8.171875 C 12.695312 -7.953125 11.613281 -7.828125 10.125 -7.796875 C 9.800781 -7.773438 9.289062 -7.765625 8.59375 -7.765625 C 7.351562 -7.765625 6.492188 -7.800781 6.015625 -7.875 C 5.359375 -7.945312 4.941406 -7.984375 4.765625 -7.984375 C 4.578125 -7.984375 4.484375 -7.960938 4.484375 -7.921875 C 4.484375 -7.753906 4.628906 -7.316406 4.921875 -6.609375 C 5.179688 -5.898438 5.644531 -5.21875 6.3125 -4.5625 C 6.988281 -3.90625 7.613281 -3.523438 8.1875 -3.421875 C 8.632812 -3.347656 8.988281 -3.3125 9.25 -3.3125 C 10.40625 -3.3125 11.597656 -3.632812 12.828125 -4.28125 C 13.617188 -4.707031 14.160156 -4.921875 14.453125 -4.921875 C 14.585938 -4.921875 14.71875 -4.894531 14.84375 -4.84375 C 15.1875 -4.6875 15.359375 -4.421875 15.359375 -4.046875 C 15.359375 -3.765625 15.238281 -3.488281 15 -3.21875 C 14.664062 -2.882812 14.03125 -2.523438 13.09375 -2.140625 C 12.15625 -1.765625 11.304688 -1.519531 10.546875 -1.40625 C 10.148438 -1.351562 9.757812 -1.328125 9.375 -1.328125 C 7.957031 -1.328125 6.695312 -1.710938 5.59375 -2.484375 C 4.488281 -3.265625 3.617188 -4.390625 2.984375 -5.859375 C 2.773438 -6.335938 2.644531 -6.78125 2.59375 -7.1875 C 2.539062 -7.59375 2.503906 -8.296875 2.484375 -9.296875 C 2.484375 -10.316406 2.507812 -11.023438 2.5625 -11.421875 C 2.613281 -11.816406 2.753906 -12.257812 2.984375 -12.75 C 3.378906 -13.644531 3.941406 -14.441406 4.671875 -15.140625 C 5.410156 -15.835938 6.1875 -16.304688 7 -16.546875 Z M 7 -16.546875 "/></g></g></g><g fill="#f6e3a2" fill-opacity="1"><g transform="translate(85.890498, 176.969513)"><g><path d="M 7.90625 -15.546875 C 8.144531 -15.628906 8.710938 -15.671875 9.609375 -15.671875 C 11.648438 -15.671875 12.929688 -15.539062 13.453125 -15.28125 C 13.910156 -15.0625 14.140625 -14.71875 14.140625 -14.25 C 14.140625 -14.007812 14.054688 -13.8125 13.890625 -13.65625 C 13.765625 -13.53125 13.554688 -13.46875 13.265625 -13.46875 C 12.984375 -13.46875 12.507812 -13.519531 11.84375 -13.625 C 11.195312 -13.707031 10.671875 -13.75 10.265625 -13.75 C 9.097656 -13.75 8.101562 -13.492188 7.28125 -12.984375 C 6.46875 -12.484375 5.757812 -11.6875 5.15625 -10.59375 C 4.863281 -10.0625 4.671875 -9.632812 4.578125 -9.3125 C 4.492188 -8.988281 4.453125 -8.546875 4.453125 -7.984375 C 4.453125 -6.984375 4.597656 -6.226562 4.890625 -5.71875 C 5.191406 -5.207031 5.726562 -4.753906 6.5 -4.359375 C 7.5 -3.847656 8.601562 -3.59375 9.8125 -3.59375 C 10.664062 -3.59375 11.476562 -3.722656 12.25 -3.984375 C 12.851562 -4.210938 13.390625 -4.328125 13.859375 -4.328125 L 13.984375 -4.328125 C 14.347656 -4.222656 14.53125 -3.929688 14.53125 -3.453125 C 14.53125 -3.191406 14.453125 -2.960938 14.296875 -2.765625 C 13.984375 -2.421875 13.382812 -2.144531 12.5 -1.9375 C 11.613281 -1.726562 10.660156 -1.625 9.640625 -1.625 C 8.390625 -1.625 7.394531 -1.773438 6.65625 -2.078125 C 5.070312 -2.679688 4.019531 -3.46875 3.5 -4.4375 C 2.820312 -5.726562 2.484375 -7.070312 2.484375 -8.46875 L 2.484375 -8.8125 C 2.585938 -10.207031 3.164062 -11.5625 4.21875 -12.875 C 5.269531 -14.1875 6.5 -15.078125 7.90625 -15.546875 Z M 7.90625 -15.546875 "/></g></g></g><g fill="#f6e3a2" fill-opacity="1"><g transform="translate(102.905824, 176.969513)"><g><path d="M 2.53125 -21.703125 C 2.675781 -22.066406 2.945312 -22.25 3.34375 -22.25 C 3.613281 -22.25 3.8125 -22.222656 3.9375 -22.171875 C 4.0625 -22.117188 4.164062 -21.953125 4.25 -21.671875 C 4.332031 -21.390625 4.382812 -21.039062 4.40625 -20.625 C 4.425781 -20.207031 4.4375 -19.53125 4.4375 -18.59375 C 4.4375 -16.832031 4.476562 -15.320312 4.5625 -14.0625 L 4.71875 -12.671875 L 5.28125 -13.34375 C 6.21875 -14.394531 7.578125 -14.921875 9.359375 -14.921875 C 10.941406 -14.921875 12.207031 -14.578125 13.15625 -13.890625 C 14.101562 -13.210938 14.859375 -12.125 15.421875 -10.625 C 15.566406 -10.207031 15.6875 -9.335938 15.78125 -8.015625 C 15.882812 -6.691406 15.9375 -5.398438 15.9375 -4.140625 C 15.9375 -2.617188 15.863281 -1.78125 15.71875 -1.625 C 15.5625 -1.425781 15.304688 -1.328125 14.953125 -1.328125 C 14.640625 -1.328125 14.421875 -1.410156 14.296875 -1.578125 C 14.160156 -1.804688 14.054688 -3.050781 13.984375 -5.3125 C 13.929688 -7.175781 13.816406 -8.515625 13.640625 -9.328125 C 13.472656 -10.148438 13.15625 -10.875 12.6875 -11.5 C 11.894531 -12.5 10.800781 -13 9.40625 -13 C 8.300781 -13 7.425781 -12.65625 6.78125 -11.96875 C 5.695312 -10.78125 5.007812 -8.085938 4.71875 -3.890625 C 4.625 -2.765625 4.507812 -2.019531 4.375 -1.65625 C 4.238281 -1.289062 3.988281 -1.109375 3.625 -1.109375 C 3.3125 -1.128906 3.113281 -1.234375 3.03125 -1.421875 C 2.851562 -1.816406 2.738281 -3.78125 2.6875 -7.3125 C 2.6875 -7.820312 2.671875 -9.109375 2.640625 -11.171875 C 2.554688 -17.660156 2.488281 -20.941406 2.4375 -21.015625 C 2.351562 -21.128906 2.382812 -21.359375 2.53125 -21.703125 Z M 2.53125 -21.703125 "/></g></g></g><g fill="#00fff7" fill-opacity="1"><g transform="translate(121.269162, 176.969513)"><g/></g></g><g fill="#f6e3a2" fill-opacity="1"><g transform="translate(133.960567, 176.969513)"><g><path d="M 7.984375 -18.4375 C 8.847656 -18.632812 9.835938 -18.734375 10.953125 -18.734375 C 12.078125 -18.734375 12.804688 -18.632812 13.140625 -18.4375 C 13.671875 -18.164062 13.9375 -17.820312 13.9375 -17.40625 C 13.9375 -17.164062 13.835938 -16.957031 13.640625 -16.78125 C 13.441406 -16.613281 13.1875 -16.53125 12.875 -16.53125 C 12.601562 -16.53125 12.351562 -16.582031 12.125 -16.6875 C 11.863281 -16.789062 11.507812 -16.84375 11.0625 -16.84375 C 10.175781 -16.84375 9.175781 -16.6875 8.0625 -16.375 C 6.957031 -16.0625 6.160156 -15.695312 5.671875 -15.28125 C 5.035156 -14.757812 4.71875 -14.234375 4.71875 -13.703125 C 4.71875 -13.535156 4.757812 -13.335938 4.84375 -13.109375 C 5.132812 -12.421875 6.273438 -11.816406 8.265625 -11.296875 C 9.921875 -10.847656 11.378906 -10.300781 12.640625 -9.65625 C 13.898438 -9.019531 14.703125 -8.425781 15.046875 -7.875 C 15.304688 -7.425781 15.4375 -6.9375 15.4375 -6.40625 C 15.4375 -5.226562 14.972656 -4.195312 14.046875 -3.3125 C 13.054688 -2.382812 11.535156 -1.78125 9.484375 -1.5 C 8.859375 -1.394531 8.363281 -1.34375 8 -1.34375 C 7.625 -1.34375 6.898438 -1.460938 5.828125 -1.703125 C 4.203125 -2.085938 3.226562 -2.359375 2.90625 -2.515625 C 2.59375 -2.671875 2.4375 -2.945312 2.4375 -3.34375 C 2.4375 -4.03125 2.710938 -4.375 3.265625 -4.375 C 3.484375 -4.375 3.707031 -4.34375 3.9375 -4.28125 C 5.976562 -3.675781 7.460938 -3.375 8.390625 -3.375 C 8.960938 -3.375 9.65625 -3.484375 10.46875 -3.703125 C 11.28125 -3.929688 11.988281 -4.316406 12.59375 -4.859375 C 13.195312 -5.398438 13.5 -5.894531 13.5 -6.34375 C 13.5 -6.53125 13.445312 -6.6875 13.34375 -6.8125 C 13.0625 -7.144531 12.382812 -7.554688 11.3125 -8.046875 C 10.25 -8.535156 9.066406 -8.972656 7.765625 -9.359375 C 5.898438 -9.921875 4.742188 -10.359375 4.296875 -10.671875 C 3.816406 -11.003906 3.441406 -11.445312 3.171875 -12 C 2.898438 -12.5625 2.765625 -13.15625 2.765625 -13.78125 C 2.765625 -14.664062 3.015625 -15.410156 3.515625 -16.015625 C 3.921875 -16.515625 4.550781 -17 5.40625 -17.46875 C 6.269531 -17.945312 7.128906 -18.269531 7.984375 -18.4375 Z M 7.984375 -18.4375 "/></g></g></g><g fill="#f6e3a2" fill-opacity="1"><g transform="translate(151.856436, 176.969513)"><g><path d="M 11.921875 -14.140625 C 11.316406 -14.285156 10.925781 -14.359375 10.75 -14.359375 C 10.675781 -14.335938 10.296875 -14.273438 9.609375 -14.171875 C 8.972656 -14.085938 8.429688 -13.925781 7.984375 -13.6875 C 7.546875 -13.457031 7 -13.039062 6.34375 -12.4375 C 5.03125 -11.226562 4.375 -9.863281 4.375 -8.34375 C 4.375 -7.71875 4.46875 -7.144531 4.65625 -6.625 C 5.0625 -5.539062 5.726562 -4.695312 6.65625 -4.09375 C 7.59375 -3.488281 8.628906 -3.1875 9.765625 -3.1875 C 11.734375 -3.1875 13.3125 -3.945312 14.5 -5.46875 C 15.382812 -6.59375 15.828125 -7.929688 15.828125 -9.484375 C 15.828125 -10.140625 15.722656 -10.726562 15.515625 -11.25 C 15.191406 -12.101562 14.753906 -12.742188 14.203125 -13.171875 C 13.660156 -13.609375 12.898438 -13.929688 11.921875 -14.140625 Z M 8.546875 -15.953125 C 8.929688 -16.046875 9.53125 -16.09375 10.34375 -16.09375 C 10.6875 -16.09375 10.941406 -16.082031 11.109375 -16.0625 C 13.148438 -15.976562 14.753906 -15.351562 15.921875 -14.1875 C 17.085938 -13.019531 17.671875 -11.453125 17.671875 -9.484375 C 17.671875 -7.128906 16.914062 -5.175781 15.40625 -3.625 C 13.90625 -2.070312 12.078125 -1.296875 9.921875 -1.296875 C 9.035156 -1.296875 8.171875 -1.429688 7.328125 -1.703125 C 5.828125 -2.191406 4.644531 -3.050781 3.78125 -4.28125 C 2.914062 -5.519531 2.484375 -6.890625 2.484375 -8.390625 C 2.484375 -10.492188 3.285156 -12.289062 4.890625 -13.78125 C 6.273438 -15.007812 7.492188 -15.734375 8.546875 -15.953125 Z M 8.546875 -15.953125 "/></g></g></g><g fill="#f6e3a2" fill-opacity="1"><g transform="translate(171.979577, 176.969513)"><g><path d="M 2.671875 -20.28125 C 2.878906 -20.40625 3.078125 -20.46875 3.265625 -20.46875 C 3.523438 -20.46875 3.75 -20.375 3.9375 -20.1875 C 4.144531 -19.976562 4.285156 -19.242188 4.359375 -17.984375 C 4.441406 -16.734375 4.484375 -14.476562 4.484375 -11.21875 L 4.484375 -9.0625 C 4.460938 -5.351562 4.4375 -3.15625 4.40625 -2.46875 C 4.375 -1.789062 4.253906 -1.398438 4.046875 -1.296875 C 3.898438 -1.222656 3.75 -1.1875 3.59375 -1.1875 C 3.445312 -1.1875 3.296875 -1.222656 3.140625 -1.296875 C 2.941406 -1.378906 2.816406 -1.472656 2.765625 -1.578125 C 2.648438 -1.921875 2.566406 -4.21875 2.515625 -8.46875 C 2.515625 -8.757812 2.503906 -9.988281 2.484375 -12.15625 C 2.453125 -16.9375 2.425781 -19.421875 2.40625 -19.609375 C 2.40625 -19.941406 2.492188 -20.164062 2.671875 -20.28125 Z M 2.671875 -20.28125 "/></g></g></g><g fill="#f6e3a2" fill-opacity="1"><g transform="translate(178.868576, 176.969513)"><g><path d="M 12.484375 -15.90625 C 12.722656 -16.082031 12.941406 -16.171875 13.140625 -16.171875 C 13.304688 -16.171875 13.507812 -16.082031 13.75 -15.90625 C 13.945312 -15.769531 14.066406 -15.453125 14.109375 -14.953125 C 14.148438 -14.453125 14.179688 -13.15625 14.203125 -11.0625 C 14.203125 -8.039062 14.296875 -5.785156 14.484375 -4.296875 C 14.566406 -3.429688 14.609375 -2.84375 14.609375 -2.53125 C 14.609375 -2.082031 14.546875 -1.785156 14.421875 -1.640625 C 14.304688 -1.492188 14.082031 -1.421875 13.75 -1.421875 C 13.425781 -1.421875 13.1875 -1.546875 13.03125 -1.796875 C 12.875 -2.046875 12.753906 -2.519531 12.671875 -3.21875 L 12.515625 -4.4375 L 11.96875 -3.59375 C 11.65625 -3.09375 11.179688 -2.613281 10.546875 -2.15625 C 10.148438 -1.875 9.8125 -1.695312 9.53125 -1.625 C 9.257812 -1.5625 8.734375 -1.53125 7.953125 -1.53125 C 6.660156 -1.53125 5.628906 -1.722656 4.859375 -2.109375 C 4.085938 -2.492188 3.460938 -3.128906 2.984375 -4.015625 C 2.753906 -4.390625 2.617188 -4.878906 2.578125 -5.484375 C 2.535156 -6.097656 2.5 -7.644531 2.46875 -10.125 C 2.445312 -10.820312 2.4375 -11.695312 2.4375 -12.75 C 2.4375 -14.125 2.488281 -15.003906 2.59375 -15.390625 C 2.695312 -15.785156 2.910156 -15.984375 3.234375 -15.984375 C 3.253906 -15.984375 3.300781 -15.976562 3.375 -15.96875 C 3.457031 -15.957031 3.515625 -15.953125 3.546875 -15.953125 L 4.203125 -15.875 L 4.296875 -10.78125 C 4.335938 -8.613281 4.382812 -7.1875 4.4375 -6.5 C 4.5 -5.8125 4.609375 -5.320312 4.765625 -5.03125 C 4.992188 -4.582031 5.285156 -4.25 5.640625 -4.03125 C 5.992188 -3.8125 6.503906 -3.632812 7.171875 -3.5 C 7.429688 -3.445312 7.691406 -3.421875 7.953125 -3.421875 C 8.660156 -3.421875 9.265625 -3.648438 9.765625 -4.109375 C 10.265625 -4.578125 10.710938 -5.316406 11.109375 -6.328125 C 11.441406 -7.171875 11.671875 -8.03125 11.796875 -8.90625 C 11.929688 -9.789062 12.015625 -11.023438 12.046875 -12.609375 C 12.078125 -13.992188 12.113281 -14.859375 12.15625 -15.203125 C 12.207031 -15.546875 12.316406 -15.78125 12.484375 -15.90625 Z M 12.484375 -15.90625 "/></g></g></g><g fill="#f6e3a2" fill-opacity="1"><g transform="translate(195.909801, 176.969513)"><g><path d="M 6.578125 -18.65625 C 6.785156 -18.863281 7.019531 -18.96875 7.28125 -18.96875 C 7.550781 -18.96875 7.789062 -18.863281 8 -18.65625 C 8.15625 -18.476562 8.234375 -18.164062 8.234375 -17.71875 C 8.234375 -17.613281 8.21875 -17.300781 8.1875 -16.78125 L 8.0625 -15.234375 L 9.953125 -15.234375 C 10.929688 -15.234375 11.566406 -15.175781 11.859375 -15.0625 C 12.160156 -14.945312 12.3125 -14.691406 12.3125 -14.296875 C 12.3125 -13.679688 11.894531 -13.375 11.0625 -13.375 C 10.632812 -13.375 10.019531 -13.320312 9.21875 -13.21875 L 8.078125 -13.078125 L 8.15625 -9.328125 C 8.195312 -6.867188 8.34375 -5.359375 8.59375 -4.796875 C 9.007812 -3.992188 9.703125 -3.59375 10.671875 -3.59375 C 10.804688 -3.59375 11.046875 -3.609375 11.390625 -3.640625 C 11.742188 -3.679688 11.972656 -3.703125 12.078125 -3.703125 C 12.453125 -3.703125 12.722656 -3.625 12.890625 -3.46875 C 13.054688 -3.3125 13.140625 -3.0625 13.140625 -2.71875 C 13.140625 -2.351562 12.953125 -2.066406 12.578125 -1.859375 C 12.203125 -1.648438 11.707031 -1.546875 11.09375 -1.546875 C 10.65625 -1.546875 10.175781 -1.597656 9.65625 -1.703125 C 7.394531 -2.171875 6.265625 -4.039062 6.265625 -7.3125 C 6.265625 -8.238281 6.210938 -9.445312 6.109375 -10.9375 L 5.984375 -12.953125 L 4.484375 -12.953125 C 3.691406 -12.953125 3.164062 -13.007812 2.90625 -13.125 C 2.644531 -13.25 2.515625 -13.503906 2.515625 -13.890625 C 2.515625 -14.179688 2.632812 -14.425781 2.875 -14.625 C 3.113281 -14.820312 3.429688 -14.929688 3.828125 -14.953125 C 4.078125 -14.960938 4.597656 -14.96875 5.390625 -14.96875 L 6.265625 -15.03125 L 6.265625 -16.65625 C 6.265625 -17.800781 6.367188 -18.46875 6.578125 -18.65625 Z M 6.578125 -18.65625 "/></g></g></g><g fill="#f6e3a2" fill-opacity="1"><g transform="translate(211.5525, 176.969513)"><g><path d="M 3.75 -15.03125 C 3.976562 -15.113281 4.207031 -15.15625 4.4375 -15.15625 C 4.78125 -15.15625 5.003906 -15.078125 5.109375 -14.921875 C 5.265625 -14.734375 5.46875 -11.503906 5.71875 -5.234375 C 5.757812 -3.921875 5.78125 -3.175781 5.78125 -3 C 5.78125 -2.226562 5.691406 -1.765625 5.515625 -1.609375 C 5.378906 -1.472656 5.171875 -1.40625 4.890625 -1.40625 C 4.492188 -1.40625 4.226562 -1.53125 4.09375 -1.78125 C 4.007812 -1.976562 3.890625 -3.488281 3.734375 -6.3125 C 3.578125 -9.144531 3.5 -11.304688 3.5 -12.796875 C 3.5 -14.234375 3.582031 -14.976562 3.75 -15.03125 Z M 3.453125 -19.875 C 3.847656 -20.082031 4.195312 -20.1875 4.5 -20.1875 C 4.882812 -20.1875 5.195312 -20.0625 5.4375 -19.8125 C 5.675781 -19.5625 5.796875 -19.234375 5.796875 -18.828125 C 5.796875 -18.484375 5.691406 -18.101562 5.484375 -17.6875 C 5.316406 -17.363281 5.117188 -17.140625 4.890625 -17.015625 C 4.671875 -16.898438 4.335938 -16.84375 3.890625 -16.84375 C 3.441406 -16.84375 3.09375 -16.976562 2.84375 -17.25 C 2.59375 -17.53125 2.46875 -17.867188 2.46875 -18.265625 C 2.46875 -18.992188 2.796875 -19.53125 3.453125 -19.875 Z M 3.453125 -19.875 "/></g></g></g><g fill="#f6e3a2" fill-opacity="1"><g transform="translate(219.762331, 176.969513)"><g><path d="M 11.921875 -14.140625 C 11.316406 -14.285156 10.925781 -14.359375 10.75 -14.359375 C 10.675781 -14.335938 10.296875 -14.273438 9.609375 -14.171875 C 8.972656 -14.085938 8.429688 -13.925781 7.984375 -13.6875 C 7.546875 -13.457031 7 -13.039062 6.34375 -12.4375 C 5.03125 -11.226562 4.375 -9.863281 4.375 -8.34375 C 4.375 -7.71875 4.46875 -7.144531 4.65625 -6.625 C 5.0625 -5.539062 5.726562 -4.695312 6.65625 -4.09375 C 7.59375 -3.488281 8.628906 -3.1875 9.765625 -3.1875 C 11.734375 -3.1875 13.3125 -3.945312 14.5 -5.46875 C 15.382812 -6.59375 15.828125 -7.929688 15.828125 -9.484375 C 15.828125 -10.140625 15.722656 -10.726562 15.515625 -11.25 C 15.191406 -12.101562 14.753906 -12.742188 14.203125 -13.171875 C 13.660156 -13.609375 12.898438 -13.929688 11.921875 -14.140625 Z M 8.546875 -15.953125 C 8.929688 -16.046875 9.53125 -16.09375 10.34375 -16.09375 C 10.6875 -16.09375 10.941406 -16.082031 11.109375 -16.0625 C 13.148438 -15.976562 14.753906 -15.351562 15.921875 -14.1875 C 17.085938 -13.019531 17.671875 -11.453125 17.671875 -9.484375 C 17.671875 -7.128906 16.914062 -5.175781 15.40625 -3.625 C 13.90625 -2.070312 12.078125 -1.296875 9.921875 -1.296875 C 9.035156 -1.296875 8.171875 -1.429688 7.328125 -1.703125 C 5.828125 -2.191406 4.644531 -3.050781 3.78125 -4.28125 C 2.914062 -5.519531 2.484375 -6.890625 2.484375 -8.390625 C 2.484375 -10.492188 3.285156 -12.289062 4.890625 -13.78125 C 6.273438 -15.007812 7.492188 -15.734375 8.546875 -15.953125 Z M 8.546875 -15.953125 "/></g></g></g><g fill="#f6e3a2" fill-opacity="1"><g transform="translate(239.885471, 176.969513)"><g><path d="M 8.8125 -16.171875 C 9.1875 -16.253906 9.554688 -16.296875 9.921875 -16.296875 C 10.265625 -16.296875 10.65625 -16.234375 11.09375 -16.109375 C 11.9375 -15.890625 12.722656 -15.40625 13.453125 -14.65625 C 14.191406 -13.914062 14.75 -13.035156 15.125 -12.015625 C 15.363281 -11.429688 15.53125 -9.601562 15.625 -6.53125 C 15.675781 -5.03125 15.703125 -3.953125 15.703125 -3.296875 C 15.703125 -2.359375 15.613281 -1.800781 15.4375 -1.625 C 15.21875 -1.4375 15.019531 -1.34375 14.84375 -1.34375 C 14.6875 -1.34375 14.5 -1.421875 14.28125 -1.578125 C 14.101562 -1.703125 13.992188 -2.007812 13.953125 -2.5 C 13.910156 -2.988281 13.851562 -4.28125 13.78125 -6.375 L 13.625 -10.90625 L 13.0625 -12 C 12.175781 -13.570312 11.117188 -14.359375 9.890625 -14.359375 C 9.117188 -14.359375 8.382812 -14.023438 7.6875 -13.359375 C 7 -12.691406 6.445312 -11.742188 6.03125 -10.515625 C 5.757812 -9.742188 5.535156 -8.738281 5.359375 -7.5 C 5.191406 -6.257812 5.109375 -5.132812 5.109375 -4.125 L 5.109375 -2.875 C 5.109375 -2.238281 5.054688 -1.820312 4.953125 -1.625 C 4.859375 -1.425781 4.664062 -1.328125 4.375 -1.328125 C 4.03125 -1.328125 3.785156 -1.46875 3.640625 -1.75 C 3.492188 -2.03125 3.367188 -2.617188 3.265625 -3.515625 C 3.140625 -4.640625 3.007812 -5.304688 2.875 -5.515625 C 2.738281 -5.753906 2.617188 -7.472656 2.515625 -10.671875 C 2.441406 -12.242188 2.40625 -13.460938 2.40625 -14.328125 C 2.40625 -15.117188 2.484375 -15.609375 2.640625 -15.796875 C 2.828125 -16.023438 3.050781 -16.140625 3.3125 -16.140625 C 3.550781 -16.140625 3.769531 -16.035156 3.96875 -15.828125 C 4.175781 -15.617188 4.28125 -14.847656 4.28125 -13.515625 L 4.28125 -11.5 L 4.953125 -12.765625 C 6.035156 -14.734375 7.320312 -15.867188 8.8125 -16.171875 Z M 8.8125 -16.171875 "/></g></g></g><g fill="#f6e3a2" fill-opacity="1"><g transform="translate(257.988536, 176.969513)"><g><path d="M 6.84375 -16.890625 C 7.5 -17.117188 8.3125 -17.234375 9.28125 -17.234375 C 10.519531 -17.234375 11.476562 -17.066406 12.15625 -16.734375 C 12.757812 -16.460938 13.160156 -16.222656 13.359375 -16.015625 C 13.554688 -15.804688 13.65625 -15.53125 13.65625 -15.1875 L 13.65625 -14.921875 C 13.613281 -14.628906 13.554688 -14.4375 13.484375 -14.34375 C 13.410156 -14.25 13.242188 -14.191406 12.984375 -14.171875 L 12.828125 -14.171875 C 12.460938 -14.171875 12.164062 -14.28125 11.9375 -14.5 C 11.351562 -15.070312 10.550781 -15.359375 9.53125 -15.359375 C 8.601562 -15.359375 7.753906 -15.113281 6.984375 -14.625 C 6.210938 -14.144531 5.765625 -13.523438 5.640625 -12.765625 C 5.628906 -12.679688 5.625 -12.554688 5.625 -12.390625 C 5.625 -11.972656 5.820312 -11.640625 6.21875 -11.390625 C 6.613281 -11.140625 7.492188 -10.765625 8.859375 -10.265625 C 10.515625 -9.691406 11.601562 -9.195312 12.125 -8.78125 C 13.019531 -8.050781 13.46875 -7.066406 13.46875 -5.828125 C 13.46875 -4.492188 12.976562 -3.414062 12 -2.59375 C 11.5 -2.175781 10.835938 -1.847656 10.015625 -1.609375 C 9.191406 -1.367188 8.34375 -1.25 7.46875 -1.25 C 6.476562 -1.25 5.640625 -1.394531 4.953125 -1.6875 C 4.359375 -1.945312 3.796875 -2.332031 3.265625 -2.84375 C 2.734375 -3.363281 2.46875 -3.789062 2.46875 -4.125 C 2.46875 -4.8125 2.707031 -5.15625 3.1875 -5.15625 C 3.550781 -5.15625 3.984375 -4.921875 4.484375 -4.453125 C 5.003906 -4.003906 5.410156 -3.703125 5.703125 -3.546875 C 5.992188 -3.390625 6.414062 -3.28125 6.96875 -3.21875 C 7.3125 -3.175781 7.5625 -3.15625 7.71875 -3.15625 C 8.71875 -3.15625 9.582031 -3.410156 10.3125 -3.921875 C 11.039062 -4.429688 11.40625 -5.050781 11.40625 -5.78125 C 11.40625 -6.4375 11.164062 -6.945312 10.6875 -7.3125 C 10.207031 -7.6875 9.269531 -8.082031 7.875 -8.5 C 6.84375 -8.8125 6.0625 -9.097656 5.53125 -9.359375 C 5 -9.628906 4.582031 -9.960938 4.28125 -10.359375 C 3.8125 -10.929688 3.578125 -11.585938 3.578125 -12.328125 C 3.578125 -12.671875 3.628906 -13.066406 3.734375 -13.515625 C 3.921875 -14.210938 4.316406 -14.890625 4.921875 -15.546875 C 5.523438 -16.210938 6.164062 -16.660156 6.84375 -16.890625 Z M 6.84375 -16.890625 "/></g></g></g></svg>