<svg xmlns="http://www.w3.org/2000/svg" xmlns:xlink="http://www.w3.org/1999/xlink" width="210" zoomAndPan="magnify" viewBox="0 0 157.5 157.499993" height="210" preserveAspectRatio="xMidYMid meet" version="1.0"><defs><clipPath id="2252210f7c"><path d="M 0 0 L 156.296875 0 L 156.296875 156.296875 L 0 156.296875 Z M 0 0 " clip-rule="nonzero"/></clipPath><clipPath id="decdfd0447"><path d="M 78.148438 0 C 34.988281 0 0 34.988281 0 78.148438 C 0 121.308594 34.988281 156.296875 78.148438 156.296875 C 121.308594 156.296875 156.296875 121.308594 156.296875 78.148438 C 156.296875 34.988281 121.308594 0 78.148438 0 Z M 78.148438 0 " clip-rule="nonzero"/></clipPath><clipPath id="16e3bb1aec"><path d="M 88 83 L 136 83 L 136 130.488281 L 88 130.488281 Z M 88 83 " clip-rule="nonzero"/></clipPath></defs><g clip-path="url(#2252210f7c)"><g clip-path="url(#decdfd0447)"><path fill="#e1e1e1" d="M 0 0 L 156.296875 0 L 156.296875 156.296875 L 0 156.296875 Z M 0 0 " fill-opacity="1" fill-rule="nonzero"/></g></g><path fill="#01887c" d="M 60.53125 55.398438 L 63.539062 52.691406 C 63.539062 52.691406 65.699219 54.9375 67.835938 57.003906 C 69.972656 59.070312 81.316406 70.382812 81.316406 70.382812 L 101.09375 90.097656 L 116.140625 105.3125 C 116.140625 105.3125 123.421875 112.542969 125.28125 114.355469 C 127.121094 116.144531 131.417969 120.527344 131.417969 120.527344 L 129.554688 122.34375 C 129.554688 122.34375 127.050781 125.324219 126.777344 125.441406 C 126.523438 125.554688 125.695312 126.242188 125.695312 126.242188 C 125.695312 126.242188 113.222656 113.875 112.234375 112.933594 C 111.25 111.96875 96.179688 96.753906 96.179688 96.753906 L 78.835938 79.539062 L 70.957031 71.554688 C 70.957031 71.554688 65.238281 65.953125 64.871094 65.542969 C 64.503906 65.128906 57.84375 58.425781 57.84375 58.425781 C 57.84375 58.425781 58.277344 57.53125 58.324219 57.507812 C 58.371094 57.488281 60.53125 55.445312 60.53125 55.445312 Z M 60.53125 55.398438 " fill-opacity="1" fill-rule="nonzero"/><path fill="#01887c" d="M 35.421875 27.859375 C 35.421875 27.859375 20.21875 45.550781 22.191406 56.523438 C 24.167969 67.492188 25.179688 75.433594 33.449219 82.617188 C 41.695312 89.824219 48.402344 97.554688 59.726562 96.660156 C 71.074219 95.789062 85.660156 89.640625 93.078125 78.253906 C 100.5 66.851562 104.5625 52.851562 101.394531 47.042969 C 98.246094 41.238281 97.648438 35.339844 86.601562 26.964844 C 75.574219 18.609375 68.890625 18.035156 62.046875 15.949219 C 55.179688 13.859375 35.445312 27.835938 35.421875 27.859375 Z M 35.421875 27.859375 " fill-opacity="1" fill-rule="nonzero"/><path fill="#cedef2" d="M 47.941406 28.59375 C 47.941406 28.59375 65.46875 22.234375 73.09375 26.804688 C 80.742188 31.347656 86.371094 34.351562 89.425781 42.570312 C 92.457031 50.738281 96.386719 57.945312 92.527344 66.136719 C 88.667969 74.355469 79.964844 83.511719 69.351562 85.828125 C 58.738281 88.148438 47.136719 87.230469 43.691406 83.234375 C 40.246094 79.242188 36.019531 77.132812 32.875 66.503906 C 29.726562 55.878906 31.195312 50.761719 31.566406 45.046875 C 31.957031 39.355469 47.964844 28.59375 47.941406 28.59375 Z M 47.941406 28.59375 " fill-opacity="1" fill-rule="nonzero"/><g clip-path="url(#16e3bb1aec)"><path fill="#ffb3b8" d="M 130.703125 127.757812 L 133.140625 125.625 L 135.941406 122.777344 C 135.941406 122.777344 136.011719 121.882812 135.503906 121.261719 C 135 120.621094 127.582031 113.183594 127.582031 113.183594 L 118.714844 104.464844 L 106.195312 91.84375 C 106.195312 91.84375 101.851562 87.640625 101.09375 86.90625 C 99.371094 85.1875 97.8125 83.808594 97.742188 83.808594 C 97.671875 83.808594 97.074219 83.441406 96.890625 83.558594 C 96.132812 83.96875 94.824219 85.253906 94.824219 85.253906 L 91.792969 88.445312 L 89.863281 89.9375 C 89.863281 89.9375 88.300781 91.175781 88.621094 91.613281 C 88.96875 92.070312 90.757812 93.953125 91.308594 94.550781 C 91.863281 95.148438 105.757812 108.777344 105.757812 108.777344 L 115.75 118.898438 L 120.917969 123.996094 C 120.917969 123.996094 126.84375 129.890625 127.097656 130.074219 C 127.351562 130.257812 127.601562 130.398438 127.878906 130.441406 C 128.15625 130.488281 128.773438 129.984375 128.820312 129.9375 C 128.867188 129.914062 130.726562 127.757812 130.703125 127.757812 Z M 130.703125 127.757812 " fill-opacity="1" fill-rule="nonzero"/></g><path fill="#f9ecd9" d="M 84.601562 56.109375 L 83.9375 47.960938 C 83.9375 47.960938 76.105469 35.085938 74.359375 34.558594 C 72.636719 34.007812 61.726562 31.78125 59.75 32.3125 C 57.773438 32.839844 52.835938 35.890625 52.835938 35.890625 C 52.835938 35.890625 59.359375 36.28125 62.484375 36.417969 C 65.605469 36.554688 71.050781 38.941406 71.714844 39.332031 C 72.382812 39.722656 80.742188 46.632812 81.296875 47.433594 C 81.824219 48.214844 84.625 56.085938 84.601562 56.109375 Z M 84.601562 56.109375 " fill-opacity="1" fill-rule="nonzero"/></svg>